<svg width="697" height="659" viewBox="0 0 697 659" fill="none" xmlns="http://www.w3.org/2000/svg">
<path fill-rule="evenodd" clip-rule="evenodd" d="M99.1673 258.136C102.626 197.963 89.5448 125.363 135.306 85.1535C180.872 45.1144 258.039 46.3862 318.008 65.8408C371.908 83.3266 384.671 155.371 434.455 182.201C479.381 206.413 542.691 176.582 582.336 208.295C623.613 241.314 644.516 297.339 641.646 347.941C638.814 397.863 599.156 435.855 567.23 474.606C537.707 510.441 507.924 547.969 463.263 564.456C419.264 580.698 370.555 571.811 323.302 564.653C275.241 557.372 224.258 552.799 186.583 522.545C148.365 491.855 132.218 444.451 117.253 399.189C101.938 352.863 96.4066 306.161 99.1673 258.136Z" fill="#0C8A9B"/>
<mask id="mask0" mask-type="alpha" maskUnits="userSpaceOnUse" x="13" y="0" width="684" height="659">
<path fill-rule="evenodd" clip-rule="evenodd" d="M111.108 436.371C78.1825 368.633 88.1216 288.395 123.634 221.977C158.599 156.583 222.033 116.387 293.25 95.7194C375.522 71.8432 476.034 42.1571 537.446 101.885C597.501 160.293 554.97 257.453 545.077 340.641C536.876 409.593 540.608 486.206 486.555 529.795C430.876 574.694 353.155 568.65 283.745 551.378C213.15 533.812 142.91 501.799 111.108 436.371Z" fill="#EBF9F9"/>
</mask>
<g mask="url(#mask0)">
<rect x="-13.7421" y="470.16" width="598" height="108" transform="rotate(3.78464 -13.7421 470.16)" fill="#39374D"/>
<g clip-path="url(#clip0)">
<path d="M630.181 416.901C629.457 419.277 628.735 421.621 628.015 423.933C626.892 427.525 625.783 431.048 624.688 434.501C624.201 436.031 623.714 437.532 623.24 439.034C617.872 455.731 612.859 470.499 608.602 482.643C604.739 493.648 599.003 502.868 591.995 509.339C584.987 515.809 576.965 519.291 568.769 519.421L474.104 520.989H473.106L464.991 521.122L458.049 521.236L436.763 521.587H435.901L425.065 521.768H424.734L357.941 522.87L298.32 523.821L291.385 523.935L248.313 524.647H248.263L220.328 525.103H220.029L131.7 526.557L105.276 526.995C103.026 527.034 100.777 526.862 98.5404 526.481C97.7788 526.348 97.0173 526.196 96.2619 526.016C83.9383 523.12 72.6385 513.883 64.245 499.844C52.8777 480.809 44.6066 458.601 39.0509 434.501C38.2477 431.023 37.4987 427.5 36.8037 423.933C17.571 324.958 41.0173 197.265 83.2155 111.813C84.9841 108.24 86.7819 104.755 88.6088 101.359L88.6525 101.283C101.63 77.0315 116.181 56.7709 131.681 42.3642C159.147 16.7913 189.579 9.58793 219.511 31.0555C244.836 49.2254 268.482 57.7687 291.404 60.0875C293.72 60.3155 296.035 60.4866 298.339 60.5911C350.918 63.1095 400.195 34.2675 458.062 15.6509C460.365 14.9097 462.675 14.1779 465.003 13.4842C506.284 0.9781 552.077 -5.61706 606.535 8.24799C612.193 9.65508 617.776 11.6878 623.24 14.33C625.641 15.5084 627.955 16.7754 630.181 18.1312C656.174 34.2295 670.351 63.9742 676.375 101.245C676.945 104.705 677.438 108.224 677.854 111.803C688.535 201.456 657.254 328.626 630.181 416.901Z" fill="#F2F2F2"/>
<path opacity="0.1" d="M340.506 426.12C340.254 429.595 339.864 433.046 339.338 436.452H397.85V426.12H340.506ZM291.642 484.483L298.579 484.4V458.874C296.2 458.716 293.883 458.558 291.642 458.391V484.483ZM146.192 426.12V436.452H270.148V426.12H146.192ZM676.784 110.634H630.574V29.3377C628.347 27.9935 626.032 26.7545 623.63 25.6209V110.634H465.304V24.7567C462.975 25.435 460.665 26.1505 458.36 26.8753V110.634H298.579V70.8176C296.275 70.7154 293.958 70.5482 291.642 70.3252V110.634H131.861V53.0233C116.355 67.1101 101.799 86.9209 88.8166 110.634H88.7729V110.709C86.9411 114.054 85.1427 117.461 83.3775 120.93H88.7729V426.12H36.9426C37.6337 429.607 38.383 433.052 39.1907 436.452H88.7666V523.445C91.261 524.58 93.8071 525.447 96.3851 526.038C97.1407 526.214 97.9025 526.363 98.6644 526.493C100.901 526.865 103.152 527.033 105.402 526.995L131.836 526.567V436.434H291.642V523.975L298.579 523.863V436.452H458.36V521.345L465.304 521.234V436.452H623.599V440.885C624.074 439.417 624.561 437.948 625.048 436.452C626.143 433.076 627.252 429.632 628.376 426.12C629.096 423.865 629.819 421.573 630.543 419.243V120.967H678.264C677.844 117.442 677.351 113.998 676.784 110.634ZM131.861 426.12V120.93H291.642V426.12H131.861ZM298.592 426.12V120.93H458.36V426.12H298.592ZM623.611 426.12H465.304V120.93H623.599L623.611 426.12Z" fill="black"/>
<path d="M568.747 509.634V520.636L473.918 521.821L472.907 521.846L436.865 522.295L436.003 522.312L425.049 522.438H424.724L357.946 523.276L248.329 524.656H248.236L220.365 525.011L220.065 525.02L96.2222 526.56V513.865L125.341 490.169L183.767 489.509L185.016 489.5L185.428 489.492L186.676 489.466L214.728 489.153L215.983 489.145L216.382 489.136L217.631 489.128L226.625 489.026L226.863 489.018L249.053 488.764H249.234L422.389 486.783L426.628 486.741H427.052L430.286 486.699L453.787 486.436L455.035 486.411L456.19 486.394H456.79L464.099 486.318L465.547 486.293L467.488 486.276L473.575 486.199L483.231 486.089L484.479 486.072L486.652 486.056H487.057L533.692 485.514L568.747 509.634Z" fill="#65617D"/>
<path opacity="0.2" d="M568.747 509.634V520.636L473.918 521.821L472.907 521.846L436.865 522.295L436.003 522.312L425.049 522.438H424.724L357.946 523.276L248.329 524.656H248.236L220.365 525.011L220.065 525.02L96.2222 526.56V513.865L125.341 490.169L183.767 489.509L185.016 489.5L185.428 489.492L186.676 489.466L214.728 489.153L215.983 489.145L216.382 489.136L217.631 489.128L226.625 489.026L226.863 489.018L249.053 488.764H249.234L422.389 486.783L426.628 486.741H427.052L430.286 486.699L453.787 486.436L455.035 486.411L456.19 486.394H456.79L464.099 486.318L465.547 486.293L467.488 486.276L473.575 486.199L483.231 486.089L484.479 486.072L486.652 486.056H487.057L533.692 485.514L568.747 509.634Z" fill="black"/>
<path d="M214.828 467.327V488.053C214.828 489.034 214.623 489.996 214.236 490.826C213.85 491.656 213.297 492.32 212.643 492.741C212.156 493.061 211.624 493.235 211.083 493.249L189.298 493.875C188.716 493.894 188.139 493.729 187.612 493.393C186.947 492.979 186.383 492.315 185.988 491.479C185.593 490.644 185.383 489.672 185.384 488.679V467.327H214.828Z" fill="#3F3D56"/>
<path opacity="0.1" d="M214.828 467.327V488.053C214.828 489.034 214.623 489.996 214.236 490.826C213.85 491.656 213.297 492.32 212.643 492.741C212.156 493.061 211.624 493.235 211.083 493.249L189.298 493.875C188.716 493.894 188.139 493.729 187.612 493.393C186.947 492.979 186.383 492.315 185.988 491.479C185.593 490.644 185.383 489.672 185.384 488.679V467.327H214.828Z" fill="black"/>
<path d="M216.076 467.327V488.053C216.077 489.034 215.872 489.996 215.485 490.826C215.098 491.656 214.546 492.32 213.892 492.741C213.405 493.061 212.872 493.235 212.331 493.249L190.546 493.875C189.964 493.894 189.387 493.729 188.861 493.393C188.195 492.979 187.631 492.315 187.236 491.479C186.841 490.644 186.632 489.672 186.632 488.679V467.327H216.076Z" fill="#3F3D56"/>
<path d="M484.479 467.318H455.036V493.977H484.479V467.318Z" fill="#3F3D56"/>
<path opacity="0.1" d="M484.479 467.318H455.036V493.977H484.479V467.318Z" fill="black"/>
<path d="M483.231 467.318H453.787V493.977H483.231V467.318Z" fill="#3F3D56"/>
<path opacity="0.1" d="M216.07 467.318V471.524L186.626 472.591V467.318H216.07Z" fill="black"/>
<path d="M268.042 322.354V464.703C268.034 465.572 267.78 466.404 267.333 467.026C266.886 467.648 266.279 468.013 265.638 468.046L146.009 472.362H145.978C145.326 472.351 144.704 471.995 144.243 471.371C143.783 470.746 143.52 469.902 143.512 469.019V322.354C143.52 321.47 143.783 320.626 144.243 320.002C144.704 319.377 145.326 319.022 145.978 319.011H265.576C266.227 319.022 266.85 319.377 267.311 320.002C267.771 320.626 268.034 321.47 268.042 322.354Z" fill="#65617D"/>
<path opacity="0.1" d="M146.009 319.011V472.362H145.978C145.326 472.351 144.704 471.995 144.243 471.371C143.783 470.746 143.52 469.902 143.512 469.019V322.354C143.52 321.47 143.783 320.626 144.243 320.002C144.704 319.377 145.326 319.022 145.978 319.011H146.009Z" fill="black"/>
<path d="M151.465 328.1H262.261V453.566L151.465 456.951V328.1Z" fill="#F9A826"/>
<path opacity="0.1" d="M483.231 467.318V472.743L453.787 471.677V467.318H483.231Z" fill="black"/>
<path d="M522.094 322.354V469.019C522.086 469.91 521.819 470.76 521.352 471.386C520.885 472.011 520.254 472.362 519.597 472.362L399.943 468.046C399.302 468.013 398.696 467.648 398.248 467.026C397.801 466.404 397.547 465.572 397.54 464.703V322.354C397.548 321.47 397.81 320.626 398.271 320.002C398.731 319.377 399.354 319.022 400.005 319.011H519.604C520.259 319.013 520.888 319.365 521.354 319.99C521.82 320.616 522.086 321.465 522.094 322.354Z" fill="#65617D"/>
<path opacity="0.1" d="M522.094 322.354V469.019C522.086 469.91 521.819 470.76 521.352 471.386C520.885 472.011 520.254 472.362 519.597 472.362V319.011C520.254 319.011 520.885 319.361 521.352 319.987C521.819 320.613 522.086 321.463 522.094 322.354Z" fill="black"/>
<path d="M514.129 328.1H403.332V453.566L514.129 456.951V328.1Z" fill="#F9A826"/>
<path d="M394.444 322.354V464.703C394.436 465.572 394.182 466.404 393.735 467.026C393.288 467.648 392.681 468.013 392.041 468.046L272.411 472.362C271.754 472.362 271.124 472.011 270.657 471.386C270.189 470.76 269.923 469.91 269.914 469.019V322.354C269.922 321.47 270.185 320.626 270.645 320.002C271.106 319.377 271.729 319.022 272.38 319.011H391.978C392.629 319.022 393.252 319.377 393.713 320.002C394.173 320.626 394.436 321.47 394.444 322.354Z" fill="#65617D"/>
<path d="M277.867 328.1H388.664V453.566L277.867 456.951V328.1Z" fill="#F9A826"/>
<path opacity="0.1" d="M568.747 509.634V520.636L473.918 521.821L472.907 521.846L436.865 522.295L436.003 522.312L425.049 522.438H424.724L357.946 523.276L248.329 524.656H248.236L220.365 525.011L220.065 525.02L96.2222 526.56V513.865L222.631 512.74H222.93L248.516 512.503H248.635L425.336 510.92H425.517L425.623 510.912H425.916L428.906 510.886H429.818L476.315 510.463L479.061 510.446L479.673 510.438L568.747 509.634Z" fill="black"/>
<path d="M334.151 353.769C351.847 353.769 366.192 334.319 366.192 310.328C366.192 286.336 351.847 266.886 334.151 266.886C316.456 266.886 302.111 286.336 302.111 310.328C302.111 334.319 316.456 353.769 334.151 353.769Z" fill="#FBBEBE"/>
<path d="M366.198 377.195C366.198 377.195 304.09 387.35 310.02 377.195C312.167 373.522 312.76 362.638 312.641 350.24C312.604 346.473 312.504 342.572 312.36 338.687C311.674 320.069 310.02 301.873 310.02 301.873C310.02 301.873 364.326 267.174 358.084 294.679C355.587 305.791 356.404 321.397 358.302 336.047C358.858 340.321 359.501 344.51 360.175 348.488C361.82 358.19 363.83 367.771 366.198 377.195Z" fill="#FBBEBE"/>
<path d="M345.93 373.75C353.115 371.947 360.724 368.672 367.484 372.447C369.263 373.437 370.899 374.884 372.721 375.714C374.544 376.543 376.541 376.746 378.439 377.33C385.105 379.378 390.511 386.259 393.982 394.256C397.452 402.254 399.25 411.301 401.01 420.255L405.317 442.115C409.063 461.115 412.808 480.275 413.675 499.918C361.533 503.965 309.272 504.368 257.099 501.128C260.495 492.377 263.966 483.093 263.678 473.2C263.391 463.307 259.19 453.549 260.707 443.799C261.675 437.587 264.808 432.467 266.725 426.687C272.186 410.167 267.935 387.934 277.536 375.358C281.855 369.705 288.147 367.564 294.158 367.834C301.824 368.181 309.67 371.423 317.254 373.005C326.967 375.003 336.143 376.187 345.93 373.75Z" fill="#FF6584"/>
<path opacity="0.1" d="M427.639 467.834L427.577 469.045V469.129L427.471 471.076L426.64 486.741L425.635 505.614L425.348 510.929L424.724 522.303V522.447L357.934 523.293L248.329 524.901V525.612H248.242V524.901V524.664L248.523 512.511L249.059 488.764L249.521 468.63L249.565 466.624C249.592 465.414 249.801 464.223 250.179 463.126C250.557 462.028 251.096 461.047 251.764 460.241C252.431 459.436 253.212 458.823 254.06 458.441C254.907 458.058 255.803 457.914 256.694 458.017C259.64 458.356 263.466 458.77 268.042 459.211L269.914 459.397C296.337 461.885 345.169 465.101 394.444 461.089C395.48 461.013 396.522 460.929 397.565 460.827C405.205 460.175 412.839 459.337 420.398 458.288C421.354 458.152 422.32 458.302 423.228 458.727C424.136 459.152 424.965 459.842 425.655 460.748C426.345 461.655 426.881 462.755 427.224 463.972C427.566 465.189 427.708 466.493 427.639 467.792V467.834Z" fill="black"/>
<path d="M248.31 525.612V524.901L357.934 523.285L424.724 522.438H424.911V522.295L425.535 510.92L425.804 505.842L426.828 486.707L427.633 471.558V471.186C427.67 470.488 427.647 469.786 427.564 469.095C427.568 469.067 427.568 469.039 427.564 469.011C427.393 467.583 426.964 466.234 426.316 465.084C425.628 463.889 424.728 462.951 423.699 462.359C422.67 461.766 421.547 461.539 420.436 461.699C412.877 462.748 405.242 463.586 397.602 464.238C396.56 464.339 395.517 464.424 394.481 464.5C345.206 468.469 296.374 465.253 269.952 462.807L268.079 462.621C263.504 462.181 259.677 461.775 256.731 461.428C255.11 461.242 253.496 461.878 252.201 463.211C250.905 464.544 250.019 466.481 249.715 468.647C249.652 469.105 249.614 469.569 249.603 470.035L249.178 488.789L248.598 512.545L248.323 524.698V524.935V525.646L248.31 525.612Z" fill="#3F3D56"/>
<path opacity="0.1" d="M427.826 473.767L427.059 486.741L425.916 506.079L425.629 510.92L425.005 521.761L424.967 522.303V522.447L424.874 523.699L424.942 522.447H424.761L357.971 523.293L248.329 524.901V524.664L248.635 512.511L249.259 488.764L249.659 472.98C249.678 472.082 249.863 471.205 250.197 470.429C250.531 469.653 251.002 469.003 251.569 468.537C252.276 467.949 253.102 467.683 253.928 467.775C255.239 467.919 256.85 468.088 258.728 468.274C261.781 468.579 265.545 468.935 269.927 469.307C278.041 470.001 288.222 470.746 299.889 471.355C332.348 473.048 376.167 473.615 417.789 468.672C419.662 468.452 421.597 468.207 423.488 467.961C424.237 467.86 424.991 468.054 425.66 468.52C425.85 468.648 426.03 468.801 426.197 468.977C426.741 469.511 427.171 470.229 427.446 471.059C427.509 471.224 427.561 471.397 427.602 471.575C427.789 472.276 427.866 473.023 427.826 473.767Z" fill="black"/>
<path opacity="0.1" d="M216.076 485.353V488.053C216.077 489.034 215.872 489.996 215.485 490.826C215.098 491.656 214.546 492.32 213.892 492.741L188.861 493.393C188.195 492.979 187.631 492.315 187.236 491.479C186.841 490.644 186.632 489.672 186.632 488.679V486.14L216.076 485.353Z" fill="black"/>
<path d="M216.382 494.332L183.767 495.179V487.841L216.382 486.995V494.332Z" fill="#3F3D56"/>
<path opacity="0.1" d="M216.382 494.332L183.767 495.179V487.841L216.382 486.995V494.332Z" fill="black"/>
<path d="M217.631 494.332L185.016 495.179V487.841L217.631 486.995V494.332Z" fill="#3F3D56"/>
<path opacity="0.1" d="M453.974 487.046V489.745C453.974 490.727 454.179 491.689 454.566 492.519C454.953 493.349 455.505 494.013 456.159 494.434L481.19 495.086C481.855 494.672 482.419 494.008 482.814 493.172C483.209 492.336 483.419 491.364 483.418 490.372V487.833L453.974 487.046Z" fill="black"/>
<path opacity="0.1" d="M453.662 496.025L486.277 496.871V489.534L453.662 488.688V496.025Z" fill="black"/>
<path d="M452.414 496.025L485.029 496.871V489.534L452.414 488.688V496.025Z" fill="#3F3D56"/>
<path d="M313.883 323.64C313.933 329.564 311.911 335.15 310.194 340.625C303.944 360.571 301.238 382.229 302.292 403.853C302.748 413.163 303.902 422.472 302.748 431.697C301.593 440.922 297.486 450.121 290.888 452.77C301.83 461.614 316.642 460.683 326.942 450.519C332.429 445.102 336.517 437.545 340.518 430.114C340.043 443.462 337.193 456.456 332.21 467.987C341.216 466.906 349.955 463.272 357.859 457.321C365.763 451.37 372.658 443.234 378.096 433.44C380.786 428.523 383.127 423.124 384.163 417.166C386.092 406.164 383.402 394.73 381.348 383.736C379.632 374.546 378.345 365.218 377.496 355.808C377.228 352.795 377.01 349.698 377.559 346.753C378.183 343.308 379.85 340.397 381.079 337.257C384.575 328.337 384.656 317.538 382.865 307.738C381.073 297.938 377.565 288.899 374.088 279.97C371.304 272.811 368.283 265.321 363.19 261.115C360.006 258.491 356.323 257.399 352.653 256.341L336.817 251.746C333.353 250.739 329.788 249.732 326.286 250.468C320.375 251.72 316.212 257.509 312.554 263.45C309.689 268.071 302.685 276.746 302.192 282.797C301.743 288.374 305.376 297.717 305.993 303.599C306.805 311.216 307.379 308.677 310.55 313.349C312.554 316.243 313.846 319.586 313.883 323.64Z" fill="#3F3D56"/>
<path d="M217.425 340.321H155.254C155.171 340.321 155.091 340.276 155.033 340.197C154.974 340.117 154.941 340.01 154.941 339.898C154.941 339.785 154.974 339.678 155.033 339.598C155.091 339.519 155.171 339.474 155.254 339.474H217.425C217.507 339.474 217.587 339.519 217.645 339.598C217.704 339.678 217.737 339.785 217.737 339.898C217.737 340.01 217.704 340.117 217.645 340.197C217.587 340.276 217.507 340.321 217.425 340.321Z" fill="#F2F2F2"/>
<path d="M217.425 347.938H155.254C155.171 347.938 155.091 347.893 155.033 347.814C154.974 347.734 154.941 347.627 154.941 347.514C154.941 347.402 154.974 347.295 155.033 347.215C155.091 347.136 155.171 347.091 155.254 347.091H217.425C217.507 347.091 217.587 347.136 217.645 347.215C217.704 347.295 217.737 347.402 217.737 347.514C217.737 347.627 217.704 347.734 217.645 347.814C217.587 347.893 217.507 347.938 217.425 347.938Z" fill="#F2F2F2"/>
<path d="M217.425 355.554H155.254C155.171 355.554 155.091 355.51 155.033 355.43C154.974 355.351 154.941 355.243 154.941 355.131C154.941 355.019 154.974 354.911 155.033 354.832C155.091 354.753 155.171 354.708 155.254 354.708H217.425C217.507 354.708 217.587 354.753 217.645 354.832C217.704 354.911 217.737 355.019 217.737 355.131C217.737 355.243 217.704 355.351 217.645 355.43C217.587 355.51 217.507 355.554 217.425 355.554Z" fill="#F2F2F2"/>
</g>
</g>
<defs>
<clipPath id="clip0">
<rect width="650" height="469" fill="white" transform="translate(30 58)"/>
</clipPath>
</defs>
</svg>
