<svg width="526" height="437" viewBox="0 0 526 437" fill="none" xmlns="http://www.w3.org/2000/svg">
<path d="M492.44 85.124C511.236 110.596 507.077 143.592 507.077 143.592C507.077 143.592 472.443 135.291 453.648 109.82C434.852 84.3481 439.011 51.3512 439.011 51.3512C439.011 51.3512 473.645 59.6522 492.44 85.124Z" fill="#2F2E41"/>
<path d="M478.916 89.9876C481.116 120.8 506.362 144.334 506.362 144.334C506.362 144.334 528.043 117.911 525.843 87.0978C523.644 56.2852 498.397 32.7515 498.397 32.7515C498.397 32.7515 476.717 59.175 478.916 89.9876Z" fill="#F9A826"/>
<path d="M263.118 0.641484L518.307 119.809C520.428 120.8 522.188 122.35 523.366 124.266C524.543 126.182 525.086 128.377 524.926 130.578L510.1 334.563C510.033 335.478 509.724 336.363 509.199 337.14C508.674 337.917 507.951 338.561 507.093 339.014C506.235 339.468 505.27 339.718 504.283 339.74C503.296 339.763 502.318 339.559 501.437 339.145L240.429 215.42L253.829 5.61411C253.892 4.62857 254.217 3.67298 254.776 2.83317C255.335 1.99336 256.109 1.29563 257.03 0.802638C257.951 0.309646 258.99 0.036835 260.052 0.00870677C261.115 -0.0194214 262.168 0.198013 263.118 0.641484Z" fill="#D0CDE1"/>
<path d="M266.055 4.79841L514.976 121.039C517.045 122.006 518.762 123.518 519.91 125.386C521.059 127.255 521.588 129.397 521.432 131.543L506.97 330.518C506.905 331.41 506.603 332.274 506.092 333.032C505.58 333.789 504.874 334.418 504.037 334.86C503.201 335.303 502.259 335.546 501.296 335.568C500.333 335.591 499.38 335.391 498.52 334.987L243.923 214.302L256.994 9.64891C257.055 8.68758 257.373 7.75545 257.918 6.93627C258.463 6.11709 259.219 5.43649 260.117 4.95561C261.015 4.47473 262.028 4.20862 263.064 4.18118C264.101 4.15374 265.128 4.36583 266.055 4.79841Z" fill="#3F3D56"/>
<path d="M276.964 20.2379L502.603 125.607C504.479 126.483 506.035 127.853 507.076 129.547C508.117 131.241 508.597 133.183 508.456 135.128L495.346 315.493C495.288 316.302 495.014 317.085 494.55 317.772C494.086 318.458 493.446 319.028 492.688 319.429C491.929 319.83 491.076 320.051 490.203 320.071C489.33 320.091 488.466 319.91 487.687 319.544L256.902 210.147L268.75 24.6347C268.806 23.7633 269.094 22.9183 269.588 22.1758C270.082 21.4332 270.767 20.8163 271.581 20.3803C272.395 19.9444 273.314 19.7032 274.253 19.6783C275.193 19.6535 276.124 19.8457 276.964 20.2379Z" fill="white"/>
<path d="M44.1377 315.794L299.653 435.316C302.03 436.426 304.656 437.003 307.317 437C309.979 436.997 312.603 436.414 314.978 435.297L504 346.173C506.217 344.114 505.907 341.063 505.199 338.773C504.854 337.664 504.386 336.591 503.801 335.573L478.043 322.99L261.475 222.626L248.536 216.246C245.11 214.561 241.296 213.673 237.42 213.659C233.544 213.644 229.722 214.503 226.282 216.163L44.0578 304.082C42.8984 304.638 41.9275 305.482 41.2524 306.52C40.5773 307.557 40.2244 308.748 40.2327 309.96C40.241 311.173 40.6101 312.359 41.2993 313.389C41.9885 314.418 42.9708 315.251 44.1377 315.794Z" fill="#D0CDE1"/>
<path opacity="0.1" d="M44.1377 315.794L299.653 435.316C302.03 436.426 304.656 437.003 307.317 437C309.979 436.997 312.603 436.414 314.978 435.297L504.001 346.173C506.217 344.114 505.907 341.063 505.199 338.773L316.741 429.757C314.441 430.867 311.891 431.456 309.3 431.477C306.708 431.498 304.148 430.949 301.828 429.875L40.3239 308.867C40.078 310.248 40.3158 311.667 41.0023 312.914C41.6888 314.16 42.7878 315.17 44.1377 315.794Z" fill="black"/>
<path opacity="0.1" d="M286.662 351.605L203.913 312.765C202.247 311.983 200.403 311.585 198.537 311.605C196.67 311.625 194.836 312.062 193.19 312.879L145.187 336.699C144.632 336.974 144.17 337.385 143.85 337.888C143.529 338.391 143.364 338.966 143.371 339.55C143.379 340.134 143.559 340.705 143.892 341.2C144.225 341.696 144.697 342.097 145.259 342.36L229.63 381.878C231.031 382.534 232.584 382.86 234.153 382.826C235.721 382.792 237.257 382.401 238.624 381.685L286.818 356.466C287.288 356.22 287.677 355.86 287.942 355.424C288.207 354.987 288.338 354.492 288.322 353.992C288.306 353.491 288.143 353.004 287.85 352.583C287.558 352.163 287.147 351.824 286.662 351.605Z" fill="black"/>
<path opacity="0.1" d="M481.548 345.109L392.503 389.048C391.478 389.553 390.338 389.823 389.178 389.834C388.018 389.844 386.872 389.596 385.836 389.11L134.245 270.935C133.536 270.602 132.941 270.092 132.526 269.463C132.112 268.834 131.894 268.109 131.897 267.372C131.901 266.634 132.125 265.911 132.546 265.285C132.966 264.659 133.566 264.154 134.278 263.827L221.233 223.852C222.543 223.249 223.987 222.938 225.449 222.943C226.911 222.948 228.352 223.269 229.658 223.88L481.509 341.742C481.843 341.899 482.125 342.137 482.323 342.432C482.521 342.727 482.628 343.067 482.632 343.415C482.636 343.762 482.537 344.104 482.346 344.403C482.155 344.702 481.879 344.946 481.548 345.109Z" fill="black"/>
<path d="M339.491 125.983L339.045 126.813L420.912 164.833L421.358 164.003L339.491 125.983Z" fill="#F9A826"/>
<path d="M339.484 137.134L339.03 137.959L420.919 176.866L421.373 176.041L339.484 137.134Z" fill="#F9A826"/>
<path d="M354.474 158.436L354.02 159.262L400.937 181.528L401.392 180.703L354.474 158.436Z" fill="#F9A826"/>
<path d="M98.1483 204.862C98.1483 204.862 78.1845 196.782 68.8075 205.317C59.4306 213.852 93.9136 211.043 98.1483 204.862Z" fill="#3F3D56"/>
<path d="M63.6761 166.543C70.385 156.013 83.6582 155.523 83.6582 155.523C83.6582 155.523 96.5921 153.986 104.889 170.023C112.623 184.97 123.296 199.401 106.607 202.9L103.593 194.186L101.726 203.549C99.3501 203.708 96.9664 203.746 94.5859 203.662C76.7139 203.126 59.6936 203.819 60.2416 197.862C60.9701 189.944 57.2207 176.674 63.6761 166.543Z" fill="#2F2E41"/>
<path d="M54.2884 357.42C54.2884 357.42 62.7579 372.029 68.2026 372.029C73.6473 372.029 73.0423 381.582 71.8324 383.829C70.6224 386.077 67.5976 391.134 72.4373 398.439C74.1278 400.99 73.8254 403.885 72.7161 406.571C69.6079 414.098 57.517 411.818 57.9027 403.764C57.907 403.675 57.9121 403.586 57.9182 403.496C58.5231 394.506 53.6834 380.458 48.8437 377.086C44.004 373.715 39.7692 364.724 39.7692 364.724L54.2884 357.42Z" fill="#FFB8B8"/>
<path d="M112.365 354.048C112.365 354.048 103.895 368.658 98.4508 368.658C93.0061 368.658 93.6111 378.21 94.821 380.458C96.031 382.705 99.0558 387.763 94.2161 395.067C92.5256 397.619 92.828 400.513 93.9373 403.2C97.0455 410.726 109.136 408.446 108.751 400.393C108.746 400.304 108.741 400.214 108.735 400.125C108.13 391.134 112.97 377.086 117.81 373.715C122.649 370.343 126.884 361.353 126.884 361.353L112.365 354.048Z" fill="#FFB8B8"/>
<path d="M105.71 282.124L109.34 289.429C109.34 289.429 162.577 305.724 157.737 324.829C152.898 343.934 129.304 373.715 125.674 372.591C122.044 371.467 102.686 368.096 102.081 358.543C101.476 348.991 115.995 332.134 115.995 332.134L96.031 315.277L66.9803 314.715L42.1891 332.134C42.1891 332.134 68.2026 353.486 56.7082 361.915C45.2139 370.343 28.2749 375.963 25.855 372.591C23.4352 369.22 -3.78828 319.21 0.446469 314.715C4.68122 310.219 47.6338 293.362 47.6338 293.362L59.1281 278.191L103.896 275.943L105.71 282.124Z" fill="#2F2E41"/>
<path d="M94.821 189.41C94.821 189.41 91.7962 207.952 97.8458 210.2C103.895 212.448 85.7466 222 85.7466 222H75.4621L68.8075 209.076C68.8075 209.076 74.8572 198.962 71.2274 189.41C67.5976 179.857 94.821 189.41 94.821 189.41Z" fill="#FFB8B8"/>
<path opacity="0.1" d="M94.821 189.41C94.821 189.41 91.7962 207.952 97.8458 210.2C103.895 212.448 85.7466 222 85.7466 222H75.4621L68.8075 209.076C68.8075 209.076 74.8572 198.962 71.2274 189.41C67.5976 179.857 94.821 189.41 94.821 189.41Z" fill="black"/>
<path d="M99.0558 205.143C99.0558 205.143 92.4011 211.886 91.1912 213.01C89.9813 214.133 84.5366 220.314 73.0423 211.324C61.5479 202.333 60.338 213.01 60.338 213.01V280.438C60.338 280.438 70.0175 276.505 77.882 280.438C85.7466 284.372 102.081 279.315 102.081 279.315L105.105 209.638L99.0558 205.143Z" fill="#D0CDE1"/>
<path d="M94.612 205.143C94.612 205.143 100.266 202.895 105.105 205.143C109.945 207.39 126.884 218.629 125.674 223.686C124.464 228.743 108.735 264.143 119.625 281C130.514 297.858 132.329 302.353 132.329 302.353L105.71 289.429C105.71 289.429 85.1416 277.629 86.9565 270.324C88.7714 263.019 94.612 205.143 94.612 205.143Z" fill="#3F3D56"/>
<path d="M70.6153 205.143C70.6153 205.143 57.9182 206.267 57.3132 207.391C56.7082 208.514 38.2568 213.291 39.4667 218.348C40.6767 223.405 57.3132 268.638 50.0536 277.067C42.794 285.496 30.6947 297.296 34.9295 298.419C39.1642 299.543 46.4238 296.734 53.6834 298.419C60.943 300.105 77.882 286.058 76.0671 270.886C74.2522 255.715 76.0528 209.076 70.6153 205.143Z" fill="#3F3D56"/>
<path d="M100.871 312.467V318.086C100.871 318.086 103.896 331.01 94.2161 330.448C84.5366 329.886 90.5863 314.715 90.5863 314.715L91.1912 309.658L100.871 312.467Z" fill="#FFB8B8"/>
<path d="M73.6473 313.029C73.6473 313.029 80.3019 325.953 73.6473 327.077C66.9926 328.2 62.1529 319.772 62.1529 317.524C62.1529 315.277 73.6473 313.029 73.6473 313.029Z" fill="#FFB8B8"/>
<path d="M64.8753 184.071C65.5435 184.071 66.0852 183.065 66.0852 181.824C66.0852 180.582 65.5435 179.576 64.8753 179.576C64.207 179.576 63.6653 180.582 63.6653 181.824C63.6653 183.065 64.207 184.071 64.8753 184.071Z" fill="#FFB8B8"/>
<path d="M100.568 184.071C101.236 184.071 101.778 183.065 101.778 181.824C101.778 180.582 101.236 179.576 100.568 179.576C99.9 179.576 99.3583 180.582 99.3583 181.824C99.3583 183.065 99.9 184.071 100.568 184.071Z" fill="#FFB8B8"/>
<path d="M54.2884 212.448C54.2884 212.448 39.1643 212.448 39.7692 218.067C40.3742 223.686 60.338 320.334 60.338 320.334C60.338 320.334 68.8075 313.029 76.0671 314.715L54.2884 212.448Z" fill="#3F3D56"/>
<path d="M112.97 214.133C112.97 214.133 128.094 216.943 128.094 225.372C128.094 233.8 106.315 314.715 103.291 314.715C100.266 314.715 88.7714 313.029 88.7714 310.219C88.7714 307.41 112.97 214.133 112.97 214.133Z" fill="#3F3D56"/>
<path opacity="0.2" d="M109.643 230.71L96.031 280.152C96.031 280.152 102.383 236.891 109.643 230.71Z" fill="black"/>
<path opacity="0.2" d="M56.6979 223.762L70.4645 288.406C70.4645 288.406 66.0646 227.491 56.6979 223.762Z" fill="black"/>
<path d="M82.7217 198.4C92.411 198.4 100.266 191.104 100.266 182.105C100.266 173.105 92.411 165.809 82.7217 165.809C73.0324 165.809 65.1777 173.105 65.1777 182.105C65.1777 191.104 73.0324 198.4 82.7217 198.4Z" fill="#FFB8B8"/>
<path d="M66.6422 165.527L79.7556 159.148L97.8642 161.757L101.611 177.127L92.2845 176.795L89.679 171.148V176.701L85.3754 176.548L82.8775 167.557L81.3166 177.127L66.0175 176.838L66.6422 165.527Z" fill="#2F2E41"/>
<path d="M263.282 70.9239L256.051 86.8981L317.087 116.656L337.65 60.7634" fill="#F2F2F2"/>
<path d="M315.68 106.855L342.643 47.926L280.671 19.6011L254.644 77.0976L315.68 106.855Z" fill="#F9A826"/>
<path d="M279.206 42.1359L278.752 42.9618L325.67 65.2287L326.124 64.4028L279.206 42.1359Z" fill="white"/>
<path d="M275.689 49.9763L275.235 50.8022L322.152 73.0691L322.607 72.2432L275.689 49.9763Z" fill="white"/>
</svg>
