<svg width="658" height="685" viewBox="0 0 658 685" fill="none" xmlns="http://www.w3.org/2000/svg">
<path fill-rule="evenodd" clip-rule="evenodd" d="M244.854 79.2171C287.821 79.5287 322.213 122.471 364.861 132.634C426.484 147.317 505.781 94.6774 546.897 151.189C586.119 205.1 527.566 278.078 518.844 344.279C511.478 400.181 529.415 464.775 499.818 508.488C469.965 552.579 413.327 553.123 366.1 569.873C313.348 588.582 262.986 631.055 208.007 611.981C151.436 592.356 93.3311 537.308 82.2934 471.417C71.1653 404.986 150.46 366.925 155.896 300.897C160.747 241.966 89.1607 183.557 110.337 130.787C130.438 80.6967 195.333 78.8579 244.854 79.2171Z" fill="#C51340"/>
<mask id="mask0" mask-type="alpha" maskUnits="userSpaceOnUse" x="-24" y="14" width="682" height="671">
<path fill-rule="evenodd" clip-rule="evenodd" d="M133.882 203.573C157.722 154.64 172.108 89.5905 224.243 72.0244C276.157 54.5328 340.013 82.4697 383.205 119.567C422.027 152.91 407.568 217.386 439.706 257.082C468.707 292.904 531.849 290.098 553.837 330.331C576.731 372.221 574.635 426.183 554.619 467.347C534.872 507.958 488.594 525.802 448.495 546.971C411.413 566.547 373.526 587.444 330.571 585.626C288.252 583.835 250.761 559.464 213.881 537.042C176.37 514.236 135.482 492.668 114.627 454.337C93.4717 415.453 96.5273 370.331 99.8234 327.404C103.197 283.469 114.854 242.628 133.882 203.573Z" fill="#FAFAFA"/>
</mask>
<g mask="url(#mask0)">
<rect x="-62" y="-52.9999" width="755" height="688" fill="#F9F9F9" fill-opacity="0.97"/>
<g clip-path="url(#clip0)">
<path opacity="0.1" d="M769.438 359.667C769.306 360.719 769.174 361.77 769.029 362.821C764.32 398.615 756.633 433.124 745.202 464.807C744.827 465.859 744.445 466.91 744.057 467.961C736.721 487.939 727.713 506.713 717.209 523.914C711.515 533.196 705.307 542.008 697.925 548.371C687.578 557.287 675.481 560.91 663.592 563.875C651.238 566.963 638.724 569.506 626.238 572.322C621.812 573.298 617.414 574.321 613.043 575.391C600.981 578.338 589.009 581.744 577.321 586.259C562.87 591.89 548.849 599.144 535.655 609.421C534.6 610.234 533.556 611.069 532.523 611.927C531.488 612.771 530.44 613.635 529.433 614.517C528.426 615.399 527.412 616.272 526.412 617.163L524.87 618.571C524.363 619.022 523.863 619.51 523.363 619.96C521.877 621.33 520.412 622.776 518.947 624.165L518.891 624.221C517.926 625.159 516.968 626.098 516.009 627.036C510.6 632.452 505.308 638.12 500.037 643.807L496.711 647.402C494.993 649.241 493.276 651.078 491.558 652.911C490.551 653.99 489.53 655.06 488.516 656.13C487.78 656.909 487.051 657.688 486.301 658.457C482.544 662.371 478.739 666.2 474.857 669.86C473.933 670.733 472.996 671.606 472.079 672.46C464.308 679.643 456.043 685.797 447.399 690.836L447.288 690.901C443.03 693.354 438.648 695.396 434.177 697.011C431.614 697.949 429.052 698.691 426.454 699.273C419.535 700.89 412.473 701.055 405.517 699.761C391.843 697.142 379.031 688.499 365.392 685.608C337.254 679.705 309.927 698.747 283.448 713.697C276.967 717.364 270.414 720.805 263.789 724.021C259.4 726.161 254.99 728.197 250.56 730.131C223.568 741.929 195.754 749.97 167.553 754.128C156.039 755.827 144.032 756.634 132.31 755.414C127.884 754.974 123.479 754.2 119.116 753.096C104.276 749.342 90.4217 741.374 79.262 726.818C69.9912 714.908 63.4496 699.338 58.4635 683.093C56.4589 676.567 54.6927 669.891 53.165 663.065C50.7636 652.367 48.9599 641.441 47.7692 630.378C47.4983 627.881 47.2553 625.375 47.0747 622.87C46.7136 618.571 46.4451 614.254 46.2692 609.918C45.2969 586.874 46.9623 563.765 51.2066 541.408C55.9358 516.641 63.8246 492.925 67.2968 467.923C67.4427 466.872 67.5746 465.821 67.7065 464.77C68.1695 461.016 68.5214 457.193 68.7621 453.301C70.5121 422.725 63.7413 392.796 58.3941 362.821C58.2066 361.77 58.0191 360.719 57.8385 359.667C57.2598 356.345 56.7112 353.02 56.1927 349.691C51.2414 317.989 49.8872 284.062 54.283 252.425C54.4219 251.374 54.5816 250.314 54.7413 249.272C57.7066 229.676 62.9427 211.037 70.9635 194.435C79.1926 177.392 89.9981 163.211 101.519 150.748C107.144 144.679 112.961 139.001 118.97 133.714C123.29 129.923 127.688 126.335 132.164 122.95C168.338 95.7333 209.608 82.4348 250.414 85.4098C252.576 85.56 254.733 85.7602 256.886 86.0105C259.145 86.2733 261.397 86.5861 263.643 86.949C289.913 91.0502 315.476 101.214 340.885 112.335C349.399 116.089 357.892 119.843 366.385 123.597C370.163 125.262 373.938 126.904 377.712 128.524C396.218 136.417 415.031 143.54 434.017 148.909C438.42 150.16 442.818 151.302 447.211 152.334C462.485 156.032 477.943 158.184 493.454 158.772C499.472 158.973 505.491 158.888 511.509 158.519C514.551 158.331 517.595 158.056 520.641 157.693C552.106 154.052 582.446 141.842 612.911 130.373C617.314 128.712 621.724 127.06 626.106 125.465C631.898 123.363 637.696 121.326 643.516 119.449C679.751 107.69 712.043 114.447 745.73 138.698C753.369 144.207 761.008 150.851 765.73 161.137C770.452 171.423 771.598 184.159 772.473 196.416C773.709 213.853 774.556 231.534 774.827 249.291C774.827 250.342 774.827 251.393 774.876 252.444C775.487 288.398 773.869 324.624 769.438 359.667Z" fill="#F9A826"/>
<path opacity="0.1" d="M454.338 419.661H452.386V420.895V422.442H454.595L454.338 419.661ZM432.218 419.661C432.215 419.683 432.215 419.705 432.218 419.727L432.046 422.029V422.235V422.442H448.986V422.277L450.194 419.661H432.218ZM386.919 419.661V329.709H406.378C406.172 329.461 405.96 329.212 405.742 328.981L405.456 328.666C405.336 328.525 405.216 328.393 405.09 328.269C404.964 328.145 404.666 327.83 404.443 327.615C404.22 327.4 404.083 327.259 403.871 327.085L403.739 326.961H403.711H386.919V322.036L386.467 322.35L385.986 322.739H385.952L385.849 322.83L385.551 323.112C385.448 323.203 385.345 323.294 385.248 323.393C384.95 323.683 384.675 323.998 384.361 324.32L384.074 324.652C383.88 324.867 383.697 325.09 383.502 325.314C382.741 326.216 381.991 327.16 381.213 328.029C381.018 328.252 380.824 328.467 380.641 328.674C380.224 329.115 379.793 329.524 379.347 329.899C379.162 330.066 378.971 330.218 378.775 330.355L378.454 330.57L378.162 330.752C377.475 331.171 376.762 331.498 376.033 331.729V419.661H346.845C346.845 419.761 346.885 419.852 346.903 419.951C347.063 420.779 347.223 421.606 347.378 422.434H376.039V518.859H376.486L376.995 518.909L377.922 519.008L379.422 519.223L380.097 519.339L380.841 519.472H380.95C381.379 519.555 381.814 519.654 382.254 519.753L382.535 519.819L383.164 519.968L384.069 520.2L386.238 520.035L386.535 520.126C386.656 520.126 386.776 520.192 386.902 520.233V422.442H432.006V422.235V422.029L432.178 419.727C432.175 419.705 432.175 419.683 432.178 419.661H386.919ZM454.338 419.661H452.386V420.895V422.442H454.595L454.338 419.661ZM430.999 419.661L430.804 422.442H449.65L450.932 419.661H430.999ZM386.93 419.661V329.709H406.389C406.183 329.461 405.971 329.212 405.754 328.981L405.468 328.666C405.347 328.525 405.227 328.393 405.101 328.269C404.975 328.145 404.678 327.83 404.455 327.615C404.231 327.4 404.094 327.259 403.882 327.085L403.751 326.961H403.711H386.919V322.036L386.467 322.35L385.986 322.739H385.952L385.849 322.83L385.551 323.112C385.448 323.203 385.345 323.294 385.248 323.393C384.95 323.683 384.675 323.998 384.361 324.32L384.074 324.652C383.88 324.867 383.697 325.09 383.502 325.314C382.741 326.216 381.991 327.16 381.213 328.029C381.018 328.252 380.824 328.467 380.641 328.674C380.224 329.115 379.793 329.524 379.347 329.899C379.162 330.066 378.971 330.218 378.775 330.355L378.454 330.57L378.162 330.752C377.475 331.171 376.762 331.498 376.033 331.729V419.661H346.845C346.845 419.761 346.885 419.852 346.903 419.951C347.063 420.779 347.229 421.606 347.383 422.434H376.039V518.851L376.486 518.892L376.995 518.942L377.922 519.041L379.422 519.257L380.097 519.372L380.841 519.505H380.95C381.379 519.588 381.814 519.687 382.254 519.786L382.535 519.853L383.164 520.002L384.069 520.233L386.238 520.068L386.535 520.159C386.656 520.159 386.776 520.225 386.902 520.266V422.442H430.804L431.01 419.661H386.93ZM534.393 232.34H657C657 231.413 657 230.486 656.96 229.559H534.393V120.345C530.753 121.752 527.119 123.209 523.519 124.674V229.559H390.17L389.832 229.029L390.341 228.202L439.938 149.474C434.978 149.805 430.018 149.88 425.058 149.697L386.919 210.206V144.044C383.279 143.133 379.654 142.126 376.045 141.023V207.16L320.284 118.698C313.285 115.387 306.285 112.018 299.269 108.765L375.06 229.029L374.723 229.559H235.61V86.3576C233.756 86.0541 231.9 85.7782 230.042 85.5299C228.267 85.3036 226.489 85.127 224.708 85.0001V229.559H127.254V118.143C123.557 121.123 119.932 124.288 116.38 127.638V229.559H63.3777C63.2461 230.478 63.1145 231.413 63 232.34H116.334V326.928H65.9531C66.1019 327.855 66.2565 328.782 66.411 329.709H116.357V419.661H74.0686C73.9598 420.588 73.8511 421.515 73.7309 422.442H116.357V673.956C119.952 674.93 123.583 675.612 127.231 676V422.442H224.708V653.7C228.363 651.984 231.997 650.188 235.61 648.312V422.442H376.022V624.497C379.707 623.073 383.318 621.272 386.827 619.109L386.919 619.051V422.442H523.485V517.195C527.105 516.252 530.73 515.35 534.359 514.489V422.442H631.463C631.784 421.515 632.099 420.588 632.408 419.661H534.393V329.709H652.078C652.198 328.782 652.307 327.855 652.416 326.928H534.393V232.34ZM127.26 232.34H224.708V326.928H127.254L127.26 232.34ZM127.26 419.661V329.709H224.708V419.661H127.26ZM235.616 232.34H376.022V326.928H235.61L235.616 232.34ZM235.616 419.661V329.709H376.022V419.661H235.616ZM523.49 419.661H386.919V329.709H523.485L523.49 419.661ZM523.49 326.953H386.919V234.873L388.836 232.34H523.485L523.49 326.953ZM432.223 419.661C432.22 419.683 432.22 419.705 432.223 419.727L432.052 422.029V422.235V422.442H448.992V422.277L450.2 419.661H432.223ZM454.343 419.661H452.392V420.895V422.442H454.601L454.343 419.661ZM386.925 419.661V329.709H406.383C406.177 329.461 405.965 329.212 405.748 328.981L405.462 328.666C405.342 328.525 405.221 328.393 405.096 328.269C404.97 328.145 404.672 327.83 404.449 327.615C404.226 327.4 404.088 327.259 403.877 327.085L403.745 326.961H403.716H386.919V322.036L386.467 322.35L385.986 322.739H385.952L385.849 322.83L385.551 323.112C385.448 323.203 385.345 323.294 385.248 323.393C384.95 323.683 384.675 323.998 384.361 324.32L384.074 324.652C383.88 324.867 383.697 325.09 383.502 325.314C382.741 326.216 381.991 327.16 381.213 328.029C381.018 328.252 380.824 328.467 380.641 328.674C380.224 329.115 379.793 329.524 379.347 329.899C379.162 330.066 378.971 330.218 378.775 330.355L378.454 330.57L378.162 330.752C377.475 331.171 376.762 331.498 376.033 331.729V419.661H346.845C346.845 419.761 346.885 419.852 346.903 419.951C347.063 420.779 347.223 421.606 347.378 422.434H376.039V518.859H376.486L376.995 518.909L377.922 519.008L379.422 519.223L380.097 519.339L380.841 519.472H380.95C381.379 519.555 381.814 519.654 382.254 519.753L382.535 519.819L383.164 519.968L384.069 520.2L386.238 520.035L386.535 520.126C386.656 520.126 386.776 520.192 386.902 520.233V422.442H432.006V422.235V422.029L432.178 419.727C432.175 419.705 432.175 419.683 432.178 419.661H386.925Z" fill="#F9A826"/>
<path opacity="0.1" d="M163.217 146.829H164.001C163.733 146.641 163.507 146.376 163.344 146.058C163.182 145.739 163.086 145.377 163.068 145.003C163.068 143.557 164.532 142.379 166.321 142.379H189.081C190.87 142.379 192.334 143.557 192.334 145.003C192.334 146.442 190.87 147.627 189.081 147.627H188.323C188.59 147.815 188.814 148.081 188.976 148.399C189.138 148.718 189.232 149.08 189.251 149.453C189.251 150.699 188.189 151.721 186.766 152.002H193.318C195.102 152.002 196.566 153.18 196.566 154.626C196.566 156.072 195.102 157.243 193.318 157.243H170.532C168.749 157.243 167.285 156.065 167.285 154.626C167.285 153.379 168.347 152.357 169.769 152.077H163.217C161.434 152.077 159.969 150.899 159.969 149.453C159.969 148.007 161.423 146.829 163.217 146.829Z" fill="#F9A826"/>
<path opacity="0.1" d="M409.903 171.803H410.666C410.397 171.614 410.171 171.348 410.009 171.028C409.846 170.708 409.751 170.345 409.732 169.97C409.732 168.53 411.197 167.353 412.985 167.353H435.746C437.534 167.353 438.998 168.53 438.998 169.97C438.998 171.416 437.534 172.594 435.746 172.594H434.988C435.255 172.784 435.479 173.05 435.641 173.37C435.803 173.689 435.897 174.052 435.916 174.426C435.916 175.673 434.854 176.689 433.431 176.969H439.983C441.767 176.969 443.231 178.153 443.231 179.593C443.231 181.033 441.767 182.217 439.983 182.217H417.228C415.444 182.217 413.98 181.039 413.98 179.593C413.98 178.347 415.042 177.325 416.465 177.05H409.903C408.119 177.05 406.655 175.866 406.655 174.426C406.655 172.987 408.129 171.803 409.903 171.803Z" fill="#F9A826"/>
<path opacity="0.1" d="M128.301 278.671H129.064C128.797 278.482 128.572 278.215 128.411 277.895C128.249 277.576 128.155 277.213 128.136 276.839C128.136 275.399 129.595 274.215 131.384 274.215H154.144C155.933 274.215 157.397 275.399 157.397 276.839C157.397 278.285 155.933 279.463 154.144 279.463H153.386C153.654 279.653 153.878 279.919 154.04 280.239C154.202 280.558 154.296 280.921 154.314 281.295C154.314 282.542 153.252 283.558 151.829 283.838H158.382C160.171 283.838 161.629 285.016 161.629 286.462C161.629 287.908 160.171 289.086 158.382 289.086H135.616C133.833 289.086 132.369 287.902 132.369 286.462C132.369 285.215 133.436 284.193 134.853 283.913H128.301C126.518 283.913 125.053 282.735 125.053 281.295C125.053 279.855 126.518 278.671 128.301 278.671Z" fill="#F9A826"/>
<path d="M391.53 458.192C390.255 459.414 388.979 460.633 387.704 461.851C386.957 462.568 386.199 463.278 385.446 463.989C384.9 464.506 384.359 465.023 383.802 465.534C381.013 468.133 378.188 470.676 375.306 473.107C374.621 473.686 373.925 474.266 373.244 474.833C367.476 479.603 361.34 483.69 354.923 487.036L354.84 487.08V458.192H391.53Z" fill="#65617D"/>
<path d="M448.896 344.661L449.474 323.128C449.128 322.804 448.778 322.504 448.443 322.205C448.585 315.785 448.282 309.362 447.535 303.003C445.205 281.47 430.075 281.002 425.806 285.446C425.241 286.036 424.624 286.55 423.966 286.979C424.353 283.907 424.832 280.828 425.177 277.786C427.044 261.382 424.146 242.928 413.62 232.326C409.212 227.895 403.825 225.171 398.984 221.463C390.313 214.85 383.462 205.084 374.693 198.646C365.924 192.208 353.608 189.796 345.958 198.073C342.994 201.276 341.081 205.72 338.04 208.811C332.369 214.57 323.528 214.95 318.579 221.382C318.331 221.706 318.094 222.036 317.867 222.385C313.743 228.78 314.872 237.848 316.187 245.782C317.769 255.331 317.115 262.984 323.889 265.726C323.914 266.106 323.935 266.487 323.971 266.861C324.522 272.718 326.125 278.359 328.669 283.389C331.212 288.418 334.634 292.715 338.694 295.979L337.596 296.453C334.668 297.699 332.034 298.908 330.348 299.737C324.162 302.785 311.14 306.755 311.14 306.755C311.14 306.755 310.831 311.242 310.887 317.861C306.547 323.564 299.304 333.586 297.174 339.525C294.081 348.189 276.605 373 271.95 376.746C267.295 380.492 262.248 384.935 262.248 384.935C262.248 384.935 254.876 389.853 251.386 390.32C248.968 390.644 241.488 388.912 241.488 388.912C241.488 388.912 211.614 344.661 213.552 378.616C215.491 412.57 239.354 413.723 239.354 413.723L263.413 413.256C263.413 413.256 276.415 415.362 282.235 409.516C287.204 404.53 312.96 377.176 321.234 364.767C321.424 365.023 321.615 365.272 321.816 365.515C321.816 365.515 325.11 360.367 325.502 365.515C325.894 370.663 323.363 372.994 324.724 374.864C326.085 376.733 330.157 383.29 330.348 385.864C330.539 388.438 324.92 398.952 334.421 406.93C334.57 407.055 334.73 407.173 334.905 407.291C336.601 411.96 341.994 416.528 341.994 416.528L371.095 416.061L426.002 421.209C426.002 421.209 427.637 419.47 429.848 416.628C432.802 419.906 436.9 422.717 441.519 420.99C441.519 420.99 448.118 411.399 448.314 405.079C448.314 405.079 444.045 391.735 442.128 387.759C440.21 383.782 443.489 375.119 443.489 375.119C443.489 375.119 445.814 366.693 447.175 366.693C448.536 366.693 447.561 361.084 447.561 361.084C447.047 360.167 446.725 359.112 446.623 358.011C446.522 356.91 446.644 355.795 446.979 354.764C448.118 351.218 448.896 344.661 448.896 344.661Z" fill="url(#paint0_linear)"/>
<path d="M415.981 339.812L413.918 342.729L405.588 354.459L394.705 355.256L377.286 356.553C377.286 356.553 353.799 322.336 358.212 314.888C359.815 312.202 360.078 308.656 359.758 305.309C359.717 304.848 359.66 304.387 359.593 303.932C359.065 300.39 358.143 296.952 356.851 293.71L357.428 293.392L357.799 293.187L378.337 281.856L383.42 279.052C383.674 280.745 384.143 282.381 384.812 283.9C384.91 284.137 385.019 284.374 385.132 284.598C392.138 298.622 414.604 289.753 414.604 289.753L415.981 339.812Z" fill="#EE8E9E"/>
<path d="M446.35 322.305C446.195 330.794 445.051 334.458 445.051 334.458L415.981 339.812L414.893 330.688L410.588 294.658L414.63 289.771C416.245 290.192 417.918 290.16 419.52 289.675C421.123 289.191 422.612 288.269 423.873 286.979C428.106 282.554 443.123 283.022 445.432 304.43C446.11 310.352 446.417 316.327 446.35 322.305Z" fill="#EE8E9E"/>
<path d="M439.468 421.732C439.468 421.732 446.009 412.19 446.205 405.908L439.658 392.639L433.885 385.16L423.1 410.327C423.1 410.327 430.224 425.222 439.468 421.732Z" fill="#DFE5EE"/>
<path opacity="0.1" d="M439.468 421.732C439.468 421.732 446.009 412.19 446.205 405.908L439.658 392.639L433.885 385.16L423.1 410.327C423.1 410.327 430.224 425.222 439.468 421.732Z" fill="black"/>
<path d="M603 464.142C602.091 464.66 601.191 465.177 600.265 465.689C595.625 468.292 590.926 470.838 586.133 473.271C584.992 473.852 583.835 474.432 582.703 475H535.874H325.492H309.157L228.225 472.891L163.139 472.491L146.847 471.867L65.5547 468.747C62.5766 461.628 60.3379 454.356 58.8575 446.993C58.5231 445.333 58.223 443.666 58 442L146.812 445.582L163.105 446.25L309.122 452.178L325.458 452.84L535.84 461.389L552.03 462.051H552.167L603 464.142Z" fill="#D48A9B"/>
<path d="M680 417.516C663.045 421.298 646.596 426.169 631.116 433.071C629.885 433.619 628.671 434.18 627.441 434.753C626.211 435.327 624.997 435.9 623.815 436.493C622.634 437.085 621.445 437.671 620.271 438.27L618.463 439.215L616.695 440.148C614.951 441.074 613.232 442.039 611.513 442.971L611.448 443.009C610.315 443.64 609.191 444.27 608.066 444.9C601.72 448.536 595.511 452.343 589.327 456.162C588.024 456.969 586.718 457.774 585.409 458.576L579.379 462.275C578.198 463 577 463.719 575.811 464.437C574.947 464.96 574.092 465.483 573.212 466L527.586 464.317H527.456L512.074 463.763L312.095 456.433L296.575 455.86L157.841 450.761L142.36 450.188L58.7598 447.144C58.4421 445.467 58.1569 443.784 57.9451 442.102C57.5214 439.215 57.2064 436.316 57 433.405L142.352 410.086L157.832 405.845L171.895 402L197.518 403.034L256.742 405.384L296.599 407.004L312.12 407.634L322.035 408.038L324.406 408.139L407.852 411.51L408.732 411.554L445.966 413.054H446.389H446.634L450.357 413.199L463.051 413.716L478.922 414.346L484.152 414.561L485.138 414.605L492.536 414.901L494.646 414.983L501.71 415.273L504.521 415.393H504.611H505.197L511.805 415.664L522.038 416.079H522.087L525.264 416.206H525.607L527.505 416.287L532.165 416.477L536.239 416.64H536.28L540.85 416.823H540.924L544.386 416.968L547.042 417.075L556.469 417.46L558.164 417.529H558.75L559.565 417.567L562.327 417.68L563.565 417.731L573.179 418.115H574.059L588.252 418.021H588.35L642.31 417.68H643.345H644.437H647.647L665.017 417.573H667.608L680 417.516Z" fill="#EFC6CD"/>
<path d="M220.971 418.416L224.146 438.84L310.485 437.27C310.485 437.27 316.981 439.538 316.836 433.256C316.836 433.256 329.977 418.242 396.535 435.699L370.981 411.436L301.128 415.973L220.13 413.356L220.971 418.416Z" fill="#F9A826"/>
<path d="M222.558 413.53L225.59 435.699C225.59 435.699 299.824 433.082 311.495 435.525L302.675 415.275C302.675 415.275 257.789 410.215 222.558 413.53Z" fill="white"/>
<path opacity="0.1" d="M222.558 413.53L225.59 435.699C225.59 435.699 299.824 433.082 311.495 435.525L302.675 415.275C302.675 415.275 257.789 410.215 222.558 413.53Z" fill="black"/>
<path d="M223.667 413.449L226.657 434.066C226.657 434.066 299.948 431.636 311.496 433.904L302.799 415.076C302.799 415.076 258.454 410.364 223.667 413.449Z" fill="white"/>
<path opacity="0.1" d="M225.012 414.085L227.925 433.368C227.925 433.368 299.608 431.093 310.923 433.219L302.417 415.599C302.417 415.599 259.042 411.174 225.012 414.085Z" fill="black"/>
<path d="M225.59 413.381L228.518 432.701C228.518 432.701 300.2 430.427 311.516 432.552L302.989 414.914C302.989 414.914 259.619 410.495 225.59 413.381Z" fill="white"/>
<path d="M174.873 360.947C174.873 360.947 178.626 366.874 173.146 375.83C167.666 384.786 163.14 392.34 164.97 397.924C164.97 397.924 173.218 381.296 179.972 381.096C186.725 380.897 182.281 370.943 174.873 360.947Z" fill="#F9A826"/>
<path opacity="0.1" d="M174.873 360.947C175.203 361.521 175.462 362.151 175.641 362.816C182.209 372.165 185.709 380.891 179.394 381.078C173.512 381.277 166.46 393.991 164.769 397.207C164.827 397.448 164.894 397.691 164.97 397.936C164.97 397.936 173.218 381.308 179.972 381.109C186.725 380.909 182.281 370.943 174.873 360.947Z" fill="black"/>
<path d="M181.848 368.507C181.848 370.588 181.652 372.283 181.415 372.283C181.178 372.283 180.982 370.588 180.982 368.507C180.982 366.425 181.224 367.397 181.461 367.397C181.698 367.397 181.848 366.419 181.848 368.507Z" fill="#FFD037"/>
<path d="M184.24 370.993C182.724 371.997 181.405 372.601 181.291 372.346C181.178 372.09 182.322 371.099 183.828 370.077C185.333 369.055 184.745 369.803 184.859 370.077C184.972 370.351 185.756 369.996 184.24 370.993Z" fill="#FFD037"/>
<path d="M155.062 360.947C155.062 360.947 151.309 366.874 156.794 375.83C162.279 384.786 166.795 392.34 164.97 397.924C164.97 397.924 156.696 381.296 149.963 381.096C143.231 380.897 147.654 370.943 155.062 360.947Z" fill="#F9A826"/>
<path opacity="0.1" d="M155.062 360.947C154.735 361.523 154.476 362.153 154.294 362.816C147.726 372.165 144.226 380.891 150.541 381.078C156.423 381.277 163.48 393.991 165.171 397.207C165.116 397.448 165.049 397.691 164.97 397.936C164.97 397.936 156.696 381.308 149.963 381.109C143.231 380.909 147.654 370.943 155.062 360.947Z" fill="black"/>
<path d="M148.087 368.507C148.087 370.588 148.283 372.283 148.52 372.283C148.757 372.283 148.953 370.588 148.953 368.507C148.953 366.425 148.711 367.397 148.473 367.397C148.236 367.397 148.087 366.419 148.087 368.507Z" fill="#FFD037"/>
<path d="M145.695 370.993C147.21 371.997 148.535 372.601 148.649 372.346C148.762 372.09 147.618 371.099 146.112 370.077C144.607 369.055 145.195 369.803 145.081 370.077C144.968 370.351 144.179 369.996 145.695 370.993Z" fill="#FFD037"/>
<path d="M185.137 389.928L184.951 391.797L184.689 394.409L184.58 395.499L184.317 398.117L184.204 399.208L183.936 401.826L180.936 431.567C180.667 434.222 177.079 436.291 172.749 436.291H157.17C152.84 436.291 149.257 434.222 148.989 431.567L145.983 401.826L145.721 399.208L145.612 398.117L145.344 395.499L145.236 394.409L144.973 391.797L144.782 389.928C144.633 388.426 146.571 387.16 149.025 387.16H180.915C183.364 387.16 185.307 388.426 185.137 389.928Z" fill="#65617D"/>
<path d="M184.967 391.779L184.704 394.396H145.236L144.973 391.779H184.967Z" fill="#9D9CB5"/>
<path d="M184.596 395.487L184.333 398.105H145.612L145.344 395.487H184.596Z" fill="#9D9CB5"/>
<path d="M184.219 399.195L183.956 401.807H145.983L145.721 399.195H184.219Z" fill="#9D9CB5"/>
<path d="M232.714 387.522C232.714 387.522 222.703 375.886 223.089 391.012C223.476 406.138 232.714 387.522 232.714 387.522Z" fill="#EE8E9E"/>
<path d="M322.615 360.99C322.394 362.162 321.316 364.106 319.636 366.543C310.954 379.183 286.256 405.453 281.415 410.327C275.641 416.148 262.743 414.066 262.743 414.066L238.875 414.534C238.875 414.534 215.197 413.368 213.269 379.632C211.341 345.895 240.988 389.872 240.988 389.872C240.988 389.872 248.412 391.592 250.809 391.268C254.273 390.806 261.588 385.92 261.588 385.92C261.588 385.92 266.594 381.495 271.213 377.774C275.832 374.053 293.159 349.379 296.241 340.766C298.195 335.3 304.49 326.362 308.835 320.566C311.331 317.232 313.181 314.957 313.181 314.957C313.181 314.957 323.961 353.773 322.615 360.99Z" fill="#EE8E9E"/>
<path opacity="0.1" d="M322.615 360.99C322.394 362.162 321.316 364.106 319.636 366.543C310.872 355.755 309.042 334.228 308.835 320.541C311.331 317.207 313.181 314.932 313.181 314.932C313.181 314.932 323.961 353.773 322.615 360.99Z" fill="black"/>
<path opacity="0.1" d="M413.913 342.729L405.588 354.458L394.705 355.256L377.286 356.553C377.286 356.553 353.799 322.336 358.212 314.888C359.815 312.202 360.078 308.656 359.758 305.309C359.717 304.848 359.66 304.387 359.593 303.932C359.065 300.39 358.143 296.952 356.851 293.71L357.428 293.392L357.799 293.187C358.716 296.274 359.349 299.474 359.686 302.729C359.743 303.171 359.794 303.632 359.846 304.106C360.026 305.789 360.191 307.659 360.361 309.715C361.702 328.55 371.502 335.636 375.925 337.892C377.347 338.618 378.737 339.431 380.09 340.329C384.346 343.167 389.253 344.239 394.061 343.383C404.979 341.651 413.882 332.059 413.882 332.059L413.929 341.501L413.913 342.729Z" fill="black"/>
<path d="M414.248 415.917C414.248 415.917 342.638 415.68 333.199 407.771C323.76 399.862 329.353 389.386 329.157 386.824C328.961 384.262 324.925 377.749 323.579 375.88C322.234 374.01 324.734 371.691 324.347 366.575C323.961 361.458 320.692 366.575 320.692 366.575C307.212 350.046 310.098 308.157 310.098 308.157C310.098 308.157 322.986 304.206 329.173 301.171C330.848 300.348 333.457 299.176 336.39 297.911L337.478 297.437C345.04 294.165 354.031 290.469 354.031 290.469C354.031 290.469 355.758 288.992 357.495 293.411C358.289 295.443 359.088 298.715 359.727 303.944C359.784 304.387 359.836 304.848 359.887 305.322C360.068 307.004 360.233 308.874 360.403 310.931C361.743 329.765 371.543 336.852 375.966 339.108C377.388 339.833 378.779 340.646 380.131 341.545C384.387 344.382 389.294 345.455 394.102 344.599C405.021 342.866 413.924 333.274 413.924 333.274L413.97 342.717L414.104 371.087L414.248 415.917Z" fill="#DFE5EE"/>
<path d="M411.166 379.146L410.011 387.989C410.011 387.989 381.518 396.597 370.357 399.158C359.196 401.72 335.127 398.46 333.395 404.044C331.663 409.629 340.71 417.313 340.71 417.313L369.579 416.846L424.059 421.969C424.059 421.969 444.85 399.856 438.112 384.493C431.374 369.13 411.166 379.146 411.166 379.146Z" fill="#EE8E9E"/>
<path opacity="0.1" d="M352.453 309.323C352.453 309.323 339.359 322.355 341.865 328.643C344.37 334.932 352.453 309.323 352.453 309.323Z" fill="black"/>
<path opacity="0.1" d="M336.282 332.825C336.282 332.825 322.997 360.523 323.77 362.617C324.543 364.711 328.198 372.159 328.002 366.574C327.806 360.99 336.282 332.825 336.282 332.825Z" fill="black"/>
<path opacity="0.1" d="M341.674 337.718C341.674 337.718 338.581 354.938 335.513 362.156C332.446 369.373 341.674 337.718 341.674 337.718Z" fill="black"/>
<path opacity="0.1" d="M385.158 284.617C382.612 290.26 378.986 295.085 374.582 298.687C370.179 302.289 365.126 304.564 359.846 305.322H359.784C351.479 306.501 343.111 303.852 336.349 297.905C344.081 294.527 353.99 290.463 353.99 290.463C353.99 290.463 355.717 288.986 357.454 293.405L383.446 279.07C383.738 281.028 384.318 282.907 385.158 284.617Z" fill="black"/>
<path d="M389.22 263.938C389.23 270.947 387.719 277.836 384.838 283.919C383.462 286.82 381.795 289.503 379.874 291.909C374.515 298.655 367.373 302.923 359.686 303.975H359.619C358.39 304.146 357.154 304.231 355.918 304.231C347.735 304.231 339.839 300.589 333.735 294C327.632 287.411 323.749 278.336 322.827 268.506C322.683 266.998 322.613 265.481 322.615 263.963C322.615 253.285 326.124 243.044 332.369 235.493C338.615 227.943 347.085 223.701 355.918 223.701C364.75 223.701 373.221 227.943 379.466 235.493C385.711 243.044 389.22 253.285 389.22 263.963V263.938Z" fill="#EE8E9E"/>
<path opacity="0.1" d="M410.784 340.124L413.877 334.514C413.877 334.514 430.817 310.077 447.386 325.671L446.809 347.085C446.809 347.085 446.035 353.598 444.88 357.057C444.549 358.084 444.428 359.192 444.529 360.288C444.629 361.383 444.948 362.432 445.458 363.346C445.458 363.346 446.422 368.955 445.076 368.955C443.731 368.955 441.416 377.332 441.416 377.332C441.416 377.332 438.143 385.945 440.071 389.903C441.999 393.86 446.231 407.123 446.231 407.123C446.231 407.123 439.493 402.237 437.565 394.091C437.565 394.091 421.203 378.728 408.495 388.482L410.784 340.124Z" fill="black"/>
<path opacity="0.1" d="M446.35 322.305C446.195 330.794 445.051 334.458 445.051 334.458L415.981 339.812L414.893 330.688C418.697 325.889 432.534 310.632 446.35 322.305Z" fill="black"/>
<path d="M410.784 338.877L413.877 333.268C413.877 333.268 430.817 308.83 447.386 324.424L446.809 345.839C446.809 345.839 446.035 352.352 444.88 355.811C444.549 356.837 444.428 357.946 444.529 359.041C444.629 360.137 444.948 361.186 445.458 362.1C445.458 362.1 446.422 367.709 445.076 367.709C443.731 367.709 441.416 376.085 441.416 376.085C441.416 376.085 438.143 384.699 440.071 388.656C441.999 392.614 446.231 405.877 446.231 405.877C446.231 405.877 439.493 400.99 437.565 392.845C437.565 392.845 421.203 377.481 408.495 387.235L410.784 338.877Z" fill="#DFE5EE"/>
<path opacity="0.1" d="M438.117 323.053C438.117 323.053 410.207 343.77 411.552 361.938C411.552 361.938 427.147 328.637 438.117 323.053Z" fill="black"/>
<path opacity="0.1" d="M413.908 342.735L414.042 371.106C408.763 371.392 403.789 370.563 399.855 366.431C397.118 363.552 395.525 359.575 394.7 355.275C394.086 351.81 393.861 348.261 394.03 344.723C394.027 344.688 394.027 344.653 394.03 344.617C394.355 336.783 395.845 328.949 395.061 321.165C394.277 313.38 390.375 305.166 384.003 303.527C382.745 303.196 381.333 303.078 380.436 301.962C379.446 300.716 379.492 298.777 379.601 297.051L379.786 294.14C379.833 293.392 379.853 292.651 379.853 291.909C379.849 285.292 377.945 278.882 374.467 273.773C370.988 268.665 366.15 265.175 360.779 263.9L360.573 263.857C358.779 263.42 356.913 262.99 355.119 263.489C351.706 264.443 349.499 268.444 346.355 270.345C340.323 273.984 330.265 270.002 323.95 268.749C323.538 268.668 323.146 268.575 322.77 268.469C322.626 266.96 322.556 265.443 322.558 263.925C322.561 257.758 323.735 251.675 325.99 246.143C328.245 240.612 331.521 235.781 335.565 232.023C339.609 228.264 344.313 225.679 349.314 224.467C354.316 223.255 359.48 223.448 364.41 225.031C369.34 226.614 373.903 229.545 377.748 233.598C381.592 237.651 384.615 242.717 386.584 248.406C388.552 254.095 389.413 260.255 389.101 266.41C388.788 272.565 387.311 278.551 384.781 283.907C384.879 284.143 384.988 284.38 385.101 284.605C392.107 298.628 414.573 289.759 414.573 289.759L415.924 339.8L413.908 342.735Z" fill="black"/>
<path d="M347.566 269.653C350.69 267.746 352.897 263.744 356.33 262.797C358.119 262.299 359.985 262.729 361.789 263.159L361.996 263.208C367.674 264.567 372.743 268.396 376.242 273.97C379.741 279.545 381.428 286.478 380.982 293.455L380.797 296.365C380.683 298.086 380.637 300.036 381.637 301.27C382.529 302.386 383.941 302.517 385.199 302.828C391.571 304.474 395.473 312.645 396.257 320.473C397.041 328.301 395.525 336.16 395.226 344.025C394.927 351.891 396.123 360.573 401.041 365.739C408.774 373.842 420.527 369.23 430.761 368.488C426.234 368.488 422.842 362.841 422.595 357.382C422.347 351.922 424.358 346.724 426.281 341.8C428.204 336.877 430.132 331.579 429.704 326.132C429.116 318.653 424.239 312.663 422.373 305.465C420.198 297.088 422.296 288.095 423.28 279.388C425.131 263.084 422.249 244.729 411.81 234.19C407.438 229.784 402.093 227.072 397.288 223.383C388.679 216.783 381.889 207.103 373.188 200.684C364.486 194.265 352.268 191.884 344.674 200.111C341.736 203.295 339.839 207.714 336.818 210.787C330.915 216.801 321.533 216.913 316.8 224.293C312.728 230.644 313.831 239.662 315.135 247.546C316.872 258.06 315.893 266.244 325.188 268.113C331.477 269.316 341.53 273.299 347.566 269.653Z" fill="#603556"/>
<path opacity="0.1" d="M424.152 363.464C416.702 364.568 409.32 365.135 403.897 359.451C398.979 354.284 397.767 345.608 398.082 337.737C398.396 329.865 399.902 322 399.113 314.178C398.324 306.356 394.427 298.185 388.055 296.54C386.797 296.216 385.39 296.097 384.493 294.982C383.498 293.735 383.539 291.791 383.652 290.071L383.838 287.16C384.284 280.183 382.597 273.252 379.098 267.678C375.598 262.105 370.529 258.277 364.852 256.92L364.645 256.87C362.841 256.44 360.975 256.01 359.186 256.508C355.773 257.462 353.567 261.494 350.422 263.364C344.386 267.01 334.338 263.028 328.013 261.775C318.733 259.936 319.703 251.741 317.96 241.208C316.986 235.324 316.125 228.805 317.445 223.233C317.197 223.551 316.96 223.856 316.733 224.237C312.661 230.588 313.764 239.606 315.068 247.49C316.805 258.004 315.826 266.188 325.121 268.057C331.441 269.304 341.493 273.293 347.53 269.647C350.654 267.739 352.861 263.738 356.294 262.791C358.083 262.292 359.949 262.722 361.753 263.152L361.96 263.202C367.638 264.561 372.707 268.39 376.206 273.964C379.705 279.539 381.392 286.471 380.946 293.449L380.76 296.359C380.647 298.079 380.601 300.03 381.601 301.264C382.493 302.38 383.905 302.511 385.163 302.822C391.535 304.468 395.437 312.638 396.221 320.466C397.004 328.294 395.494 336.154 395.19 344.019C394.886 351.885 396.087 360.566 401.005 365.733C408.738 373.835 420.491 369.223 430.724 368.482C427.946 368.5 425.61 366.369 424.152 363.464Z" fill="black"/>
<path d="M214.934 384.256L246.716 369.921C247.467 369.582 248.299 369.618 249.029 370.02C249.758 370.422 250.326 371.157 250.608 372.065C250.888 372.974 250.859 373.98 250.526 374.862C250.194 375.744 249.585 376.431 248.834 376.771L217.053 391.106L210.238 390.283L214.934 384.256Z" fill="#5C5C8E"/>
<path opacity="0.1" d="M249.649 370.894C249.929 371.803 249.899 372.809 249.566 373.692C249.232 374.574 248.622 375.26 247.87 375.599L216.068 389.984L210.954 389.361L210.217 390.308L217.032 391.131L248.814 376.796C249.565 376.456 250.173 375.769 250.506 374.887C250.838 374.004 250.868 372.999 250.587 372.09C250.353 371.333 249.918 370.691 249.35 370.264C249.464 370.463 249.564 370.674 249.649 370.894Z" fill="white"/>
<path d="M214.939 384.256L217.053 391.106L211.464 390.426L210.243 390.277L211.913 388.133L214.939 384.256Z" fill="#EFC8C4"/>
<path d="M211.908 388.114C212.038 388.232 212.15 388.378 212.238 388.544C212.29 388.644 212.318 388.759 212.318 388.877C212.318 388.996 212.29 389.111 212.238 389.211C212.15 389.321 212.047 389.411 211.934 389.479C211.806 389.582 211.699 389.718 211.62 389.878C211.542 390.038 211.494 390.216 211.48 390.401L210.253 390.258L211.908 388.114Z" fill="#727A9C"/>
<path d="M314.723 428.002C314.723 428.002 342.251 421.015 388.442 429.872L370.347 413.817L337.426 405.671L314.135 413.15L314.723 428.002Z" fill="white"/>
<path opacity="0.1" d="M314.723 428.002C314.723 428.002 342.251 421.015 388.442 429.872L370.347 413.817L337.426 405.671L314.135 413.15L314.723 428.002Z" fill="black"/>
<path d="M311.495 435.556C311.495 435.556 325.358 390.221 396.556 435.699L371.002 415.818C371.002 415.818 309.784 395.369 302.711 418.934L311.495 435.556Z" fill="white"/>
<path opacity="0.1" d="M311.495 435.525C311.495 435.525 325.358 387.054 396.556 436.397L371.002 414.833C371.002 414.833 309.763 390.376 302.675 415.973L311.495 435.525Z" fill="black"/>
<path d="M311.495 435.543C311.495 435.543 325.358 386.356 396.556 435.699L371.002 414.135C371.002 414.135 309.784 390.376 302.711 416.004L311.495 435.543Z" fill="white"/>
<path opacity="0.1" d="M311.496 435.556C311.496 435.556 325.358 380.891 396.556 436.397L370.981 412.134C370.981 412.134 309.763 387.204 302.69 415.973L311.496 435.556Z" fill="black"/>
<path d="M311.496 435.525C311.496 435.525 325.358 380.192 396.556 435.699L370.981 411.436C370.981 411.436 309.763 386.506 302.69 415.275L311.496 435.525Z" fill="white"/>
<path opacity="0.1" d="M525.095 430.314C525.095 430.314 508.006 452.446 523.389 463.197C523.389 463.197 525.399 466.126 528.271 464.593C528.271 464.593 527.301 463.552 529.245 461.545C529.932 460.825 530.546 460.009 531.075 459.115C531.792 457.907 532.165 456.45 532.137 454.964C532.137 454.964 534.374 446.182 527.265 434.783C527.265 434.783 526.621 430.969 526.074 430.551L524.775 435.867C524.775 435.867 528.039 436.871 529.265 439.875C529.265 439.875 524.966 435.793 524.549 436.647C524.466 436.821 523.966 439.507 523.966 439.507C523.966 439.507 529.637 441.277 531.41 445.989C531.41 445.989 526.827 440.299 523.77 440.523L523.213 444.624C523.213 444.624 529.281 446.145 531.462 451.418C531.462 451.418 526.502 445.665 523.131 445.534L523.033 449.654C523.033 449.654 528.925 451.274 530.724 455.674C530.724 455.674 524.44 449.735 523.064 450.601C523.064 450.601 523.162 454.397 523.579 455.388C523.579 455.388 527.786 456.634 528.642 459.339C528.642 459.339 524.095 455.905 523.703 456.428C523.703 456.428 524.925 461.327 526.626 463.415C526.626 463.415 523.925 460.554 523.079 456.696C523.079 456.696 521.935 459.108 522.224 461.477C522.224 461.477 520.538 459.221 522.796 455.506C522.796 455.506 521.971 451.642 522.177 451.031C522.177 451.031 519.522 454.316 518.842 457.264C518.842 457.264 518.326 453.574 522.172 449.965V445.815C522.172 445.815 518.471 449.934 517.708 452.483C517.708 452.483 517.656 448.619 522.249 444.774L522.765 440.741C522.765 440.741 519.352 443.995 517.996 446.612C517.996 446.612 518.584 443.01 522.945 439.595L523.548 436.952C523.548 436.952 521.095 439.383 520.455 440.155C519.816 440.928 519.574 440.779 519.574 440.779C520.578 438.689 522.041 436.976 523.801 435.83C523.801 435.83 525.379 430.458 525.095 430.314Z" fill="#F9A826"/>
<path opacity="0.1" d="M601.49 70.2003C601.49 70.2003 578.657 82.6653 589.421 99.7361C589.421 99.7361 590.344 103.382 593.478 103.307C593.478 103.307 592.916 101.893 595.35 100.945C596.214 100.604 597.042 100.137 597.814 99.5554C598.861 98.7754 599.669 97.6051 600.118 96.221C600.118 96.221 604.985 89.1658 602.062 75.3359C602.062 75.3359 602.686 71.5154 602.314 70.8734L599.417 75.1739C599.417 75.1739 602.108 77.617 602.283 80.9638C602.283 80.9638 599.623 75.1925 598.964 75.7909C598.829 75.9093 597.515 78.153 597.515 78.153C597.515 78.153 602.155 82.4285 602.314 87.6077C602.314 87.6077 599.902 80.2159 597.004 78.9944L595.185 82.522C595.185 82.522 600.299 86.7538 600.639 92.6373C600.639 92.6373 597.896 85.0212 594.829 83.326L593.422 87.0655C593.422 87.0655 598.345 91.3098 598.577 96.2085C598.577 96.2085 594.674 87.7947 593.128 87.9567C593.128 87.9567 592.009 91.4968 592.097 92.6124C592.097 92.6124 595.571 95.7286 595.51 98.6205C595.51 98.6205 592.416 93.3354 591.901 93.6345C591.901 93.6345 591.463 98.7202 592.37 101.444C592.37 101.444 590.787 97.5423 591.241 93.5909C591.241 93.5909 589.411 95.2861 588.926 97.6046C588.926 97.6046 588.091 94.7314 591.36 92.3569C591.36 92.3569 591.829 88.4117 592.215 87.9442C592.215 87.9442 588.715 89.733 587.158 92.1138C587.158 92.1138 587.854 88.4678 592.561 86.9346L593.901 83.1203C593.901 83.1203 589.174 85.1895 587.653 87.1839C587.653 87.1839 588.839 83.594 594.303 82.1979L596.061 78.7201C596.061 78.7201 591.875 80.1349 589.787 81.9112C589.787 81.9112 591.483 78.8697 596.597 77.7479L597.994 75.5914C597.994 75.5914 594.953 76.6884 594.102 77.0997C593.252 77.511 593.071 77.268 593.071 77.268C594.673 75.8022 596.582 74.9044 598.582 74.6752C598.582 74.6752 601.675 70.4496 601.49 70.2003Z" fill="#F9A826"/>
<path opacity="0.1" d="M384.781 77.9161C384.781 77.9161 350.479 89.7579 367.156 107.383C367.156 107.383 368.635 111.123 373.383 111.123C373.383 111.123 372.497 109.677 376.167 108.798C377.431 108.491 378.67 108.049 379.869 107.477C381.283 106.878 382.486 105.715 383.281 104.18C383.281 104.18 390.499 97.1995 385.761 83.1265C385.761 83.1265 386.622 79.2873 386.044 78.6266L381.755 82.8772C381.755 82.8772 385.88 85.4388 386.225 88.823C386.225 88.823 382.065 82.9084 381.07 83.488C380.869 83.6064 378.925 85.8252 378.925 85.8252C378.925 85.8252 386.081 90.3001 386.405 95.5417C386.405 95.5417 382.591 87.9941 378.157 86.6666L375.476 90.1692C375.476 90.1692 383.312 94.613 383.957 100.571C383.957 100.571 379.637 92.7869 374.956 90.9732L372.894 94.7127C372.894 94.7127 380.441 99.1627 380.936 104.124C380.936 104.124 374.837 95.4918 372.497 95.5977C372.497 95.5977 370.883 99.1503 371.027 100.278C371.027 100.278 376.358 103.569 376.332 106.461C376.332 106.461 371.517 101.014 370.723 101.3C370.723 101.3 370.177 106.43 371.61 109.21C371.61 109.21 369.125 105.214 369.723 101.238C369.723 101.238 366.996 102.89 366.31 105.214C366.31 105.214 364.98 102.291 369.878 99.9979C369.878 99.9979 370.502 96.0216 371.074 95.5604C371.074 95.5604 365.816 97.2556 363.511 99.6115C363.511 99.6115 364.48 95.9468 371.574 94.5507L373.523 90.7364C373.523 90.7364 366.408 92.6809 364.15 94.6442C364.15 94.6442 365.867 91.0543 374.115 89.8078L376.693 86.3487C376.693 86.3487 370.383 87.6388 367.259 89.3715C367.259 89.3715 369.759 86.3487 377.477 85.3827L379.539 83.2512C379.539 83.2512 374.956 84.2608 373.677 84.6472C372.399 85.0337 372.131 84.7844 372.131 84.7844C374.707 83.2762 377.518 82.4437 380.379 82.3412C380.379 82.3412 385.08 78.1779 384.781 77.9161Z" fill="#F9A826"/>
<path opacity="0.1" d="M485.983 540.006C485.983 540.006 503.253 518.074 487.957 507.142C487.957 507.142 485.967 504.188 483.085 505.684C483.085 505.684 484.05 506.737 482.091 508.725C481.398 509.437 480.777 510.245 480.24 511.131C479.512 512.329 479.128 513.783 479.147 515.27C479.147 515.27 476.832 524.026 483.854 535.506C483.854 535.506 484.467 539.327 485.008 539.757L486.354 534.453C486.354 534.453 483.096 533.412 481.895 530.396C481.895 530.396 486.158 534.522 486.581 533.674C486.668 533.5 487.189 530.826 487.189 530.826C487.189 530.826 481.518 528.956 479.796 524.257C479.796 524.257 484.333 530.003 487.395 529.81L487.983 525.715C487.983 525.715 481.931 524.126 479.781 518.859C479.781 518.859 484.694 524.668 488.065 524.843L488.194 520.717C488.194 520.717 482.312 518.997 480.528 514.572C480.528 514.572 486.766 520.592 488.148 519.738C488.148 519.738 488.081 515.949 487.632 514.952C487.632 514.952 483.436 513.618 482.601 510.938C482.601 510.938 487.122 514.428 487.514 513.905C487.514 513.905 486.333 508.993 484.647 506.887C484.647 506.887 487.328 509.779 488.143 513.643C488.143 513.643 489.308 511.243 489.035 508.875C489.035 508.875 490.705 511.156 488.416 514.84C488.416 514.84 489.21 518.716 488.998 519.321C488.998 519.321 491.679 516.067 492.38 513.157C492.38 513.157 492.896 516.853 488.993 520.411L488.942 524.562C488.942 524.562 492.674 520.486 493.458 517.943C493.458 517.943 493.458 521.814 488.854 525.603L488.339 529.629C488.339 529.629 491.777 526.413 493.154 523.814C493.154 523.814 492.535 527.404 488.148 530.77L487.524 533.406C487.524 533.406 489.999 531.007 490.658 530.24C491.318 529.473 491.545 529.617 491.545 529.617C490.525 531.696 489.047 533.392 487.277 534.516C487.277 534.516 485.725 539.857 485.983 540.006Z" fill="#F9A826"/>
<path opacity="0.1" d="M317.548 48.773C317.548 48.773 320.491 78.8386 337.215 71.584C337.215 71.584 340.365 71.6151 341.251 67.9753C341.251 67.9753 339.962 68.1997 339.952 65.1084C339.94 64.0087 339.821 62.9146 339.596 61.8488C339.3 60.4069 338.621 59.122 337.663 58.1903C337.663 58.1903 333.56 50.4495 321.749 49.6892C321.749 49.6892 318.924 47.8194 318.305 48.0563L320.826 52.687C320.826 52.687 323.564 50.3187 326.255 51.1289C326.255 51.1289 320.904 52.4626 321.177 53.3975C321.228 53.5907 322.6 55.7783 322.6 55.7783C322.6 55.7783 327.42 51.6649 331.544 53.0672C331.544 53.0672 324.992 53.6157 323.157 56.5886L325.358 59.7547C325.358 59.7547 330.235 55.1302 334.983 56.5075C334.983 56.5075 328.147 57.3801 325.884 60.4029L328.451 63.1576C328.451 63.1576 333.276 58.7575 337.215 59.9416C337.215 59.9416 329.399 61.9111 329.059 63.7372C329.059 63.7372 331.518 66.0931 332.426 66.3424C332.426 66.3424 335.952 63.2823 338.189 64.2171C338.189 64.2171 333.085 66.1991 333.163 66.8971C333.163 66.8971 337.045 68.9289 339.462 68.7045C339.462 68.7045 335.91 69.3278 332.931 67.645C332.931 67.645 333.714 70.2564 335.4 71.5216C335.4 71.5216 332.884 71.6151 331.993 67.1589C331.993 67.1589 329.023 65.4262 328.771 64.8466C328.771 64.8466 329.131 69.415 330.539 71.9267C330.539 71.9267 327.868 70.057 328.075 64.1424L325.497 61.4437C325.497 61.4437 325.708 67.5204 326.822 69.8763C326.822 69.8763 324.347 67.4269 324.884 60.702L322.672 57.6294C322.672 57.6294 322.522 62.8772 323.296 65.8189C323.296 65.8189 321.404 62.9519 322.064 56.7194L320.78 54.457C320.78 54.457 320.734 58.29 320.78 59.3994C320.826 60.5088 320.605 60.6148 320.605 60.6148C319.927 58.3311 319.788 55.8647 320.203 53.491C320.203 53.491 317.805 48.6234 317.548 48.773Z" fill="#F9A826"/>
<path opacity="0.1" d="M442.54 471.817C442.54 471.817 418.404 463.714 417.63 485.179C417.63 485.179 416.414 488.694 418.862 491.063C418.862 491.063 419.177 489.542 421.548 490.695C422.394 491.1 423.277 491.382 424.177 491.536C425.395 491.749 426.638 491.473 427.714 490.751C427.714 490.751 435.189 489.093 440.261 476.204C440.261 476.204 442.762 473.755 442.839 472.97L438.339 474.035C438.339 474.035 439.112 477.999 437.473 480.704C437.473 480.704 438.504 474.21 437.663 474.16C437.493 474.16 435.297 474.852 435.297 474.852C435.297 474.852 436.617 481.745 433.982 485.827C433.982 485.827 436.045 478.286 434.462 475.107L431.194 476.41C431.194 476.41 432.884 483.615 430.028 488.401C430.028 488.401 431.956 480.43 430.492 476.753L427.43 478.554C427.43 478.554 428.977 485.622 426.569 489.586C426.569 489.586 428.023 480.1 426.75 479.021C426.75 479.021 424.018 480.891 423.487 481.801C423.487 481.801 424.518 486.906 422.93 489.056C422.93 489.056 423.342 482.593 422.78 482.418C422.78 482.418 419.749 485.989 419.007 488.782C419.007 488.782 419.857 484.562 422.296 481.876C422.296 481.876 419.996 481.764 418.393 483.166C418.393 483.166 419.27 480.318 423.033 481.022C423.033 481.022 425.487 478.348 426.028 478.292C426.028 478.292 422.419 476.958 419.935 477.582C419.935 477.582 422.399 475.313 426.827 477.781L429.879 475.911C429.879 475.911 425.147 473.848 422.925 474.204C422.925 474.204 425.734 472.334 430.657 475.506L433.843 474.191C433.843 474.191 429.884 472.041 427.337 471.792C427.337 471.792 430.25 470.763 434.771 473.861L436.988 473.281C436.988 473.281 434.07 471.773 433.199 471.412C432.328 471.05 432.333 470.788 432.333 470.788C434.329 470.899 436.262 471.675 437.916 473.032C437.916 473.032 442.556 472.159 442.54 471.817Z" fill="#F9A826"/>
<circle cx="616" cy="357" r="24.5" stroke="#C51340" stroke-width="9"/>
</g>
<rect x="39" y="469" width="562" height="136" fill="#D48A9B"/>
</g>
<defs>
<linearGradient id="paint0_linear" x1="331.467" y1="421.501" x2="331.467" y2="192.762" gradientUnits="userSpaceOnUse">
<stop stop-color="#808080" stop-opacity="0.25"/>
<stop offset="0.54" stop-color="#808080" stop-opacity="0.12"/>
<stop offset="1" stop-color="#808080" stop-opacity="0.1"/>
</linearGradient>
<clipPath id="clip0">
<rect width="546" height="492" fill="white" transform="translate(57 48.0001)"/>
</clipPath>
</defs>
</svg>
