<svg width="686" height="704" viewBox="0 0 686 704" fill="none" xmlns="http://www.w3.org/2000/svg">
<g filter="url(#filter0_d)">
<path fill-rule="evenodd" clip-rule="evenodd" d="M229.854 79.217C272.821 79.5286 307.213 122.471 349.861 132.633C411.484 147.317 490.781 94.6772 531.897 151.189C571.119 205.1 512.566 278.078 503.844 344.279C496.478 400.181 514.415 464.775 484.818 508.487C454.965 552.579 398.327 553.123 351.1 569.873C298.348 588.582 247.986 631.055 193.007 611.981C136.436 592.356 78.3311 537.308 67.2934 471.417C56.1653 404.986 135.46 366.925 140.896 300.897C145.747 241.966 74.1607 183.557 95.3368 130.787C115.438 80.6966 180.333 78.8577 229.854 79.217Z" fill="#C51340"/>
</g>
<g filter="url(#filter1_d)">
<path fill-rule="evenodd" clip-rule="evenodd" d="M118.882 203.573C142.722 154.64 157.108 89.5904 209.243 72.0242C261.157 54.5327 325.013 82.4696 368.205 119.567C407.027 152.91 392.568 217.386 424.706 257.082C453.707 292.904 516.849 290.098 538.837 330.331C561.731 372.221 559.635 426.183 539.619 467.347C519.872 507.958 473.594 525.802 433.495 546.971C396.413 566.547 358.526 587.444 315.571 585.626C273.252 583.835 235.761 559.464 198.881 537.042C161.37 514.236 120.482 492.668 99.627 454.337C78.4717 415.453 81.5273 370.33 84.8234 327.404C88.1969 283.469 99.8545 242.628 118.882 203.573Z" fill="#FCEEF5"/>
</g>
<path fill-rule="evenodd" clip-rule="evenodd" d="M247.044 443.268C249.35 440.635 253.483 432.122 256.047 429.799C261.748 424.632 288.892 410.946 289.738 410.305C291.027 409.329 299.769 404.98 304.841 402.332C316.752 396.114 357.588 363.946 368.381 355.626C370.723 359.723 386.873 376.522 385.105 379.003C379.28 387.167 368.165 398.189 360.874 404.731C354.976 410.022 348.564 414.74 341.977 418.891C334.498 423.604 329.576 427.972 322.137 432.747C314.818 437.445 325.951 444.602 330.349 445.616C335.283 446.754 342.509 446.286 347.488 447.116C341.967 463.03 338.316 481.668 340.102 498.87C340.532 503.01 338.442 507.356 333.683 507.142C331.228 507.031 309.056 508.612 305.372 508.498C280.773 507.739 232.783 485.865 237.662 451.456C240.388 452.183 245.059 445.534 247.044 443.268Z" fill="#EE7C99"/>
<path fill-rule="evenodd" clip-rule="evenodd" d="M227.838 272.495C229.569 271.93 233.415 267.019 230.669 265.605C227.899 264.178 227.375 271.196 227.838 272.495ZM138.826 308.254C139.27 308.06 138.563 305.333 137.774 305.144C135.283 304.547 135.857 308.793 136.006 309.93C136.195 311.365 136.763 315.399 139.344 313.669C140.809 312.687 139.168 309.284 138.826 308.254ZM276.216 290.43C276.606 292.92 282.016 296.644 283.188 293.403C284.175 290.679 275.434 285.476 276.216 290.43ZM105.448 271.209C107.438 274.606 113.027 268.085 112.775 265.319C112.258 259.654 104.706 267.531 105.448 271.209ZM162.652 274.767C165.633 273.802 168.847 268.651 171.481 266.4C173.263 264.876 178.412 262.371 178.553 259.803C178.676 257.571 170.371 264.181 169.665 264.761C166.42 267.425 163.575 270.268 162.652 274.767ZM384.847 193.646C386.887 191.039 389.582 189.043 392.695 188.424C394.249 188.115 397.669 188.445 397.253 185.472C396.578 180.64 383.985 189.592 382.022 191.018C382.964 191.895 383.906 192.771 384.847 193.646ZM268.181 414.589C265.817 411.753 262.288 410.606 259.387 408.388C261.093 412.727 259.849 417.216 259.244 421.669C262.224 419.309 265.202 416.949 268.181 414.589ZM588.552 413.509C588.873 409.687 589.198 405.886 589.693 402.082C590.247 397.822 590.82 397.334 587.255 395.257C585.68 401.117 584.105 406.978 582.53 412.84C584.492 413.274 586.528 413.667 588.552 413.509ZM278.312 212.873C274.19 209.469 258.391 212.797 262.019 221.558C263.286 224.617 266.536 220.32 268.825 219.018C271.097 217.725 277.896 216.072 278.312 212.873ZM288.507 272.056C287.905 271.084 286.391 267.428 285.128 267.4C283.899 267.373 279.993 272.461 279.233 273.274C275.442 277.336 271.802 281.606 268.156 285.827C269.779 285.457 271.137 284.484 272.749 284.103C274.663 283.647 276.197 284.201 277.976 283.28C281.8 281.302 285.569 275.338 288.507 272.056ZM275.498 175.892C275.528 173.898 296.265 175.136 298.823 175.645C300.216 175.922 307.564 178.213 305.088 172.8C303.678 169.717 295.535 168.978 292.908 168.644C286.23 167.795 279.331 167.682 272.73 169.577C271.449 169.945 261.754 172.804 266.642 176.211C268.326 177.384 273.298 175.759 275.498 175.892ZM327.627 437.026C331.658 438.177 335.682 438.843 339.8 439.523C341.63 439.825 344.613 441.028 346.41 440.145C347.881 439.422 347.904 436.728 348.397 434.817C350.201 427.822 352.801 421.919 356.228 415.71C353.897 414.541 344.893 424.093 342.533 425.737C340.172 427.384 337.956 429.005 335.686 430.847C333.549 432.581 329.098 434.71 327.627 437.026ZM382.762 368.341C387.623 364.458 391.829 358.579 395.443 353.349C399.593 347.345 403.178 341.226 405.718 334.101C403.522 334.731 400.058 343.703 398.443 335.163C397.619 330.807 402.265 325.271 403.213 320.84C398.545 319.19 397.542 335.639 392.043 332.961C386.745 330.38 391.776 316.208 392.465 311.941C389.384 310.569 377.962 336.388 376.241 339.751C375.164 341.856 372.282 344.988 371.871 347.251C371.626 348.599 372.276 352.548 372.712 353.636C373.621 355.912 376.544 358.22 378.019 360.196C379.886 362.699 381.598 365.351 382.762 368.341ZM618.48 398.309C612.545 392.177 616.75 387.954 619.421 381.132C621.558 375.676 623.365 369.786 624.299 364.023C626.636 349.611 628.677 336.241 628.46 321.608C625.517 323.975 624.622 330.635 623.597 334.27C622.218 339.158 621.141 344.203 619.495 349.01C616.414 358.003 613.512 367.509 609.004 375.723C606.962 379.446 605.392 383.468 602.891 386.972C601.749 388.574 599.307 390.231 598.586 392.072C597.905 393.809 599.154 394.536 599.121 396.434C599.088 398.381 597.739 400.757 597.332 402.717C596.797 405.292 596.33 407.858 595.674 410.406C594.958 413.185 594.877 414.571 595.008 417.098C595.152 419.86 596.263 419.897 594.586 422.855C598.785 423.849 602.984 424.842 607.182 425.835C608.599 426.171 610.017 426.506 611.434 426.841C611.605 426.212 611.776 425.583 611.947 424.954C612.8 423.579 613.265 420.562 613.598 418.926C614.993 412.1 616.711 405.175 618.48 398.309ZM240.494 453.049C235.333 487.294 278.697 505.252 303.467 505.764C306.898 505.834 310.296 506.176 313.723 506.311C317.46 506.457 320.587 505.546 324.216 505.136C327.102 504.81 328.889 506.909 331.676 506.965C336.331 507.057 335.387 503.434 334.986 499.413C333.284 482.363 338.097 464.44 343.762 448.598C339.741 447.975 335.729 447.21 331.73 446.436C328.308 445.773 322.745 442.986 319.3 443.557C316.752 443.98 313.344 447.224 311.087 448.822C307.327 451.483 303.508 453.889 299.475 456.039C292.424 459.797 284.671 464.496 277.023 466.461C274.818 467.028 268.946 469.551 267.077 468.406C263.512 466.224 267.295 462.866 269.653 461.259C283.709 451.684 299.343 445.411 313.414 435.671C320.654 430.659 327.745 425.289 335.044 420.313C341.335 416.024 348.005 411.977 353.954 407.109C361.809 400.683 369.502 393.154 375.816 384.911C377.08 383.262 379.873 380.603 380.557 378.474C381.16 376.6 381.35 378.289 380.793 376.31C380.393 374.889 378.42 373.288 377.506 372.068C374.099 367.516 370.905 362.771 368.038 357.786C357.098 366.169 347.112 376.461 336.418 385.192C325.654 393.98 313.045 401.323 300.967 407.64C295.827 410.329 289.696 412.206 285.263 416.214C283.379 417.916 281.555 419.806 279.427 421.027C279.018 422.586 278.412 423.012 277.61 422.303C277.114 421.895 276.552 421.803 275.924 422.027C274.591 422.599 273.314 423.638 272.124 424.483C266.1 428.76 260.482 433.678 254.93 438.654C252.298 441.012 249.586 443.361 247.125 445.93C245.806 447.307 244.645 448.657 243.67 450.357C242.501 452.396 243.108 453.714 240.494 453.049ZM452.562 208.371C455.339 207.79 457.56 205.564 460.464 204.998C465.028 204.108 469.328 207.163 472.644 210.299C479.205 216.504 479.503 225.725 478.394 234.595C477.862 238.835 476.834 243.023 475.317 246.973C473.973 250.471 471.1 254.145 470.395 257.859C469.231 263.985 473.213 260.585 475.7 258.767C478.825 256.479 481.671 253.873 484.096 250.683C494.906 236.466 501.833 218.551 501.827 199.791C501.823 190.638 499.826 180.393 492.957 174.488C486.677 169.087 477.511 168.945 470.232 171.871C462.364 175.034 455.705 180.491 449.99 186.863C448.33 188.715 446.856 190.659 445.344 192.651C443.36 195.265 441.954 195.642 443.139 198.76C444.019 201.078 445.672 203.311 446.866 205.455C449.102 209.472 448.78 210.716 452.562 208.371ZM475.054 281.279L474.686 282.461C478.584 281.783 481.495 277.213 484.451 274.633C488.29 271.28 491.493 267.169 494.64 263.039C500.189 255.753 505.691 247.713 509.222 239.004C517.138 219.482 523.213 195.633 516.271 174.751C508.79 152.245 488.692 147.507 469.577 155.069C460.963 158.477 453.841 164.641 446.713 170.875C443.12 174.017 440.272 177.681 437.118 181.317C435.482 183.205 433.781 183.789 434.121 186.36C434.377 188.298 438.177 191.946 439.307 193.496C447.229 180.034 456.278 168.329 471.22 164.326C488.997 159.565 502.992 175.84 506.178 193.753C509.302 211.321 505.507 229.77 496.848 244.881C492.914 251.748 489.004 257.43 483.651 263.008C480.983 265.788 479.075 268.173 475.919 270.335C473.687 271.864 473.844 271.291 473.677 273.888C473.535 276.093 474.643 279.117 475.054 281.279ZM421.282 541.889C421.625 545.104 421.61 548.351 421.523 551.584C421.492 552.745 420.815 556.542 421.273 557.734C422.029 559.706 421.281 558.498 423.115 559.198C425.029 559.93 427.006 559.409 428.939 559.323C430.132 559.27 434.763 560.498 435.411 559.99C436.545 559.101 436.117 556.975 437.327 555.818C438.977 554.241 441.898 554.604 443.817 555.107C448.947 556.446 453.08 560.698 458.116 562.393C467.061 565.403 477.115 565.906 486.309 564.963C491.29 564.452 496.467 564.369 501.049 562.015C504.659 560.161 509.602 559.129 510.846 554.181C491.523 552.811 462.335 552.397 450.874 530.91C447.655 535.736 440.691 535.12 435.836 535.661C430.494 536.258 425.844 537.462 420.579 535.927C420.605 538.071 420.811 539.809 421.282 541.889ZM233.007 435.548C241.732 434.156 249.085 427.802 253.007 419.015C253.973 416.851 254.964 414.641 255.345 412.251C255.413 411.651 255.48 411.052 255.547 410.453C256.088 408.718 255.595 408.07 254.068 408.509C252.959 407.394 250.674 407.455 250.867 404.933C251.012 403.031 252.749 402.604 254.161 401.694C253.152 400.471 252.573 399.874 251.267 398.879C248.968 402.297 244.871 408.912 241.735 402.977C240.229 400.128 241.362 396.819 240.409 393.957C240.016 392.773 238.039 389.971 237.089 389.426C232.033 386.521 226.069 389.56 221.876 392.904C218.987 395.208 218.438 396.106 218.581 399.847C218.727 403.65 218.91 407.444 218.996 411.25C220.703 409.721 220.619 407.279 221.552 405.293C222.188 406.121 222.825 406.95 223.462 407.777C224.045 407.222 224.661 407.103 225.312 407.423C226.516 408.77 226.359 411.212 226.373 412.909C229.384 411.895 231.369 415.368 228.554 417.6C225.638 419.911 223.407 415.93 222.789 413.163C221.88 415.007 220.498 414.446 219.812 415.444C219.127 416.441 219.106 418.199 219.146 420.111C219.212 423.251 218.763 427.905 220.47 430.681C223.005 434.805 228.891 435.909 233.007 435.548ZM456.347 233.638C454.292 238.655 450.472 245.481 450.417 250.989C453.189 248.243 458.05 236.962 461.18 244.352C462.977 248.594 458.91 255.064 458.461 259.67C463.088 256.746 465.591 250.321 467.891 245.278C470.824 238.848 473.518 230.64 473.241 223.377C473.017 217.5 468.463 213.013 463.033 213.67C460.26 214.005 457.504 215.129 455.002 216.423C453.86 217.013 452.144 217.813 451.202 218.765C450.021 219.959 450.217 222.081 448.635 220.64C447.59 224.513 446.545 228.386 445.5 232.257C447.051 231.207 449.949 227.591 451.831 227.467C454.58 227.288 455.908 231.434 456.347 233.638ZM173.702 209.082C166.268 211.029 158.772 214.564 152.169 218.784C150.529 219.832 143.533 223.827 145.704 226.81C147.139 228.782 152.136 224.394 153.723 223.491C160.528 219.617 167.685 216.454 174.826 213.429C176.555 212.696 182.628 211.345 182.47 208.693C182.279 205.456 175.813 208.597 173.702 209.082ZM442.743 521.909C438.789 523.378 434.861 524.062 430.704 524.44C427.206 524.758 423.448 524.012 420.051 524.786C420.781 528.79 420.539 528.871 424.532 528.853C427.319 528.841 430.097 528.558 432.879 528.358C437.778 528.006 443.443 528.859 448.073 526.701C447.83 526.033 446.604 521.426 446.02 521.075C445.691 520.878 443.153 521.821 442.743 521.909ZM323.196 240.607C324.474 241.144 327.658 243.72 329.018 243.469C327.866 239.908 322.981 234.366 319.124 237.607C318.179 238.402 316.485 241.673 317.703 242.668C318.353 243.2 321.808 240.928 323.196 240.607ZM289.636 282.266C289.561 281.617 289.486 280.968 289.412 280.319C288.03 281.69 286.178 282.613 285.362 284.501C286.818 284.849 288.274 285.198 289.73 285.546C289.699 284.453 289.668 283.359 289.636 282.266ZM430.841 351.575C438.766 352.742 446.251 355.008 452.882 360.238C458.614 364.761 462.627 374.118 465.116 381.193C471.273 398.699 468.852 416.778 468.4 434.971C468.17 444.2 466.975 453.303 465.973 462.471C465.098 470.477 464.607 478.764 462.813 486.595C461.292 493.236 459.026 499.957 457.862 506.751C457.235 510.408 457.334 522.443 451.956 519.882C451.345 523.879 450.975 523.635 452.82 525.894C454.155 527.529 458.003 529.345 459.873 530.498C464.856 533.573 470.842 535.678 476.339 537.373C486.408 540.477 496.895 542.127 507.153 544.711C511.688 545.855 516.643 547.298 516.802 553.493C516.936 558.687 514.994 563.09 511.29 566.259C507.813 569.234 502.588 572.11 498.461 573.735C496.013 574.7 495.225 573.677 493.098 573.746C490.732 573.824 488.221 575.29 485.858 575.805C475.254 578.117 465.45 577.297 455.663 572.488C452.165 570.77 446.47 565.243 442.469 566.156C440.424 566.622 441.106 567.892 439.453 569.104C437.414 570.6 433.248 569.604 430.985 569.662C426.166 569.788 421.264 569.917 417.364 566.213C413.147 562.211 413.26 556.038 413.733 550.418C414.267 544.084 415.891 537.41 415.946 531.091C415.959 529.554 415.719 526.749 415.159 525.316C414.289 523.092 411.903 522.191 411.38 519.688C411.221 518.927 412.032 517.69 412.062 516.86C412.129 515.036 411.741 513.248 411.577 511.445C411.285 508.229 411.387 505.061 411.269 501.843C410.999 494.522 411.865 487.738 412.573 480.464C413.26 473.403 414.164 468.059 416.783 461.485C418.139 458.08 422.555 446.043 418.899 443.702C416.33 453.845 412.674 462.132 407.513 470.918C403.566 477.637 400.081 486.255 394.591 491.651C388.555 497.585 380.673 502.062 373.548 506.096C370.159 508.014 367.626 511.133 363.839 512.466C359.734 513.91 355.361 514.308 351.065 514.214C349.857 514.188 346.165 512.992 345.142 513.355C343.634 513.891 341.969 517.421 340.379 518.362C336.509 520.652 333.226 518.711 329.668 517.036C325.807 515.217 324.664 514.807 320.696 515.386C315.837 516.097 310.84 515.3 305.921 515.236C297.272 515.123 289.492 512.673 281.188 510.144C271.67 507.247 263.064 502.22 255.113 495.778C243.425 486.306 224.216 457.055 237.776 442.189C228.328 442.91 219.099 440.408 215.887 429.204C214.208 423.341 214.099 416.447 214.414 410.354C214.557 407.572 214.824 404.78 215.061 402.005C215.438 401 215.547 399.97 215.385 398.914C215.467 397.48 214.868 396.911 213.587 397.21C210.596 394.643 208.273 392.306 206.976 387.99C206.566 386.622 206.035 384.503 206.725 383.103C207.057 382.528 207.505 382.092 208.066 381.796C209.502 381.562 209.763 380.701 208.849 379.212C209.117 376.748 207.767 375.183 210.189 373.628C211.056 373.633 211.924 373.658 212.792 373.7C213.942 373.989 214.557 373.45 214.64 372.085C216.895 370.473 215.482 369.172 219.054 369.77C221.216 370.133 223.388 371.11 225.168 372.498C226.769 370.78 221.124 363.704 220.517 361.174C219.084 355.21 220.442 349.701 222.487 344.068C226.463 333.122 232.954 323.01 239.487 313.753C251.999 296.025 265.401 278.809 280.396 263.539C272.372 259.76 263.878 260.175 255.955 264.588C248.651 268.656 243.154 274.274 236.712 279.56C230.744 284.456 224.006 287.445 220.216 278.66C215.97 268.821 222.775 263.257 228.661 257.069C226.728 256.072 221.372 258.321 219.307 258.961C214.71 260.388 210.461 262.564 206.116 264.622C204.032 265.609 202.015 265.953 199.949 266.925C196.878 268.371 193.682 269.934 190.629 271.692C183.366 275.875 176.389 281.3 170.636 287.78C165.662 293.379 162.774 300.341 159.154 306.973C155.026 314.534 151.1 321.943 143.685 326.057C140.213 327.984 136.087 329.954 132.826 326.937C129.793 324.133 128.919 320.118 128.25 315.996C126.772 306.89 128.962 296.187 132.238 287.725C135.793 278.538 141.68 272.4 146.855 264.478C137.8 267.296 129.895 274.651 122.118 280.262C120.482 281.444 118.846 282.725 117.189 283.85C115.423 285.05 114.075 284.869 112.312 285.636C108.291 287.386 105.063 290.137 100.446 287.977C91.7121 283.893 97.2322 270.276 101.849 265.431C108.28 258.684 114.984 252.709 122.428 247.244C117.085 243.005 119.468 234.674 122.834 230.036C127.092 224.166 133.116 219.986 138.821 216.063C143.333 212.961 147.773 209.957 152.62 207.604C157.714 205.131 163.589 201.788 169.026 200.741C174.124 199.759 178.438 197.752 183.541 196.425C187.787 195.321 192.087 194.459 196.334 193.364C207.762 190.418 219.447 188.643 230.839 186.994C216.72 160.384 276.922 155.872 290.104 156.764C302.083 157.574 315.818 158.551 326.831 164.443C331.497 166.938 336.044 169.947 340.358 173.116C346.722 177.791 351.057 184.825 355.242 191.789C361.643 186.342 367.669 180.623 375.09 176.953C382.152 173.463 389.276 169.289 396.461 166.23C401.924 163.904 410 161.33 415.559 164.64C421.596 168.235 425.643 175.049 429.887 180.707C441.875 161.858 456.336 146.804 477.589 142.741C498.387 138.765 515.559 155.314 521.948 176.032C528.987 198.862 523.967 225.538 514.416 246.637C510.133 256.099 505.599 265.328 498.943 273.176C495.642 277.066 492.183 281.293 488.39 284.608C486.498 286.261 484.39 287.845 482.344 289.251C481.421 289.886 480.469 290.529 479.482 291.042C476.664 292.508 477.046 291.321 476.466 294.427C475.995 296.948 476.832 300.912 476.913 303.543C477.006 306.55 477.284 309.557 477.169 312.571C476.969 317.795 476.702 322.907 476.202 328.078C475.255 337.864 473.414 347.929 470.618 357.297C474.606 358.214 479.774 357.22 483.79 356.858C488.136 356.466 492.605 356.706 497.259 357.058C506.583 357.763 514.891 358.259 524.029 360.415C533.515 362.652 542.434 367.189 551.743 370.296C560.302 373.154 569.158 377.158 577.336 381.066C579.282 381.996 580.547 382.901 582.209 384.262C583.909 385.651 584.412 385.884 586.341 386.984C587.211 387.479 590 390.344 590.877 390.273C592.448 390.147 591.983 388.944 592.864 386.914C594.704 382.678 597.684 379.042 599.489 374.717C600.994 371.11 602.582 367.444 604.311 364.243C608.494 356.498 611.628 348.256 614.022 339.569C615.268 335.046 616.655 330.696 618.113 326.363C619.565 322.05 622.466 316.132 626.788 315.382C626.088 313.514 624.936 313.439 626.605 311.818C627.681 310.774 630.272 311.471 631.351 312.036C634.211 313.533 635.047 317.511 635.439 320.552C636.449 328.391 636.373 336.374 635.656 344.167C634.796 353.535 633.122 362.008 631.281 371.182C629.817 378.489 628.096 388.103 621.97 392.682C627.746 398.715 626.639 404.957 625.006 413.133C623.812 419.11 621.948 425.429 618.198 430.059C613.971 435.278 607.945 433.041 602.252 431.526C598.813 430.611 588.506 428.951 589.543 423.486C587.08 423.68 585.22 422.105 582.928 422.013C580.502 421.915 581.088 422.857 578.712 423.803C576.89 424.528 573.747 423.318 571.861 423.058C568.709 422.626 565.561 422.163 562.411 421.718C553.545 420.463 544.828 419.226 535.994 418.615C519.559 417.48 503.301 418.416 487.011 417.77C483.746 417.641 480.504 417.536 477.141 417.603C476.446 417.617 472.935 418.195 472.37 417.503C471.379 416.289 472.239 408.038 472.146 406.417C471.539 395.779 469.055 384.548 465.386 374.731C463.862 370.65 459.513 365.906 458.785 361.749C458.297 358.961 459.983 355.41 460.839 352.588C462.956 345.61 465.137 338.095 466.364 331.056C468.243 320.287 468.46 308.565 468.151 297.561C467.988 291.825 467.88 285.591 467.088 279.93C466.485 275.616 465.349 271.205 465.114 266.699C463.006 267.414 460.19 269.332 458.015 268.461C455.269 267.363 453.751 262.785 453.547 259.891C445.473 263.406 444.157 254.606 443.429 247.656C428.306 251.103 443.16 221.946 444.61 216.081C445.276 213.385 445.744 216.136 444.564 212.47C444.046 210.859 442.679 209.253 441.817 207.859C439.938 204.816 437.965 201.847 435.907 198.947C431.56 192.824 426.844 187.025 421.849 181.535C418.881 184.969 416.342 188.813 414.074 192.832C414.951 187.087 419.397 179.205 415.878 173.712C412.617 168.619 405.209 170.712 400.979 172.743C389.486 178.265 378.716 184.946 368.14 192.251C372.089 193.679 377.196 190.716 380.404 188.204C384.374 185.093 388.655 181.804 393.147 179.611C397.064 177.7 402.503 176.807 402.428 183.151C402.366 188.291 398.859 194.027 396.646 198.364C391.769 207.92 384.944 216.012 378.26 224.068C371.074 232.727 364.302 241.899 356.975 250.387C343.73 265.731 329.043 279.791 315.143 294.464C307.92 302.088 299.391 308.843 291.198 315.141C282.186 322.068 273.64 329.234 264.078 335.263C258.768 338.612 253.442 341.586 248.283 345.195C245.048 347.456 239.486 351.779 236.38 347.96C230.072 340.205 244.956 324.722 248.631 318.264C252.472 320.968 238.959 337.388 241.112 342.109C242.804 345.819 245.648 339.882 247.273 338.395C249.899 335.992 253.225 334.327 255.821 331.677C261.146 326.24 267.484 319.926 267.339 311.23C266.172 310.331 265.995 309.294 266.81 308.122C267.145 307.446 267.378 306.734 267.51 305.986C267.701 304.571 267.573 302.882 267.55 301.433C267.48 297.15 265.061 293.677 265.926 289.272C258.001 299.2 250.624 310.056 243.291 320.519C236.714 329.904 230.219 341.712 229.355 353.676C229.245 355.209 228.922 356.993 229.269 358.505C229.949 361.474 230.103 360.765 232.473 361.229C234.844 361.694 238.025 360.882 240.404 360.446C241.76 360.197 247.482 357.259 246.881 360.781C246.534 362.813 242.356 363.692 240.896 364.205C237.232 365.493 235.121 365.509 237.709 369.572C238.869 371.393 240.727 372.382 242.273 373.644C246.576 377.153 249.692 383.33 253.381 387.765C257.585 392.817 262.05 397.515 266.711 402.05C268.634 403.921 271.424 407.626 273.818 408.728C276.053 409.757 273.718 410.162 276.874 408.818C278.25 408.232 279.354 406.919 280.649 406.243C288.391 402.204 296.31 397.836 304.237 393.222C314.376 387.319 325.14 381.804 334.508 374.497C342.9 367.951 351.07 360.572 359.548 353.947C362.024 352.013 364.578 350.523 366.247 347.622C368.262 344.121 369.674 339.816 371.451 336.142C374.474 329.89 377.166 323.619 380.545 317.578C383.06 313.082 387.458 304.789 391.702 302.256C399.765 297.444 397.796 312.887 397.35 316.779C399.461 316.823 400.001 313.731 402.519 314.011C405.534 314.347 406.585 318.432 407.414 320.953C407.635 321.624 407.019 323.114 407.39 323.673C407.517 323.864 409.587 324.646 410.046 325.123C411.712 326.856 411.907 329.381 411.815 331.68C411.341 343.589 403.821 353.92 398.705 363.791C401.563 362.495 403.425 360.129 406.061 358.566C408.535 357.099 411.19 356.541 413.798 355.687C416.528 354.794 418.987 353.041 421.819 352.335C424.79 351.594 427.816 351.879 430.841 351.575Z" fill="#3C3B3B"/>
<path fill-rule="evenodd" clip-rule="evenodd" d="M99.174 315.3C97.7342 316.867 97.4802 318.14 97.924 320.898C98.1066 322.028 98.9439 326.212 100.347 325.727C101.664 325.273 99.4376 316.744 99.174 315.3ZM91.863 324.088C91.0293 315.116 92.3263 305.506 98.2178 298.456C99.6748 296.713 101.612 296.322 103.324 295.042C104.353 294.272 105.69 291.48 107.016 291.473C111.898 291.447 107.728 299.528 107.263 301.511C105.822 307.651 106.884 312.517 108.056 318.521C108.947 323.083 111.221 330.6 109.877 335.219C108.444 340.139 103.065 338.38 99.8787 336.388C95.8566 333.871 92.3153 329.213 91.863 324.088Z" fill="#3C3B3B"/>
<path fill-rule="evenodd" clip-rule="evenodd" d="M177.573 332.946C178.468 337.848 181.479 333.705 180.714 330.248C179.588 325.158 176.697 329.109 177.573 332.946ZM191.856 301.466C188.612 306.284 185.96 309.177 186.296 315.373C186.55 320.065 187.949 324.452 188.812 329.041C190.258 336.733 186.082 346.118 178.387 338.676C172.775 333.248 172.519 322.76 174.957 315.464C176.236 311.636 178.334 307.659 181.08 304.83C183.144 302.701 189.198 298.058 191.856 301.466Z" fill="#3C3B3B"/>
<path fill-rule="evenodd" clip-rule="evenodd" d="M160.158 432.717C159.917 434.016 159.729 439.139 161.727 437.535C163.489 436.118 161.642 433.172 160.158 432.717ZM145.796 420.307C145.122 418.551 143.162 407.023 146.198 407.229C148.583 407.39 150.03 413.19 151.325 415.028C156.147 421.873 164.886 424.828 169.037 432.081C173.672 440.181 164.56 442.542 159.048 440.09C152.523 437.186 147.309 427.624 145.796 420.307Z" fill="#3C3B3B"/>
<path fill-rule="evenodd" clip-rule="evenodd" d="M129.714 373.983C130.635 371.835 130.58 370.811 129.56 369.328C128.842 370.629 129.29 372.154 129.714 373.983ZM132.149 382.102C125.724 384.401 122.973 371.23 123.267 366.426C123.501 362.6 124.717 358.271 126.161 354.869C126.452 354.182 129.274 347.967 130.016 347.785C132.865 347.086 132.726 350.797 132.658 352.182C132.444 356.545 132.692 360.094 133.793 364.628C134.972 369.479 139.234 380.663 132.149 382.102Z" fill="#3C3B3B"/>
<path fill-rule="evenodd" clip-rule="evenodd" d="M400.905 204.825C393.238 215.431 386.167 226.633 377.5 236.356C373.26 241.115 368.72 245.504 364.5 250.319C362.351 252.772 360.116 255.038 357.603 257.054C355.383 258.834 353.815 259.357 355.312 255.991C356.313 253.742 359.103 251.698 360.697 249.898C363.149 247.126 365.402 244.159 368.046 241.593C372.706 237.069 377.451 233.193 381.562 228.01C385.211 223.411 389.013 218.866 392.424 214.084C393.887 212.034 398.354 203.132 400.905 204.825Z" fill="#3C3B3B"/>
<path fill-rule="evenodd" clip-rule="evenodd" d="M406.953 236.105C411.831 239.08 403.377 252.203 401.445 255.181C399.41 258.321 397.069 261.242 394.76 264.139C393.948 265.159 389.694 271.716 388.288 271.586C385.512 271.329 388.317 267.064 389.046 265.953C391.403 262.355 393.837 258.829 396.115 255.166C398.17 251.864 400.473 248.716 402.428 245.346C404.011 242.616 404.987 238.38 406.953 236.105Z" fill="#3C3B3B"/>
<path fill-rule="evenodd" clip-rule="evenodd" d="M132.886 461.372C131.288 458.837 129.898 462.372 131.142 463.536C132.318 464.638 132.844 461.938 132.886 461.372ZM125.489 457.334C125.328 453.109 126.264 450.528 130.386 453.226C133.219 455.079 139.281 460.806 139.503 464.63C139.793 469.647 134.66 469.375 131.664 467.4C128.594 465.376 126.579 460.865 125.489 457.334Z" fill="#3C3B3B"/>
<path fill-rule="evenodd" clip-rule="evenodd" d="M148.67 536.752C144.352 537.365 140.066 534.594 137.491 530.79C135.325 527.59 132.844 522.202 138.523 522.848C142.225 523.27 158.362 535.137 148.67 536.752Z" fill="#3C3B3B"/>
<path fill-rule="evenodd" clip-rule="evenodd" d="M195.132 502.427C191.99 504.004 188.297 502.357 185.781 500.124C184.215 498.734 180.211 493.52 181.246 490.762C182.689 486.915 187.036 492.994 188.354 494.094C190.42 495.815 196.654 498.585 195.132 502.427Z" fill="#3C3B3B"/>
<path fill-rule="evenodd" clip-rule="evenodd" d="M180.108 408.937C177.279 408.204 174.586 407.16 172.969 404.239C171.941 402.379 170.285 396.475 173.229 395.832C176.635 395.091 186.873 406.766 180.108 408.937Z" fill="#3C3B3B"/>
<path fill-rule="evenodd" clip-rule="evenodd" d="M150.158 349.577C153.626 348.715 154.835 350.636 155.872 353.556C156.576 355.537 159.444 362.156 158.05 363.962C156.057 366.545 151.439 362.72 150.343 361.055C148.084 357.628 149.573 353.412 150.158 349.577Z" fill="#3C3B3B"/>
<path fill-rule="evenodd" clip-rule="evenodd" d="M249.373 547.882C251.198 548.337 255.341 549.325 254.413 552.534C253.442 555.889 248.544 553.959 246.673 553.015C245.89 552.62 240.897 550.004 240.858 548.755C240.771 546.099 247.36 548.089 249.373 547.882Z" fill="#3C3B3B"/>
<path fill-rule="evenodd" clip-rule="evenodd" d="M103.087 379.41C104.822 382.329 108.117 392.965 100.958 388.448C98.7728 387.069 98.0821 384.883 98.2703 382.263C98.5409 378.468 100.016 378.872 103.087 379.41Z" fill="#3C3B3B"/>
<path fill-rule="evenodd" clip-rule="evenodd" d="M411.455 270.737C409.564 268.026 412.518 265.326 413.931 262.979C414.854 261.446 418.451 253.451 420.114 253.477C423.533 253.531 412.818 269.025 411.455 270.737Z" fill="#3C3B3B"/>
<path fill-rule="evenodd" clip-rule="evenodd" d="M188.461 548.856C191.509 547.582 192.947 551.267 195.282 552.484C196.284 553.007 199.386 552.959 199.064 554.625C198.218 559.001 188.799 551.592 188.461 548.856Z" fill="#3C3B3B"/>
<path fill-rule="evenodd" clip-rule="evenodd" d="M196.969 450.798C198.954 449.304 206.191 453.248 204.817 455.978C202.765 460.062 197.468 452.663 196.969 450.798Z" fill="#3C3B3B"/>
<path fill-rule="evenodd" clip-rule="evenodd" d="M257.287 519.702C255.742 520.234 248.668 519.448 250.571 515.802C251.906 513.241 257.495 517.613 257.287 519.702Z" fill="#3C3B3B"/>
<path fill-rule="evenodd" clip-rule="evenodd" d="M175.477 521.533C174.04 522.576 168.144 522.447 169.425 519.35C170.646 516.401 175.091 519.404 175.477 521.533Z" fill="#3C3B3B"/>
<path fill-rule="evenodd" clip-rule="evenodd" d="M223.543 523.733C225.336 523.106 226.88 524.02 227.569 526.007C225.345 526.888 224.53 526.45 223.543 523.733Z" fill="#3C3B3B"/>
<path fill-rule="evenodd" clip-rule="evenodd" d="M400.767 169.698C401.533 169.537 402.298 169.377 403.057 169.218C402.29 169.379 401.529 169.538 400.767 169.698Z" fill="#3C3B3B"/>
<path fill-rule="evenodd" clip-rule="evenodd" d="M423.458 352.355C422.314 352.601 421.17 352.849 420.027 353.094C421.171 352.847 422.315 352.601 423.458 352.355Z" fill="#3C3B3B"/>
<path fill-rule="evenodd" clip-rule="evenodd" d="M226.724 174.901C226.907 176.209 227.091 177.517 227.272 178.82C227.087 177.512 226.905 176.206 226.724 174.901Z" fill="#3C3B3B"/>
<path fill-rule="evenodd" clip-rule="evenodd" d="M623.66 319.023C624.285 320.35 623.789 320.707 622.169 320.093C622.665 319.736 623.162 319.38 623.66 319.023Z" fill="#3C3B3B"/>
<path fill-rule="evenodd" clip-rule="evenodd" d="M612.886 438.8C613.461 438.68 614.036 438.561 614.604 438.442C614.028 438.562 613.457 438.681 612.886 438.8Z" fill="#3C3B3B"/>
<path fill-rule="evenodd" clip-rule="evenodd" d="M484.118 357.931C483.301 358.934 482.365 359.261 481.243 358.536C482.202 358.335 483.16 358.133 484.118 357.931Z" fill="#3C3B3B"/>
<path fill-rule="evenodd" clip-rule="evenodd" d="M441.449 252.24C441.625 253.325 441.801 254.41 441.975 255.492C441.798 254.405 441.624 253.322 441.449 252.24Z" fill="#3C3B3B"/>
<path fill-rule="evenodd" clip-rule="evenodd" d="M471.662 141.875C470.708 142.087 469.754 142.297 468.801 142.507C469.687 141.932 470.663 141.84 471.662 141.875Z" fill="#3C3B3B"/>
<path fill-rule="evenodd" clip-rule="evenodd" d="M189.329 188.511C188.387 188.778 187.443 189.045 186.501 189.312C187.443 189.045 188.387 188.778 189.329 188.511Z" fill="#3C3B3B"/>
<path fill-rule="evenodd" clip-rule="evenodd" d="M212.823 183.684C212.048 183.787 211.273 183.89 210.498 183.993C211.273 183.89 212.047 183.787 212.823 183.684Z" fill="#3C3B3B"/>
<path fill-rule="evenodd" clip-rule="evenodd" d="M225.616 182.041C224.908 182.508 224.178 182.854 223.328 182.557C224.091 182.385 224.853 182.213 225.616 182.041Z" fill="#3C3B3B"/>
<path fill-rule="evenodd" clip-rule="evenodd" d="M157.872 198.355C156.954 198.779 156.037 199.202 155.12 199.623C156.039 199.201 156.955 198.778 157.872 198.355Z" fill="#3C3B3B"/>
<path fill-rule="evenodd" clip-rule="evenodd" d="M471.557 405.371C471.649 406.025 471.741 406.679 471.833 407.33C471.742 406.675 471.649 406.022 471.557 405.371Z" fill="#3C3B3B"/>
<path fill-rule="evenodd" clip-rule="evenodd" d="M146.119 420.352C146.214 420.781 146.308 421.211 146.401 421.637C146.305 421.207 146.213 420.78 146.119 420.352Z" fill="#3C3B3B"/>
<path fill-rule="evenodd" clip-rule="evenodd" d="M626.614 315.266L623.752 315.926C624.565 314.955 625.538 314.836 626.614 315.266Z" fill="#3C3B3B"/>
<path fill-rule="evenodd" clip-rule="evenodd" d="M430.042 352.494C429.252 352.532 428.463 352.57 427.676 352.607C428.463 352.57 429.253 352.531 430.042 352.494Z" fill="#3C3B3B"/>
<path fill-rule="evenodd" clip-rule="evenodd" d="M249.612 547.663C248.62 547.681 247.628 547.697 246.636 547.714L249.612 547.663Z" fill="#3C3B3B"/>
<path fill-rule="evenodd" clip-rule="evenodd" d="M406.42 320.987C406.277 320.344 406.135 319.701 405.993 319.06C406.135 319.703 406.278 320.346 406.42 320.987Z" fill="#3C3B3B"/>
<path fill-rule="evenodd" clip-rule="evenodd" d="M192.227 188.096C191.641 188.151 191.055 188.205 190.469 188.26C191.055 188.205 191.641 188.151 192.227 188.096Z" fill="#3C3B3B"/>
<path fill-rule="evenodd" clip-rule="evenodd" d="M282.985 152.056C282.377 151.997 281.768 151.939 281.16 151.88C281.769 151.938 282.377 151.997 282.985 152.056Z" fill="#3C3B3B"/>
<path fill-rule="evenodd" clip-rule="evenodd" d="M435.135 573.689C435.522 573.628 435.91 573.567 436.292 573.507C435.903 573.568 435.519 573.628 435.135 573.689Z" fill="#3C3B3B"/>
<path fill-rule="evenodd" clip-rule="evenodd" d="M105.579 282.558C106.156 282.448 106.733 282.339 107.303 282.23C106.724 282.341 106.151 282.449 105.579 282.558Z" fill="#3C3B3B"/>
<path fill-rule="evenodd" clip-rule="evenodd" d="M478.077 141.163C477.111 141.307 476.146 141.45 475.18 141.593C476.146 141.45 477.111 141.307 478.077 141.163Z" fill="#3C3B3B"/>
<path fill-rule="evenodd" clip-rule="evenodd" d="M175.951 202.572C174.614 202.861 173.278 203.149 171.949 203.436C173.289 203.147 174.62 202.86 175.951 202.572Z" fill="#3C3B3B"/>
<path fill-rule="evenodd" clip-rule="evenodd" d="M471.959 278.039C472.184 279.114 472.411 280.189 472.637 281.259C472.412 280.183 472.188 279.11 471.959 278.039Z" fill="#3C3B3B"/>
<path fill-rule="evenodd" clip-rule="evenodd" d="M446.509 524.518C445.742 524.672 444.977 524.825 444.216 524.976C444.984 524.821 445.746 524.67 446.509 524.518Z" fill="#3C3B3B"/>
<path fill-rule="evenodd" clip-rule="evenodd" d="M461.729 164.563C462.85 164.172 463.971 163.78 465.092 163.388C464.183 164.665 462.868 164.246 461.729 164.563Z" fill="#3C3B3B"/>
<path fill-rule="evenodd" clip-rule="evenodd" d="M440.281 526.197C439.703 526.3 439.126 526.405 438.553 526.509C439.133 526.404 439.707 526.3 440.281 526.197Z" fill="#3C3B3B"/>
<path fill-rule="evenodd" clip-rule="evenodd" d="M422.673 541.713C422.909 542.786 423.146 543.857 423.382 544.924C423.146 543.849 422.909 542.782 422.673 541.713Z" fill="#3C3B3B"/>
<path fill-rule="evenodd" clip-rule="evenodd" d="M449.357 208.543C450.107 208.297 450.857 208.052 451.606 207.807C451.013 208.526 450.134 208.38 449.357 208.543Z" fill="#3C3B3B"/>
<path fill-rule="evenodd" clip-rule="evenodd" d="M232.467 434.003C233.259 433.982 234.051 433.958 234.842 433.936C234.051 433.959 233.259 433.982 232.467 434.003Z" fill="#3C3B3B"/>
<path fill-rule="evenodd" clip-rule="evenodd" d="M318.681 238.406C319.475 237.321 320.448 237.2 321.546 237.75C320.59 237.968 319.636 238.187 318.681 238.406Z" fill="#3C3B3B"/>
<path fill-rule="evenodd" clip-rule="evenodd" d="M289.17 278.707C289.12 278.269 289.069 277.831 289.021 277.394C289.072 277.832 289.121 278.27 289.17 278.707Z" fill="#3C3B3B"/>
<path fill-rule="evenodd" clip-rule="evenodd" d="M453.348 230.846C453.523 231.708 453.697 232.57 453.871 233.427C453.697 232.563 453.523 231.705 453.348 230.846Z" fill="#3C3B3B"/>
<path fill-rule="evenodd" clip-rule="evenodd" d="M226.969 420.101C228.32 420.285 231.124 421.129 232.564 420.604C233.717 420.184 234.402 418.386 235.54 418.128C238.605 417.435 238.747 421.458 237.648 423.886C234.676 430.452 224.61 426.359 226.969 420.101Z" fill="#3C3B3B"/>
<path fill-rule="evenodd" clip-rule="evenodd" d="M235.472 396.605C239.905 396.842 239.668 407.528 236.253 409.037C232.233 410.815 229.992 402.681 230.269 399.493C232.671 400.408 232.256 405.722 234.709 403.72C236.269 402.446 235.264 398.43 235.472 396.605Z" fill="#3C3B3B"/>
<defs>
<filter id="filter0_d" x="-18" y="-0.00012207" width="665.17" height="666.398" filterUnits="userSpaceOnUse" color-interpolation-filters="sRGB">
<feFlood flood-opacity="0" result="BackgroundImageFix"/>
<feColorMatrix in="SourceAlpha" type="matrix" values="0 0 0 0 0 0 0 0 0 0 0 0 0 0 0 0 0 0 127 0"/>
<feOffset dx="15" dy="15"/>
<feGaussianBlur stdDeviation="2"/>
<feColorMatrix type="matrix" values="0 0 0 0 0.235294 0 0 0 0 0.231373 0 0 0 0 0.231373 0 0 0 0.3 0"/>
<feBlend mode="normal" in2="BackgroundImageFix" result="effect1_dropShadow"/>
<feBlend mode="normal" in="SourceGraphic" in2="effect1_dropShadow" result="shape"/>
</filter>
<filter id="filter1_d" x="-39" y="13.9999" width="700.099" height="689.829" filterUnits="userSpaceOnUse" color-interpolation-filters="sRGB">
<feFlood flood-opacity="0" result="BackgroundImageFix"/>
<feColorMatrix in="SourceAlpha" type="matrix" values="0 0 0 0 0 0 0 0 0 0 0 0 0 0 0 0 0 0 127 0"/>
<feOffset dx="15" dy="15"/>
<feGaussianBlur stdDeviation="2"/>
<feColorMatrix type="matrix" values="0 0 0 0 0.235294 0 0 0 0 0.231373 0 0 0 0 0.231373 0 0 0 0.3 0"/>
<feBlend mode="normal" in2="BackgroundImageFix" result="effect1_dropShadow"/>
<feBlend mode="normal" in="SourceGraphic" in2="effect1_dropShadow" result="shape"/>
</filter>
</defs>
</svg>
