<svg width="716" height="678" viewBox="0 0 716 678" fill="none" xmlns="http://www.w3.org/2000/svg">
<g filter="url(#filter0_d)">
<path fill-rule="evenodd" clip-rule="evenodd" d="M99.1673 258.136C102.626 197.963 89.5448 125.364 135.306 85.1536C180.872 45.1145 258.039 46.3863 318.008 65.8409C371.908 83.3267 384.671 155.371 434.455 182.201C479.381 206.413 542.691 176.582 582.336 208.295C623.613 241.314 644.516 297.339 641.646 347.941C638.814 397.863 599.156 435.855 567.23 474.606C537.707 510.441 507.924 547.969 463.263 564.456C419.264 580.698 370.555 571.811 323.302 564.653C275.241 557.373 224.258 552.799 186.583 522.545C148.365 491.855 132.218 444.451 117.253 399.189C101.938 352.863 96.4066 306.161 99.1673 258.136Z" fill="#0C8A9B"/>
</g>
<g filter="url(#filter1_d)">
<path fill-rule="evenodd" clip-rule="evenodd" d="M111.108 436.371C78.1825 368.633 88.1216 288.395 123.634 221.977C158.599 156.583 222.033 116.387 293.25 95.7194C375.522 71.8432 476.034 42.1571 537.446 101.885C597.501 160.293 554.97 257.453 545.077 340.641C536.876 409.593 540.608 486.206 486.555 529.795C430.876 574.694 353.155 568.65 283.745 551.378C213.15 533.812 142.91 501.799 111.108 436.371Z" fill="#EBF9F9"/>
</g>
<path fill-rule="evenodd" clip-rule="evenodd" d="M255.611 308.447C254.504 315.628 253.398 322.808 252.293 329.989C255.186 329.442 273.599 325.847 271.993 331.135C270.841 334.928 265.415 338.629 262.599 341.076C260.007 343.329 257.351 345.511 254.639 347.616C259.388 346.286 264.167 345.054 268.969 343.933C272.602 343.085 276.259 342.268 279.952 341.726C281.323 341.524 285.066 340.524 286.247 341.565C289.351 344.302 269.653 360.361 266.948 362.632C270.596 361.327 274.315 360.181 278.074 359.253C280.789 358.583 289.238 355.836 291.286 359.074C293.478 362.538 286.624 369.349 284.696 371.531C281.933 374.66 278.978 377.631 275.905 380.449C286.52 392.065 299.27 402.723 313.222 409.928C323.451 415.211 333.787 417.3 345.213 416.042C356.951 414.75 368.422 411.208 379.408 406.953C385.86 404.454 392.255 401.693 398.399 398.492C396.281 395.328 394.237 392.11 392.264 388.852C389.449 384.202 385.933 379.078 384.576 373.734C383.248 368.503 389.893 370.139 393.098 370.725C397.74 371.574 402.329 372.867 406.821 374.318C403.789 371.73 400.824 369.057 397.931 366.313C394.16 362.737 389.07 358.614 386.833 353.777C384.865 349.523 389.907 351.035 392.233 351.791C397.778 353.595 403.089 356.271 408.296 358.883C412.109 360.796 415.891 362.779 419.627 364.844C417.407 362.492 415.278 360.046 413.247 357.527C410.516 354.141 406.798 349.969 405.839 345.577C403.888 336.632 421.809 344.963 424.848 346.608C425.095 337.56 425.343 328.512 425.591 319.464C400.45 323.688 375.309 327.914 350.168 332.139C347.451 332.596 343.99 333.827 341.217 333.643C338.706 333.478 335.787 332.048 333.389 331.343L289.787 318.508C278.395 315.154 267.003 311.801 255.611 308.447Z" fill="#8BD4DE"/>
<path fill-rule="evenodd" clip-rule="evenodd" d="M490.882 643.421C488.09 644.692 484.876 645.57 481.858 646.075C480.085 646.373 477.095 647.532 475.696 646.067C475.025 645.363 474.99 643.91 474.636 643.036C474.076 641.651 473.212 640.419 472.413 639.165C470.473 636.129 468.436 633.182 466.287 630.293C465.268 628.924 463.466 625.784 461.449 625.783C458.936 625.781 458.676 629.263 459.137 631.1C460.605 636.948 466.169 642.463 469.708 647.106C468.565 648.558 463.094 647.839 461.603 647.328C459.326 646.548 459.245 644.855 458.359 642.84C456.285 638.133 451.476 635.144 447.575 632.116C446.152 631.011 443.187 628.046 441.157 628.522C439.233 628.973 439.093 631.383 439.543 633.009C440.222 635.467 442.624 637.359 444.374 639.041C446.708 641.284 448.81 643.681 450.683 646.33C447.636 646.284 444.583 646.42 441.544 646.377C437.869 646.325 435.014 644.012 431.761 642.541C428.739 641.175 425.712 639.973 422.757 638.45C419.438 636.739 415.874 635.909 412.51 634.364C399.308 628.302 386.493 621.046 373.904 613.764C367.905 610.294 362.035 606.835 355.716 603.961C351.111 601.867 343.938 597.887 343.327 592.067C343.004 588.992 345.489 585.96 346.089 582.978C346.793 579.469 346.854 575.538 346.096 572.032C345.427 568.943 344.117 566.015 343.149 563.018C342.02 559.524 343.302 559.704 346.129 559.594C349.512 559.463 353.586 557.947 356.84 557.017C360.589 555.946 364.359 554.307 367.861 552.585C371.028 551.028 373.855 548.898 376.48 546.542C379.149 544.146 381.008 541.178 383.603 538.709C391.276 550.289 398.505 561.991 406.763 573.159C410.66 578.431 415.014 582.9 420.028 587.108C422.121 588.866 424.177 590.84 426.5 592.294C429.405 594.114 432.722 595.391 435.724 597.086C447.233 603.584 458.15 610.526 468.713 618.493C473.823 622.347 478.017 626.604 482.402 631.241C483.768 632.685 495.23 641.441 490.882 643.421ZM358.202 541.755C356.181 542.452 354.227 543.422 352.106 543.789C353.023 540.249 356.853 535.147 361.068 536.159C362.679 536.546 363.791 537.943 362.913 539.634C362.114 541.17 359.642 541.26 358.202 541.755ZM232.194 431.038C229.883 432.047 227.769 432.56 226.722 429.808C227.694 429.709 232.086 429.548 232.194 431.038ZM229.217 423.256C227.566 422.572 228.975 422.158 229.617 421.589C230.117 421.145 231.783 419.581 232.336 419.35C234.781 418.332 236.157 423.138 237.133 424.749C234.517 424.256 231.713 424.292 229.217 423.256ZM245.908 441.057C242.637 441.294 243.368 437.268 243.653 435.22C244.256 436.121 248.458 440.873 245.908 441.057ZM257.225 435.082C253.238 435.367 251.273 428.277 252.252 425.355C253.113 422.781 256.291 421.606 258.75 421.453C261.132 421.305 264.353 422.137 264.799 424.935C265.194 427.406 259.883 434.891 257.225 435.082ZM340.662 547.348C337.76 547.947 334.986 547.788 332.071 548.37C328.764 549.03 325.794 548.654 322.509 549.002C321.173 549.143 317.458 550.725 316.218 550.17C314.99 549.621 313.52 545.478 312.887 544.376C318.811 542.542 323.961 539.93 328.184 535.26C331.542 531.546 335.3 525.859 333.895 520.507C332.31 514.473 325.114 512.496 320.015 514.456C317.603 515.382 315.185 516.59 313.122 518.159C310.764 519.953 309.707 522.059 308.071 524.396C306.417 526.758 305.545 525.269 304.317 523.006C303.268 521.072 303.595 519.255 302.24 517.315C301.549 516.325 300.429 515.326 300.133 514.106C299.946 513.333 300.608 512.058 300.176 511.421C299.568 510.527 298.646 511.418 298.141 510.623C297.774 510.046 298.022 508.835 297.654 508.121C297.316 507.703 296.932 507.337 296.497 507.021C295.966 506.69 295.897 506.333 296.288 505.951C295.922 505.082 296.374 504.844 295.518 503.748C294.185 502.037 292.976 500.405 292.094 498.454C291.692 497.561 291.854 496.311 291.325 495.521C290.598 494.435 289.219 494.454 288.629 493.14C288.103 491.97 288.702 490.072 287.759 488.964C287.228 488.754 286.696 488.547 286.164 488.341C285.79 487.899 285.595 487.387 285.58 486.806C285.087 485.858 285.069 484.799 284.43 483.786C283.207 481.848 281.492 480.001 280.44 477.981C279.334 475.857 280.049 475.588 282.355 475.091C284.435 474.642 286.335 474.223 288.31 473.307C297.437 469.07 306.886 456.395 293.52 450.94C288.56 448.915 284.748 444.399 278.943 445.463C276.427 445.925 273.964 447.188 271.972 448.779C270.596 449.879 269.124 453.035 267.515 453.51C264.622 454.365 266.06 451.666 265.387 450.296C265.066 449.643 263.61 448.784 263.097 448.167C262.496 447.444 261.932 446.551 261.548 445.692C260.834 444.097 260.389 443.204 259.272 441.854C258.851 441.344 256.757 438.718 258.816 439.236C258.209 436.555 259.479 436.284 261.36 434.552C263.569 432.518 265.922 429.622 266.221 426.499C266.796 420.505 259.994 417.131 255.238 420.26C254.271 420.896 248.299 427.37 249.8 423.017C250.609 420.669 256.629 414.921 259.003 416.791C256.558 412.361 249.133 421.816 247.427 423.732C246.357 421.211 246.438 419.327 244.472 417.264C242.475 419.906 243.676 416.923 243.35 416.261C242.646 414.832 242.959 416.419 242.553 415.896C242.049 415.244 241.212 414.688 240.69 413.84C239.542 415.135 240.087 413.675 239.823 413.124C239.205 411.834 239.552 411.157 238.398 409.976C237.558 409.117 235.873 407.747 234.657 407.518C233.256 407.254 232.814 407.762 231.411 407.218C229.626 406.526 227.393 405.512 227.995 408.688C228.433 410.995 230.934 412.526 231.296 414.876C231.661 417.24 229.182 419.346 227.909 421.132C226.275 423.423 225.139 423.113 222.533 423.411C220.867 423.602 218.618 424.138 219.835 426.272C220.704 427.797 223.077 427.725 224.319 428.699C226.062 430.064 225.768 432.984 228.085 433.723C230.637 434.536 232.397 431.759 234.657 431.267C236.264 430.918 241.094 431.444 242.214 432.746C243.739 434.518 242.01 437.453 242.247 439.493C242.601 442.519 244.575 442.894 247.083 443.234C250.171 443.653 250.984 446.757 252.432 449.299C255.822 455.251 258.668 461.521 262.16 467.408C263.707 470.015 266.096 472.433 267.302 475.215C268.792 478.652 266.134 480.292 263.775 482.425C260.691 485.213 258.28 488.491 255.542 491.6C253.109 494.362 250.494 493.36 247.043 493.024C247.959 491.501 248.976 490.595 250.85 490.973C249.096 488.346 247.258 490.977 245.833 492.394C243.771 494.445 241.301 494.747 238.781 495.982C237.89 496.419 232.986 499.336 234.276 500.62C234.423 500.766 242.493 496.463 243.402 496.085C243.23 497.947 242.649 499.842 242.737 501.719C242.802 503.095 243.618 504.603 243.287 505.996C242.659 508.623 239.049 510.39 237.392 512.323C236.144 513.778 236.297 515.037 235.581 516.659C234.928 518.139 235.239 517.703 233.919 518.051C231.231 518.761 226.903 517.815 224.674 516.217C223.291 515.226 222.294 513.774 221.216 512.475C220.404 511.495 218.295 509.753 218.161 508.48C217.933 506.289 222.533 502.708 223.575 500.573C226.517 494.546 222.907 489.288 216.626 488.318C218.711 486.994 221.018 488.369 223.016 489.146C219.96 483.907 213.601 487.354 210.32 490.393C208.764 485.017 208.287 479.458 207.542 473.937C207.035 470.178 204.42 463.301 206.204 459.655C207.067 457.892 209.12 457.062 210.592 455.925C212.265 454.633 213.743 453.037 215.033 451.361C218.072 447.414 220.093 442.255 216.822 437.755C217.948 437.679 219.075 437.604 220.202 437.528C218.554 435.642 215.63 436.198 213.334 435.463C211.877 434.996 207.581 434.788 206.666 433.844C205.567 432.708 206.763 428.091 206.934 426.707C207.331 423.472 207.887 420.379 208.539 417.188C209.156 414.174 209.391 410.876 210.291 407.944C211.021 405.564 212.71 404.982 214.711 403.733C219.495 400.745 223.519 396.936 222.536 390.889C223.085 390.856 223.633 390.822 224.182 390.788C222.551 389.343 220.246 389.586 218.363 388.723C220.615 383.83 225.384 375.307 231.842 375.452C231.854 377.739 231.455 380.418 232.799 382.441C234.328 384.743 237.338 385.254 239.78 384.352C241.996 383.533 244.188 381.553 245.363 379.502C246.159 378.113 246.265 375.643 247.533 374.605C249.232 373.21 259.883 375.188 259.315 377.764C258.98 379.279 255.871 381.576 254.944 382.857C253.247 385.201 251.824 387.777 251.021 390.581C249.804 394.839 249.751 400.612 253.911 403.318C258.642 406.396 265.003 403.687 269.341 401.234C271.723 399.888 274.049 398.372 276.261 396.757C277.439 395.899 278.624 395.011 279.685 394.007C280.469 393.266 281.155 392.015 282.083 391.493C284.276 390.261 286.072 392.889 287.703 394.287C290.36 396.564 293.011 398.739 295.908 400.701C301.784 404.682 307.029 409.709 312.091 414.685C317.183 419.691 322.433 424.841 326.378 430.845C323.525 432.255 323.966 432.737 322.49 435.607C321.443 437.642 320.103 439.332 319.751 441.674C319.142 445.714 321.412 449.429 325.257 450.712C327.408 451.428 329.537 451.229 331.656 450.522C333.302 449.973 335.038 448.394 336.73 448.124C339.876 447.625 341.795 453.714 343.327 455.942C350.133 465.838 357.407 475.414 363.732 485.64C364.432 486.773 366.612 489.064 366.676 490.479C366.768 492.512 363.462 494.119 362.058 495.143C361.32 495.679 353.46 501.831 355.787 503.157C356.45 503.535 358.863 499.526 359.403 499.215C361.423 498.053 359.746 500.553 359.51 501.877C358.922 505.167 361.016 507.194 364.232 507.083C367.664 506.964 370.93 504.561 373.262 502.217C375.609 505.542 379.292 510.583 379.674 514.757C379.919 517.423 377.081 523.616 381.229 524.559C381.862 524.703 384.341 523.194 384.683 524.221C384.967 525.078 382.332 526.239 381.945 526.475C380.294 527.487 379.246 528.641 377.869 529.928C376.253 531.438 374.124 532.636 372.332 534.059C370.443 535.557 366.593 539.754 364.505 537.343C363.455 536.13 363.89 534.722 362.106 533.896C360.481 533.145 358.286 533.683 356.666 534.184C354.842 534.746 348.812 536.861 347.967 539.004C346.802 541.958 351.92 538.768 352.818 538.317C351.621 540.702 350.755 544.241 348.153 545.448C345.991 546.45 342.976 546.87 340.662 547.348ZM309.601 525.395C311.732 520.237 322.285 511.697 328.131 515.259C320.862 516.071 314.75 520.439 309.601 525.395ZM311.82 540.977C309.557 539.405 310.044 535.524 309.421 533.165C309.063 531.812 308.195 530.764 308.61 529.342C309.095 527.673 311.42 525.992 312.678 524.878C316.637 521.369 323.465 516.713 329.184 518.162C336.464 520.007 330.539 529.513 327.709 532.708C325.296 535.433 316.176 544.006 311.82 540.977ZM295.194 532.796C287.259 531.481 279.367 529.987 271.627 527.743C268.883 526.947 266.537 526.796 268.432 523.716C269.058 522.699 272.854 516.315 273.555 516.577C273.97 516.732 273.45 521.323 273.526 521.863C273.872 524.287 275.253 526.648 277.936 526.757C282.326 526.937 285.664 521.519 288.245 518.688C289.857 521.364 290.935 524.268 292.561 526.902C293.338 528.162 296.168 531.192 295.194 532.796ZM251.289 496.644C249.664 499.612 246.699 502.297 244.566 504.922C243.715 502.558 243.448 497.296 246.114 495.869C247.123 495.33 252.316 494.767 251.289 496.644ZM278.133 508.567C278.611 507.411 279.128 506.267 279.691 505.149C280.244 507.704 280.636 507.816 278.133 508.567ZM284.734 511.771C285.551 513.522 287.017 515.307 286.572 517.362C286.235 518.92 284.673 520.397 283.563 521.396C281.726 523.05 277.706 526.177 275.508 523.529C273.672 521.317 274.886 515.846 276.035 513.67C277.675 510.561 282.787 507.602 284.734 511.771ZM280.304 507.916C280.88 507.748 280.046 504.02 281.162 503.765C281.907 506.029 282.743 506.703 280.304 507.916ZM269.523 457.79C269.286 456.421 268.455 456.397 268.904 454.777C269.198 453.715 270.156 452.644 270.88 451.85C272.324 450.268 274.151 449.026 276.085 448.14C280.167 446.269 285.574 445.853 288.719 449.711C285.428 449.911 275.188 452.17 274.714 456.636C278.385 456.287 281.557 452.911 285.28 452.113C288.337 451.457 291.55 451.837 294.412 453.122C302.247 456.639 298.236 463.356 293.252 467.487C290.293 469.94 286.858 471.652 283.178 472.706C281.475 473.193 280.46 473.166 278.875 472.683C278.578 472.593 278.276 471.993 277.924 471.836C277.051 471.447 277.218 472.493 276.518 471.962C275.907 471.5 274.762 468.788 274.389 468.007C273.796 466.765 273.574 465.591 272.812 464.435C272.049 463.278 271.761 461.8 271.054 460.751C270.714 460.247 269.663 460.164 269.423 459.681C269.063 458.955 269.648 458.508 269.523 457.79ZM252.271 509.116C254.405 506.077 257.801 503.65 260.492 501.074C260.216 505.712 256.636 508.558 252.271 509.116ZM254.618 510.845C258.537 509.868 260.924 506.851 261.67 502.985C262.617 498.086 265.936 495.79 268.2 491.528C269.068 489.894 270.412 484.371 273.022 486.244C273.917 486.886 274.287 489.01 274.694 489.992C275.678 492.369 276.832 494.694 277.893 497.037C278.756 498.945 280.132 500.913 279.477 503.045C278.906 504.904 277.446 506.801 276.535 508.518C274.383 512.572 271.709 516.239 269.394 520.184C268.46 521.775 267.173 525.632 264.792 525.38C262.907 525.18 263.309 523.122 262.132 522.288C260.647 521.236 258.707 522.775 257.354 523.359C259.069 520.979 261.794 519.802 264.664 520.561C261.497 516.718 258.704 521.215 255.612 521.976C252.683 522.697 248.082 517.503 245.815 515.937C246.873 514.466 247.874 512.638 249.541 511.765C251.121 510.936 252.937 511.263 254.618 510.845ZM220.818 539.853C221.42 537.876 222.704 536.798 223.616 535.039C224.275 537.344 222.133 538.457 220.818 539.853ZM279.975 558.101C279.146 564.873 277.972 571.594 277.148 578.368C276.768 581.493 275.943 584.428 275.293 587.49C274.743 590.079 274.663 592.666 272.822 594.745C269.919 598.021 264.812 598.547 260.8 599.475C257.853 600.156 254.882 600.745 251.961 601.536C249.333 602.249 247.153 603.503 244.633 604.408C242.378 605.218 239.991 605.596 237.74 606.474C235.413 607.382 233.529 608.58 231.152 609.359C228.307 610.291 225.857 612.204 223.269 613.659C220.991 614.941 218.619 615.871 216.605 617.564C214.716 619.154 212.458 619.712 210.357 621.083C208.136 622.533 205.87 623.395 203.465 624.467C198.536 626.665 191.8 630.581 186.4 627.454C188.203 625.535 191.687 623.862 192.201 621.027C192.87 617.332 189.527 618.391 187.555 619.399C184.567 620.926 182.807 622.949 180.438 625.142C177.668 627.705 174.67 625.507 171.671 624.418C173.947 622.717 176.208 620.995 178.48 619.29C180.399 617.851 183.268 616.372 184.551 614.248C185.468 612.729 185.631 610.541 183.849 609.533C181.853 608.405 179.322 610.127 177.674 611.139C173.3 613.825 170.247 617.474 167.167 621.505C165.528 623.649 164.886 623.41 162.3 622.697C159.56 621.943 156.822 621.156 154.046 620.544C158.119 617.055 162.66 613.288 166.012 609.069C167.098 607.702 168.694 603.975 165.827 603.339C164.645 603.077 162.039 605.309 161.057 605.883C156.762 608.392 152.552 611.676 149.493 615.653C148.483 616.966 148.063 618.495 146.346 618.444C144.1 618.379 140.152 615.829 138.061 614.956C142.655 610.13 147.224 605.263 152.455 601.121C157.26 597.315 161.948 594.667 167.411 591.921C173.267 588.977 178.791 585.471 184.251 581.852C189.478 578.386 194.901 575.166 199.783 571.206C209.535 563.293 218.431 553.967 226.01 543.928C227.783 541.579 229.473 539.156 230.973 536.619C232.383 534.236 233.201 531.302 235.003 529.186C235.625 528.454 236.454 527.947 237.02 527.176C237.553 526.449 237.482 525.502 238.25 524.888C240.026 523.469 242.909 524.709 244.331 525.964C246.619 527.982 248.404 530.334 250.961 532.086C253.534 533.848 256.365 535.222 259.298 536.25C266.154 538.652 272.977 540.74 280.026 542.48C279.039 545.157 280.804 545.765 281.175 548.297C281.625 551.369 280.347 555.053 279.975 558.101ZM216.657 505.69C215.286 503.154 214.096 500.525 212.754 497.976C211.936 496.423 210.9 494.741 211.879 493.034C213.526 490.158 218.41 490.092 220.912 491.66C226.602 495.224 220.276 503.215 216.657 505.69ZM205.883 449.684C205.762 444.976 207.832 441.845 212.234 439.811C215.372 438.362 217.55 440.972 216.852 444.104C215.789 448.875 210.173 453.75 206.032 455.89C205.965 453.822 205.936 451.753 205.883 449.684ZM206.471 436.304C207.794 435.437 210.979 437.017 212.399 437.242C210.276 438.78 208.153 440.318 206.03 441.856C206.011 440.657 205.251 437.103 206.471 436.304ZM217.234 391.994C227.29 391.659 214.863 401.294 211.828 402.699C212.507 400.457 214.439 392.088 217.234 391.994ZM245.418 375.751C243.577 381.13 232.652 386.13 233.373 377.096C233.643 373.729 235.491 374.184 238.256 374.127C239.833 374.096 246.471 372.676 245.418 375.751ZM208.805 380.794C207.357 383.761 206.133 386.831 204.707 389.804C204.076 391.121 203.395 392.001 202.353 392.992C201.482 393.82 200.523 393.957 200.422 395.39C201.428 395.294 202.255 394.776 203.106 394.281C202.651 397.098 201.377 400.053 200.635 402.832C199.747 406.164 198.954 409.508 198.46 412.927C197.386 420.362 196.698 427.808 196.172 435.301C195.905 439.119 195.591 442.935 195.445 446.76C195.373 448.663 195.313 450.576 195.372 452.48C195.397 453.249 195.794 454.92 195.391 455.599C193.807 458.264 188.634 450.015 185.977 450.893C186.54 448.802 185.651 449.185 184.332 448.001C183.693 447.428 183.327 446.522 182.654 446C182.459 445.744 182.24 445.512 181.997 445.303C181.74 444.868 181.424 444.882 181.051 445.341C178.334 443.328 177.931 439.562 176.615 436.927C175.939 435.572 175.19 435.298 175.217 433.518C175.241 431.967 175.615 430.422 175.695 428.87C175.785 427.119 175.861 425.187 175.531 423.451C175.149 421.436 174.359 421.521 172.946 420.329C173.43 420.169 173.768 419.855 173.961 419.386C173.471 419.425 171.951 419.885 171.627 419.416C170.989 418.497 172.689 418.548 173.164 418.252C171.348 417.22 171.82 416.563 172.646 415.077C172.88 414.656 173.125 414.018 173.324 413.664C173.757 412.889 173.917 413.422 174.128 412.428C174.329 411.48 173.659 409.512 173.505 408.467C173.246 406.713 173.152 405.21 173.69 403.46C174.126 402.044 175.063 400.815 175.256 399.334C175.31 398.918 174.693 398.718 174.721 398.315C174.763 397.724 175.332 397.518 175.524 396.988C176.014 395.63 175.986 394.141 176.727 392.88C177.394 391.747 178.661 390.321 179.553 389.362C180.171 388.698 181.601 388.021 181.837 387.088C181.993 386.469 181.016 386.447 181.103 385.978C181.221 385.343 181.773 385.188 181.963 384.726C182.486 383.459 182.703 382.213 183.837 381.314C185.266 380.182 185.787 380.765 186.033 378.692C186.152 377.68 185.362 377.446 185.901 376.319C186.193 375.707 186.919 375.4 187.402 374.992C188.837 373.786 189.831 372.687 190.917 371.129C191.877 369.754 193.273 369.034 194.236 367.859C195.489 366.326 193.915 365.353 196.195 365.108C195.971 364.059 195.709 363.203 196.625 362.423C197.203 361.931 198.511 362.394 199.036 361.811C199.638 361.141 199.004 359.354 199.854 358.964C200.546 358.647 201.42 359.916 202.505 359.436C203.331 359.07 204.742 356.741 204.572 355.819C206.498 357.168 206.065 356.325 207.173 354.942C207.422 354.632 208.089 354.623 208.307 354.307C208.744 353.674 208.721 352.985 209.312 352.494C210.296 351.677 211.749 352.053 212.801 351.503C213.669 351.049 213.679 350.469 214.379 350.03C214.977 349.654 215.902 349.66 216.486 349.267C217.63 348.497 217.726 347.576 219.126 346.954C220.784 346.217 222.25 345.595 223.793 344.554C224.798 343.876 225.811 342.598 226.951 342.196C228.528 341.642 229.71 341.707 231.282 340.849C232.418 340.229 233.539 339.132 234.644 338.624C235.479 338.241 236.025 338.394 237.049 338.207C238.893 337.868 239.487 336.204 241.016 335.652C242.066 335.274 243.49 335.853 244.618 335.71C248.127 335.267 251.677 333.92 255.212 333.326C259.526 332.602 263.858 332.022 268.193 331.432C263.804 336.379 258.396 340.702 252.97 344.442C251.189 345.67 241.548 351.119 246.182 354.298C248.042 355.574 252.623 352.484 254.284 351.781C257.63 350.366 261.058 349.306 264.524 348.236C270.128 346.505 277.526 343.176 283.494 344.083C279.428 348.243 274.537 351.423 269.994 355.006C265.819 358.297 259.721 361.173 260.978 367.348C255.715 365.441 251.024 363.336 245.386 363.152C242.861 363.07 240.377 362.521 237.845 362.632C235.093 362.754 232.45 363.422 229.764 363.972C227.64 364.407 225.352 364.234 223.354 365.107C222.389 365.529 221.186 366.149 220.303 366.703C219.124 367.442 218.823 367.978 217.856 369.009C214.408 372.687 211.083 376.126 208.805 380.794ZM185.018 454.446C184.913 453.741 184.818 453.099 184.697 452.293C186.315 453.525 186.315 453.525 185.018 454.446ZM174.071 431.255C173.833 431.529 172.935 431.537 172.701 431.258C172.409 430.91 173.366 429.761 173.526 429.512C173.837 429.804 174.529 430.727 174.071 431.255ZM171.133 422.916C171.437 422.097 171.742 421.28 172.046 420.461C172.254 421.267 173.432 422.251 173.391 422.997C173.364 423.49 171.371 423.049 171.133 422.916ZM171.755 424.14C173.603 425.639 173.668 427.2 173.519 429.46C171.236 428.444 171.785 426.179 171.755 424.14ZM214.174 338.501C213.926 339.024 212.927 340.631 212.418 339.389C212.255 338.992 213.749 338.617 214.174 338.501ZM213.779 336.605C214.306 336.21 215.236 336.855 215.819 336.552C216.228 336.339 216.124 336.072 216.319 335.942C216.357 335.916 216.98 334.896 217.218 334.674C217.637 334.285 218.489 334.099 218.985 333.758C220.374 332.807 221.231 331.461 222.175 330.1C223.301 328.474 223.628 328.305 225.262 327.669C226.388 327.232 227.283 326.648 228.243 325.81C229.35 324.846 229.346 324.078 230.281 322.996C230.743 322.463 231.339 322.449 231.858 322.033C232.48 321.536 232.842 320.79 233.422 320.284C233.672 320.064 234.405 320.136 234.562 319.943C234.763 319.698 234.996 318.665 235.179 318.488C235.455 318.948 235.732 319.409 236.007 319.869C237.454 317.785 238.529 316.052 240.745 314.787C243.071 313.458 245.164 311.387 247.549 310.227C248.085 309.966 249.131 309.937 249.561 309.517C250.288 308.808 249.783 308.065 250.322 307.454C250.933 306.763 251.929 307.468 252.648 307.214C253.558 306.893 253.917 305.731 255.028 305.971C250.928 310.018 250.343 316.88 249.641 322.365C249.337 324.729 250.709 326.069 248.361 327.596C246.364 328.895 243.781 328.2 241.491 328.961C238.615 329.915 235.6 330.278 232.684 331.071C229.666 331.89 227.144 333.592 224.221 334.597C221.643 335.482 219.806 336.918 217.414 338.088C216.526 338.523 215.154 339.146 214.207 338.431C213.614 337.983 212.89 337.271 213.779 336.605ZM258.917 303.717C259.135 303.107 262.441 301.768 263.266 301.307C264.505 300.613 266.41 298.81 267.638 299.72C268.256 297.945 270.2 296.092 271.788 295.858C273.55 295.598 276.642 294.397 278.457 293.262C278.987 292.93 279.201 292.391 279.817 292.092C280.888 291.57 281.863 292.007 282.918 291.257C283.079 291.142 284.638 289.024 284.69 289.051C284.737 289.299 284.777 289.549 284.81 289.8C285.888 289.326 286.844 288.959 287.551 288.29C287.711 288.138 286.81 287.615 287.138 287.315C287.538 286.948 288.308 287.477 288.71 287.131C287.042 292.734 287.215 300.172 292.7 303.629C285.792 303.708 279.302 300.985 272.261 301.584C268.891 301.871 265.429 302.543 262.273 303.786C260.339 304.549 257.667 307.691 255.979 305.874C256.799 304.965 257.968 304.464 258.917 303.717ZM293.616 290.508C296.464 287.604 300.459 286.734 304.262 288.244C308.714 290.011 306.489 293.045 305.469 296.555C304.328 294.476 301.647 292.263 299.217 291.967C295.773 291.548 296.811 294.574 298.788 295.815C300.586 296.942 303.794 297.519 304.985 299.368C306.144 301.165 305.389 303.847 305.42 305.838C304.413 305.585 303.407 305.333 302.4 305.081C303.68 300.567 299.929 299.978 296.533 298.339C293.101 296.685 290.376 293.814 293.616 290.508ZM306.114 280.305L305.722 284.571C304.375 283.615 303.028 282.659 301.68 281.703C303.159 281.238 304.637 280.771 306.114 280.305ZM314.411 315.503C319.041 317.263 323.631 319.095 328.032 321.329C329.63 322.141 331.425 322.548 332.982 323.44C334.465 324.289 334.704 324.239 334.028 325.552C332.134 329.231 328.543 328.214 325.398 327.317C320.474 325.912 315.687 324.163 310.852 322.486C306.125 320.847 301.26 319.6 296.634 317.672C291.887 315.694 287.257 313.808 282.323 312.326C280.883 311.894 269.381 309.692 269.581 308.478C276.975 308.233 284.411 309.908 291.741 310.722C299.359 311.568 307.199 312.762 314.411 315.503ZM309.327 300.064C309.66 297.44 309.94 294.802 310.505 292.217C312.43 295.133 314.317 296.133 317.291 293.866C320.137 291.694 320.839 290.486 323.955 293.091C326.656 295.351 329.392 295.525 332.614 294.091C334.579 293.216 337.977 289.192 339.859 290.272C340.755 290.787 341.284 292.561 342.171 293.281C343.284 294.183 345.056 294.906 346.409 295.347C349.606 296.385 351.744 294.459 354 292.395C357.272 289.404 357.01 291.301 359.554 293.844C362.391 296.68 365.073 295.691 368.054 293.796C369.287 298.964 369.418 304.49 369.414 309.782C369.412 311.569 369.784 314.142 368.091 315.241C366.897 316.016 364.534 315.821 363.149 316.178C358.201 317.457 353.373 319.485 349.077 322.264C347.403 323.346 345.904 324.726 343.798 324.237C341.791 323.771 339.975 321.865 338.445 320.573C336.785 319.174 335.119 317.605 333.109 316.718C331.933 316.199 329.975 316.155 328.981 315.317C327.132 313.759 329.786 310.401 329.515 307.948C329.311 306.085 328.619 302.176 326.025 303.003C322.165 304.234 323.754 310.662 325.617 312.802C321.508 311.648 316.984 310.105 313.082 308.325C310.068 306.95 308.92 303.265 309.327 300.064ZM378.212 319.71C387.012 318.117 395.187 317.262 404.152 317.689C408.121 317.878 411.934 318.374 415.838 318.79C418.085 319.03 419.967 317.368 418.364 315.09C416.145 311.936 408.458 312.306 405.109 311.848C396.133 310.62 387.779 310.848 378.972 313.011C380.029 311.423 382.216 311.417 383.781 310.695C385.701 309.809 387.101 308.178 388.058 306.31C390.549 301.452 388.949 296.489 387.255 291.664C391.313 293.197 395.391 296.088 399.517 297.123C400.383 297.34 400.953 297.31 401.699 297.708C402.158 297.951 402.245 298.649 402.822 298.855C403.1 298.956 403.845 298.372 404.159 298.496C405.4 298.983 404.384 298.981 405.141 299.585C405.742 300.065 405.64 300.597 406.832 300.514C407.36 300.478 407.998 299.722 408.275 299.727C408.626 299.732 408.585 299.296 409.108 299.473C410.059 299.795 409.857 301.049 410.123 301.701C410.408 302.396 409.836 303.228 410.852 303.691C411.61 304.039 411.884 303.223 412.545 303.348C412.946 303.424 413.732 304.094 414.057 304.486C415.102 305.752 416.562 307.179 418.041 308.081C417.903 307.911 418.819 307.626 418.616 307.518C418.48 307.446 419.385 307.762 419.371 307.757C420.247 308.049 420.592 309.478 420.997 310.027C421.743 311.033 422.944 312.135 424.071 312.656C426.02 313.558 426.036 312.708 426.549 315.192C428.19 313.062 428.389 316.916 430.126 317.507C431.025 317.813 430.955 317.406 431.746 317.972C432.289 318.361 432.577 319.416 432.965 319.95C433.216 319.259 433.466 318.568 433.716 317.878C434.77 320.445 437.175 324.586 440.266 324.18C440.205 324.847 439.859 325.617 440.319 326.235C440.639 326.668 441.26 326.273 441.518 326.531C441.744 326.756 442.254 327.616 442.429 327.767C442.773 328.063 443.424 328.318 443.72 328.609C443.981 328.865 444.021 329.97 444.297 330.395C444.817 331.193 445.82 331.44 446.218 332.376C446.409 331.51 446.599 330.643 446.789 329.777C447.674 330.612 447.703 331.197 447.837 332.306C448.028 333.885 447.619 333.48 448.618 334.236C449.599 334.979 450.148 334.96 450.999 336.167C451.833 337.35 451.78 338.024 453.233 337.018C453.407 337.884 453.388 338.98 453.998 339.691C454.459 340.228 456.552 340.452 456.646 341.623C453.018 337.893 455.14 343.229 456.647 341.632C456.762 343.509 458.049 344.237 459.462 345.705C460.78 347.071 461.022 347.005 461.321 349.115C461.314 349.068 462.002 349.595 462.046 349.692C460.634 349.757 462.65 351.537 462.989 351.86C463.236 352.095 463.63 351.628 464.041 352.01C464.511 352.448 464.843 353.37 465.206 353.942C466.19 355.492 466.903 356.811 467.971 358.098C469.122 359.486 469.592 361.146 470.674 362.743C471.874 364.517 472.431 366.476 473.397 368.369C474.315 370.169 475.616 371.669 476.717 373.343C478.473 376.006 478.647 381.513 482.329 382.016C482.092 382.221 482.238 383.936 482.245 384.251C482.279 385.8 482.027 387.262 482.798 388.737C483.15 387.174 483.915 387.864 484.552 388.765C485.611 390.263 484.601 389.813 484.535 391.221C484.455 392.927 484.767 391.632 485.273 393.177C485.669 394.388 485.875 395.169 486.026 396.484C483.923 396.448 483.125 394.635 482.506 392.894C482.248 392.166 482.241 391.009 481.721 390.409C481.166 389.77 480.335 389.643 479.771 388.935C478.686 387.575 478.345 385.586 477.044 384.238C475.573 382.716 475.279 382.036 474.11 380.274C472.817 378.324 470.918 376.858 469.548 374.961C468.175 373.06 468.212 374.028 466.344 373.207C464.358 372.332 461.643 365.518 458.831 367.767C459.084 366.141 456.795 364.366 455.622 363.654C455.114 363.346 454.474 363.517 453.978 363.082C453.44 362.609 453.473 361.802 452.938 361.246C452.938 361.246 452.026 361.377 451.854 361.267C451.504 361.044 451.562 360.378 451.257 360.128C450.414 359.434 449.4 358.695 448.493 358.086C446.288 356.605 444.38 354.861 442.28 353.133C440.481 351.652 438.375 349.09 436.221 348.192C434.339 347.408 433.094 347.593 431.618 346.245C430.815 345.512 431.089 345.318 429.739 344.779C428.452 344.266 427.692 344.391 427.122 342.911C426.125 340.32 427.342 335.572 427.36 332.777C427.379 329.811 427.357 326.768 426.86 323.834C426.271 320.366 425.245 318.484 421.575 318.93C414.303 319.815 407.125 320.632 399.838 321.321C385.318 322.694 370.882 325.837 356.562 328.48C355.472 328.682 349.417 329.473 350.912 326.501C351.601 325.129 355.403 324.964 356.7 324.638C363.823 322.85 370.98 321.018 378.212 319.71ZM376.395 313.186C375.316 313.485 374.238 313.784 373.159 314.083L373.427 311.163C374.417 311.837 375.405 312.511 376.395 313.186ZM373.485 297.323C374.322 298.157 376.328 296.541 377.131 296.252C378.503 295.759 380.226 295.389 381.684 295.66C384.371 296.16 386.105 299.042 385.358 301.719C384.094 306.249 377.374 307.795 373.614 309.249C373.649 307.603 373.305 305.587 374.572 304.284C375.672 303.153 377.578 303.428 378.609 302.211C381.203 299.153 375.019 298.25 373.39 300.724C372.995 299.003 372.601 297.283 372.207 295.562C373.549 295.47 372.851 296.691 373.485 297.323ZM380.728 288.919C379.357 289.636 377.986 290.353 376.615 291.071C376.243 288.09 378.463 287.919 380.728 288.919ZM489.243 401.951C487.474 402.601 487.229 400.614 486.019 400.412C487.54 399.66 487.54 399.66 489.243 401.951ZM492.222 445.113C492.175 447.931 491.75 450.744 491.863 453.566C491.95 455.712 492.62 457.768 492.514 459.92C492.28 464.633 490.268 469.26 486.776 472.392C483.472 475.354 478.917 477.737 474.735 478.711C472.852 479.149 470.819 480.329 468.998 480.661C466.983 481.03 465.229 479.632 463.409 481.655C463.19 472.192 464.879 462.49 465.66 453.065C466.444 443.619 467.413 434.188 466.688 424.698C466.043 416.245 464.122 406.622 459.623 399.321C457.795 396.356 455.44 393.844 452.932 391.463C451.63 390.228 450.335 388.916 448.853 387.897C446.571 386.327 444.506 386.312 441.926 385.677C438.234 384.768 434.797 383.969 430.943 384.665C427.355 385.314 423.401 386.065 420.11 387.479C416.832 388.888 413.144 389.241 409.764 390.458C407.465 391.287 402.567 394.327 400.18 393.461C397.87 392.623 394.739 388.234 393.395 386.273C391.677 383.768 390.327 380.926 388.843 378.266C388.322 377.332 387.221 375.859 387.168 374.72C387.076 372.742 387.793 373.455 389.622 373.854C394.325 374.878 398.715 376.203 403.133 378.156C405.332 379.127 409.487 382.596 411.922 380.996C415.64 378.555 410.818 373.267 409.039 371.476C406.007 368.422 402.376 366.021 399.1 363.25C395.619 360.307 390.955 357.08 388.927 352.873C395.724 355.633 402.486 358.694 409.023 362.035C412.015 363.564 414.964 365.158 417.728 367.073C419.282 368.148 422.362 370.948 424.443 369.953C428.967 367.791 419.811 359.342 418.532 357.673C416.543 355.079 414.597 352.512 412.37 350.118C410.867 348.502 408.39 347.228 407.827 345.006C410.452 346.262 412.47 348.417 414.892 349.984C416.16 350.805 417.339 351.321 418.79 351.676C420.338 352.055 420.501 352.325 421.679 353.073C422.596 353.657 423.524 354.408 424.574 354.847C425.321 355.16 426.662 355.331 427.294 355.837C427.593 356.365 427.903 356.886 428.226 357.399C428.625 357.561 429.016 357.74 429.4 357.938C429.947 358.533 430.233 359.307 430.762 359.916C434.606 364.342 439.976 367.765 444.39 371.59C448.566 375.208 453.043 378.548 457.016 382.44C461.587 386.919 466.317 391.715 470.077 396.919C472.202 399.859 473.871 403.121 475.589 406.312C476.834 408.622 478.768 410.626 479.81 412.984C482.083 418.126 483.856 423.618 486.344 428.702C488.879 433.881 492.321 439.118 492.222 445.113ZM449.47 469.501C450.596 466.196 455.551 462.691 458.623 461.484C456.805 465.029 452.633 467.16 449.47 469.501ZM455.956 482.046C452.971 487.036 441.911 486.563 444.117 478.962C445.197 475.239 448.517 473.213 451.411 470.988C452.749 469.961 456.144 466.148 457.991 466.996C457.63 469.939 457.185 472.887 456.92 475.84C456.742 477.811 457.012 480.279 455.956 482.046ZM458.326 421.407C459.13 423.804 459.965 425.817 457.892 427.691C456.957 428.536 454 430.297 452.788 429.724C448.899 427.886 457.147 422.335 458.326 421.407ZM435.878 398.583C436.851 398.624 437.778 398.861 438.741 398.895C439.701 398.928 439.817 398.768 440.69 398.975C440.771 399.121 440.851 399.267 440.932 399.413C440.968 400.342 441.437 400.488 442.338 399.852C443.474 400.225 444.213 400.472 445.265 401.212C442.069 403.098 438.19 405.274 434.451 405.648C428.54 406.237 430.881 398.376 435.878 398.583ZM342.391 438.879C341.677 440.041 340.227 436.823 339.85 436.213C340.65 436.289 343.113 437.707 342.391 438.879ZM391.984 411.294C396.738 409.081 402.308 407.273 407.333 405.77C407.804 409.989 403.159 414.924 400.34 417.505C398.061 419.593 395.349 421.724 392.423 422.768C389.259 423.897 386.003 422.948 386.518 418.967C386.706 417.511 387.252 415.194 387.965 413.916C388.884 412.269 390.354 412.052 391.984 411.294ZM337.948 330.12C338.622 330.146 346.001 329.906 345.879 330.817C345.511 333.555 338.632 330.707 337.948 330.12ZM281.505 378.172C285.797 373.758 292.49 369.193 293.196 362.508C294.237 352.67 282.94 356.529 277.45 356.408C280.596 353.833 296.186 343.264 288.008 338.176C285.657 336.713 282.046 337.567 279.515 337.967C275.026 338.676 270.767 340.249 266.333 341.199C269.715 338.195 275.379 334.959 275.666 329.94C276.013 323.83 270.919 324.819 266.549 325.295C264.869 325.478 257.237 327.713 256.038 325.574C255.599 324.791 256.505 323.938 256.738 323.301C257.151 322.175 257.094 321.762 257.213 320.582C257.453 318.201 259.306 315.293 258.228 312.952C257.889 313.427 257.59 313.926 257.331 314.45C257.027 313.12 257.437 311.779 257.133 310.448C267.584 314.25 278.336 316.821 288.891 320.225C294.234 321.949 299.178 324.502 304.621 325.964C310.11 327.438 315.457 329.398 320.961 330.83C325.982 332.136 330.74 333.962 335.692 335.488C340.519 336.976 345.767 335.256 350.672 334.604C361.657 333.144 372.644 331.622 383.637 330.238C396.322 328.64 409.47 327.497 421.796 323.972C421.452 330.237 421.374 336.515 421.56 342.789C416.538 339.774 409.042 335.751 403.319 339.713C401.029 341.298 400.089 344.329 400.687 347.041C401.338 349.995 404.016 351.598 405.666 353.934C400.176 351.933 386.61 340.274 383.075 350.38C380.577 357.518 389.04 363.109 393.011 367.65C388.769 366.377 383.305 362.332 380.253 367.68C377.616 372.304 379.772 377.825 382.11 382.078C383.376 384.383 384.838 386.577 386.203 388.823C386.925 390.012 387.626 391.213 388.393 392.373C389.162 393.536 390.696 394.825 391.198 396.045C392.208 398.504 389.722 398.407 387.722 399.065C385.224 399.887 382.999 401.459 380.674 402.659C375.349 405.405 370.679 407.982 364.643 408.437C358.429 408.906 352.437 409.444 346.264 410.341C340.111 411.236 335.069 412.179 329.094 409.667C326.37 408.523 324.158 407.525 321.168 407.399C318.028 407.267 316.217 406.926 313.828 404.726C303.548 395.258 292.184 387.204 281.505 378.172ZM262.354 367.808C266.825 366.063 271.325 364.311 275.908 362.885C279.702 361.703 285.413 360.452 289.349 361.515C287.953 364.324 285.676 366.518 283.272 368.452C281.146 370.163 278.445 372.794 275.962 373.891C273.707 374.886 271.389 372.736 269.348 371.731C267.106 370.627 263.946 369.907 262.354 367.808ZM262.425 378.812C264.636 378.128 268.935 381.565 270.8 382.531C274.464 384.431 278.143 386.401 281.274 389.14C276.74 393.511 271.702 397.421 265.91 399.947C262.1 401.611 255.777 403.327 252.694 399.334C248.821 394.317 254.848 385.449 258.252 381.804C258.291 382.488 258.33 383.171 258.369 383.856C259.484 382.384 260.505 379.406 262.425 378.812ZM336.817 427.244C334.109 427.549 333.254 426.952 331.689 424.728C330.632 423.225 329.6 421.671 328.379 420.293C327.132 418.887 324.047 415.489 328.175 417.675C331.938 419.666 335.214 420.798 339.576 420.586C344.562 420.344 349.343 418.693 354.292 418.104C351.416 420.191 348.558 422.303 345.678 424.383C342.636 426.58 340.464 426.832 336.817 427.244ZM335.688 446.169C329.462 450.017 317.79 448.398 322.627 439.069C323.362 437.652 324.328 436.345 325.413 435.182C325.775 434.794 326.43 433.981 326.917 433.744C328.277 433.082 327.929 432.952 329.045 434.385C330.009 435.621 337.502 445.681 335.688 446.169ZM335.516 429.123C336.065 429 338.432 427.906 338.877 428.682C339.328 429.468 334.69 431.583 335.516 429.123ZM371.689 500.578C370.09 503.607 359.197 507.156 361.733 500.984C362.857 498.25 363.868 496.195 367.147 496.298C369.04 496.359 373.097 497.911 371.689 500.578ZM394.41 459.636C396.367 457.274 402.375 454.407 404.459 458.417C405.462 460.349 402.535 461.004 400.859 460.369C399.96 460.027 399.256 459.398 398.256 459.258C396.971 459.079 395.617 459.977 394.41 459.636ZM398.749 462.594C397.467 463.676 389.845 468.984 388.785 467.947C391.4 464.845 394.393 461.388 398.749 462.594ZM381.618 522.156C379.15 522.058 380.719 518.447 381.094 516.979C381.592 518.076 384.36 522.267 381.618 522.156ZM388.471 516.079C387.808 514.578 385.863 512.249 386.515 510.462C387.015 509.097 390.528 507.539 391.853 508.479C393.612 509.728 390.273 516.493 388.471 516.079ZM448.103 506.813C446.717 510.358 445.715 509.311 442.357 509.697C438.988 510.085 436.443 512.69 433.395 513.924C434.604 511.869 435.472 509.306 437.324 507.724C437.753 507.358 440.223 506.795 438.943 505.728C437.824 504.795 435.864 507.278 435.285 507.951C432.438 511.261 430.276 515.432 428.445 519.381C427.545 521.321 426.784 523.312 426.251 525.389C425.776 527.24 425.92 529.24 425.444 531.041C424.678 533.943 420.702 533.571 418.241 534.098C416.014 534.576 413.791 535.113 411.511 535.265C409.534 535.397 407.567 534.614 405.645 534.818C403.563 535.037 402.533 536.169 400.235 535.667C398.362 535.258 396.671 534.207 394.76 533.933C392.971 533.676 391.122 534.128 389.383 533.445C387.629 532.754 387.734 532.564 388.308 530.819C388.52 531.326 388.732 531.832 388.945 532.338C389.715 531.84 390.372 530.158 390.886 529.388C391.685 528.196 392.281 527.815 392.172 526.222C392.012 523.87 390.093 522.021 389.826 519.773C389.547 517.427 391.406 515.711 392.579 513.89C394.182 511.397 394.343 509.447 393.452 506.62C394.291 506.933 395.131 507.246 395.971 507.559C395.029 504.863 390.931 505.52 388.854 506.089C387.811 506.375 386.073 507.73 384.992 507.586C383.505 507.388 382.91 505.336 382.369 504.186C380.804 500.857 378.973 497.542 377.049 494.405C376.52 493.542 375.777 492.948 376.069 492.052C376.319 491.293 378.149 490.359 378.754 489.934C381.023 488.346 383.793 487.613 385.942 485.917C389.191 483.356 392.823 481.648 396.134 479.149C399.583 476.546 403.107 474.19 406.675 471.76C410.289 469.299 413.5 466.298 417.092 463.806C417.811 465.468 418.964 471.28 420.837 471.903C423.022 472.63 423.2 469.963 423.237 468.35C423.288 466.053 422.235 463.714 422.296 461.522C422.36 459.179 424.679 458.354 426.481 457.17C429.265 455.34 435.437 451.158 432.712 446.956C430.365 443.336 421.135 448.939 418.576 450.645C416.401 452.095 414.701 453.432 412.303 454.509C410.617 455.266 407.607 458.515 405.738 458.006C403.515 457.401 402.861 454.828 400.09 454.641C397.383 454.458 394.909 456.195 393.053 458C388.859 462.08 387.011 467.906 383.134 472.208C381.224 474.329 378.844 476.001 376.8 477.986C374.556 480.163 373.874 482.856 371.663 484.985C366.653 476.752 361.093 468.878 355.749 460.867C353.079 456.866 350.477 452.827 347.877 448.781C346.902 447.265 345.779 445.821 344.904 444.243C343.706 442.081 344.105 440.478 343.769 438.164C343.621 437.139 342.602 435.829 342.992 434.901C343.518 433.654 346.464 432.922 347.542 432.496C351.942 430.755 356 428.438 360.161 426.193C367.864 422.035 375.624 418.189 383.724 414.786C383.426 416.563 382.1 418.305 382.711 420.176C383.167 419.179 384.163 414.632 385.549 414.568C385.284 414.58 384.96 420.465 385.095 421.323C385.496 423.883 387.171 425.77 389.795 426.008C394.791 426.462 399.771 421.422 402.876 418.065C404.978 415.792 407.044 413.112 407.987 410.102C408.836 407.401 408.359 405.418 411.333 404.293C417.437 401.987 423.539 400.218 429.924 399.302C429.395 401.987 428.307 405.251 430.574 407.44C433.076 409.857 436.786 408.281 439.459 407.104C442.107 405.938 446.346 402.44 449.2 403.854C452.007 405.245 453.694 409.119 455.097 411.72C456.334 414.012 457.753 415.716 455.87 417.954C453.76 420.461 452.307 422.967 450.545 425.743C449.869 426.81 449.254 427.489 449.554 428.678C449.651 429.065 450.942 431.432 451.319 431.791C453.723 434.075 457.577 430.55 459.562 429.263C459.633 435.646 459.2 441.952 458.879 448.317C458.645 452.979 460.008 457.724 455.915 460.75C451.824 463.775 448.349 466.952 445.623 471.321C444.167 473.656 442.832 476.068 441.28 478.342C440.243 479.861 438.151 482.033 439.125 484.035C440.442 482.994 440.965 481.268 442.094 480.06C442.449 482.83 442.781 485.896 445.52 487.323C448.671 488.963 452.135 486.992 455.151 486.002C453.445 493.148 450.769 499.993 448.103 506.813ZM443.99 514.818C441.299 519.438 438.734 525.076 434.258 528.235C433.275 528.929 429.123 531.607 427.698 530.952C426.488 530.395 427.41 527.916 427.728 526.846C429.343 521.416 431.576 518.118 436.356 515.018C438.334 513.735 440.873 512.096 443.284 511.967C445.879 511.828 445.024 513.042 443.99 514.818ZM496.781 635.855C491.691 627.305 484.031 620.3 476.804 613.545C473.53 610.486 469.835 608.07 466.525 605.006C462.783 601.542 458.968 598.181 454.672 595.427C446.529 590.204 437.487 586.236 429.898 580.259C426.198 577.345 422.119 574.479 418.683 571.277C417.173 569.87 415.885 568.133 414.548 566.56C413.307 565.098 410.556 562.884 410.193 560.887C412.497 560.733 413.992 558.639 416.039 558.61C416.713 558.599 420.792 560.122 420.408 558.021C421.928 558.131 422.107 558.126 423.409 557.915C423.948 557.827 424.552 558.105 425.102 557.967C425.943 557.756 426.574 556.973 427.426 556.733C428.032 556.561 430.179 557.027 430.534 556.776C431.504 556.089 430.543 556.065 430.096 555.046C431.847 555.171 432.964 556.177 434.802 555.402C435.362 555.166 435.874 554.546 436.422 554.252C437.395 553.731 437.639 554.71 438.383 553.504C438.809 555.309 438.837 554.824 440.3 554.447C441.757 554.072 442.809 553.802 444.427 553.83C448.291 553.898 452.098 554.742 455.941 554.839C457.347 554.874 458.57 554.671 459.941 554.99C461.148 555.271 460.701 556.092 461.823 555.037C462.084 554.791 461.388 553.983 461.789 553.634C461.966 553.479 462.481 553.65 462.689 553.581C464.546 552.97 464.453 554.068 464.638 555.529C465.708 555.383 466.797 555.264 467.763 554.733C467.341 554.275 466.615 553.744 467.128 553.032C468.585 553.756 469.597 553.586 468.688 555.183C470.161 555.837 470.505 555.205 471.883 555.193C472.698 555.187 473.778 555.802 474.51 555.217C475.31 554.58 474.222 553.696 475.627 553.217C475.891 553.386 476.076 553.62 476.183 553.919C476.891 554.212 476.734 554.488 475.711 554.748C478.235 556.392 477.755 554.782 479.02 553.252C479.312 552.899 480.571 551.838 481.044 552.456C481.761 553.392 480.111 553.508 480.381 554.396C480.848 555.936 483.13 554.243 483.846 553.555C484.387 553.036 484.687 551.969 485.253 551.597C486.04 551.079 487.011 552.091 487.943 552.018C492.202 551.685 496.682 546.391 493.875 542.282C493.12 541.178 492.384 541.311 491.432 540.567C490.491 539.833 490.032 538.675 489.314 537.686C487.674 535.43 485.575 533.655 483.107 532.41C477.381 529.523 471.137 527.216 465.016 525.369C462.18 524.514 459.187 523.337 456.23 523.055C454.487 522.889 451.739 523.999 450.17 523.186C447.121 521.607 452.368 515.549 453.329 513.521C456.15 507.562 458.456 501.142 460.168 494.765C460.503 493.517 460.57 491.864 461.135 490.699C461.783 489.36 461.877 489.567 463.002 489.563C465.034 489.553 467.137 490.832 469.267 490.668C471.628 490.487 474.121 490.921 476.534 490.425C477.642 490.197 478.675 489.933 479.469 489.085C479.719 488.819 479.493 488.544 479.653 488.357C479.703 488.297 480.585 487.503 480.616 487.456C480.649 487.004 480.729 486.56 480.856 486.126C481.606 486.885 481.074 488.273 482.441 488.439C482.825 486.942 482.856 486.635 483.925 485.876C483.844 485.934 484.73 485.311 484.618 485.375C484.692 485.11 484.814 484.866 484.983 484.646C485.467 484.466 485.967 484.393 486.483 484.43C487.656 483.425 487.266 482.79 487.403 481.296C488.225 481.832 489.047 482.369 489.87 482.905C490.486 478.5 493.382 476.337 495.488 472.924C496.386 471.47 497.267 470.35 497.617 468.525C497.819 467.471 497.633 466.507 498.162 465.547C498.642 464.676 499.574 464.273 500.035 463.318C500.943 461.44 500.629 458.899 500.855 456.878C501.169 454.077 501.704 451.305 502.054 448.508C502.739 443.017 502.71 437.303 502.394 431.779C502.242 429.137 501.821 426.547 501.544 423.92C501.316 421.761 500.488 419.676 500.308 417.671C500.233 416.837 500.533 416.125 500.371 415.196C500.158 413.974 499.726 412.751 499.432 411.543C498.747 408.721 498.072 405.905 497.265 403.114C495.702 397.706 493.777 392.42 491.976 387.089C490.244 381.963 488.9 376.722 486.493 371.858C484.122 367.068 481.529 362.332 478.856 357.708C476.071 352.891 472.382 348.627 469.697 343.779C464.657 334.675 457.178 326.85 449.211 320.214C432.771 306.519 414.914 292.706 394.255 286.548C391.142 285.62 387.97 284.878 384.747 284.483C382.746 284.238 379.335 284.892 377.499 284.023C375.444 283.05 375.86 280.662 375.502 278.722C375.04 276.228 373.643 274.488 372.048 272.601C370.368 270.616 368.888 268.343 366.7 266.89C364.482 265.419 361.773 264.686 359.224 264.059C356.948 263.498 353.472 263.476 351.457 262.257C349.622 261.147 350.659 260.278 352.384 261.244C352.589 260.457 352.743 259.952 353.308 259.383C353.591 259.098 354.837 258.78 354.892 258.493C354.958 258.157 354.036 257.093 353.931 256.641C353.707 255.669 354.004 254.382 354.454 253.534C356.117 255.335 356.576 256.105 358.742 254.75C359.657 254.177 359.946 253.914 360.966 253.68C361.243 253.616 361.819 253.952 362.068 253.819C363.017 253.313 362.181 253.372 362.671 252.712C362.547 252.879 363.47 251.087 363.398 251.474C363.581 250.489 363.844 250.823 363.362 249.545C362.416 247.044 359.458 246.657 361.221 244.08C361.914 243.066 362.428 243.224 362.739 241.686C362.906 240.859 362.883 239.89 362.957 239.039C363.11 237.3 363.547 236.115 362.012 235.072C360.537 234.07 359.018 234.864 358.582 232.691C358.125 230.411 359.052 227.636 356.811 225.887C355.172 224.609 352.573 225.312 350.7 224.583C348.824 223.852 347.235 221.693 345.139 223.028C343.65 223.977 342.668 226.571 340.183 224.875C339.061 224.109 338.612 221.863 337.979 220.566C336.971 218.499 336.084 217.702 334.083 219.424C332.849 220.487 330.212 223.109 329.918 224.718C329.594 226.493 331.075 227.393 329.031 228.263C326.998 229.129 325.983 228.25 324.214 230.237C322.46 232.208 323.559 233.498 321.566 235.354C319.075 237.673 317.773 238.652 317.49 242.076C317.295 244.425 315.052 246.251 316.047 248.594C317.162 251.22 320.991 252.639 323.277 253.886C322.347 255.289 321.169 256.131 321.956 257.744C322.67 259.205 325.017 259.723 326.512 259.616C327.517 259.544 327.539 259.698 328.383 259.072C328.936 258.663 328.288 258.021 329.363 257.869C330.506 257.706 332.09 260.09 332.765 260.714C330.946 262.679 326.451 262.642 323.993 263.489C322.495 264.006 321.085 264.848 319.567 265.293C318.19 265.696 316.585 265.415 315.305 266.121C313.095 267.342 311.906 270.782 310.44 272.731C308.782 274.936 307.283 275.889 304.47 276.107C300.962 276.378 298.159 276.351 294.799 277.553C290.696 279.022 286.64 280.599 282.594 282.218C276.068 284.831 269.977 287.571 263.834 290.9C257.408 294.384 251.13 298.063 244.899 301.75C238.736 305.397 233.411 310.103 227.925 314.705C223.491 318.425 219.523 322.52 215.105 326.24C209.889 330.633 205.817 336.422 200.92 341.144C198.242 343.727 195.671 346.274 193.848 349.447C192.37 352.019 189.987 354.452 188.299 357.137C186.142 360.57 184.087 363.956 181.717 367.247C180.745 368.598 179.632 369.73 178.619 371.011C177.321 372.652 177.233 374.35 176.741 376.339C176.467 375.815 176.194 375.291 175.92 374.769C175.223 375.987 174.408 377.172 173.787 378.428C173.39 379.229 173.332 380.416 172.944 381.113C172.456 381.988 171.976 381.819 171.404 382.532C170.791 383.294 170.517 384.371 169.871 385.189C167.075 388.726 165.692 393.424 164.038 397.609C161.818 403.224 161.473 409.892 161.017 415.859C160.535 422.163 160.297 428.49 160.663 434.809C160.995 440.532 162.315 446.118 164.706 451.341C166.79 455.89 169.979 458.734 174.157 461.368C176.075 462.578 177.971 462.447 180.068 462.814C182.365 463.216 183.884 464.003 186.383 463.685C187.581 463.531 188.216 462.724 189.175 462.527C189.769 462.406 190.054 462.726 190.614 462.713C191.416 462.693 193.101 462.462 193.952 462.64C196.601 463.194 195.777 467.229 195.848 469.335C195.958 472.582 195.957 475.853 196.21 479.093C196.742 485.907 198.647 492.41 199.507 499.14C192.635 499.314 186.689 500.024 180.081 501.996C173.453 503.975 166.912 504.228 160.069 504.866C153.667 505.463 147.409 507.134 141.997 510.738C139.461 512.426 136.802 514.431 138.244 517.759C139.167 519.887 141.117 520.595 142.733 521.937C143.123 521.527 142.202 520.487 142.041 520.208C143.463 520.649 143.356 521.327 144.36 522.024C145.238 522.632 145.997 522.688 146.976 523.153C149.367 524.289 150.376 526.642 152.763 527.507C153.514 527.78 154.476 528.35 155.25 528.56C156.18 528.813 156.926 528.466 157.867 528.735C158.352 529.128 158.888 529.428 159.475 529.633C159.886 529.487 160.293 529.331 160.695 529.163C162.057 529.441 162.826 530.396 163.878 531.222C164.036 530.326 164.015 529.378 164.916 528.871C165.167 529.781 164.581 530.285 165.429 530.977C166.503 531.854 168.094 531.045 169.163 530.66C169.184 533.606 175.902 534.087 178.031 534.252C180.978 534.482 184.025 533.591 186.933 534.537C188.416 535.019 190 535.526 191.467 536.107C193.234 536.806 195.385 537.488 197.111 538.32C197.797 538.652 198.59 539.577 199.351 539.594C199.958 539.607 200.202 538.728 200.9 538.821C201.69 538.928 201.875 539.845 202.536 540.179C203.527 540.68 204.541 540.01 205.482 540.49C205.82 540.662 206.241 541.301 206.673 541.538C207.327 541.898 208.676 542.033 209.422 542.248C210.479 542.553 211.455 542.512 212.37 542.668C213.108 542.794 213.046 543.297 213.398 543.364C213.803 543.441 214.643 542.096 215.21 541.942C216.036 541.718 217.418 542.579 218.22 542.784C211.583 550.265 203.819 556.693 195.54 562.177C186.61 568.093 177.48 573.981 168.024 579.012C159.439 583.58 151.179 587.449 144.209 594.399C138.331 600.259 129.282 606.26 129.73 615.627C130.178 624.986 139.778 629.711 147.585 632.25C157.404 635.443 167.804 635.555 177.739 637.78C181.976 638.729 186.764 638.909 191.121 638.876C196.265 638.837 200.941 635.911 205.545 633.913C213.826 630.32 221.099 625.143 229.275 621.402C239.511 616.718 249.676 611.689 260.677 608.956C265.794 607.685 271.081 606.18 275.411 602.961C276.056 602.482 276.573 601.715 277.286 601.338C278.498 600.697 278.734 601.489 279.419 601.326C279.945 601.201 280.491 600.693 280.947 600.569C282.104 600.256 282.587 600.479 283.839 600.6C282.822 599.872 281.986 598.167 283.222 596.964C285.338 594.902 285.337 598.525 285.977 599.427C286.658 598.698 286.49 597.975 286.417 597.064C286.898 597.456 287.381 597.848 287.864 598.24C287.669 596.474 288.153 594.911 289.202 593.49C290.169 592.182 290.359 592.397 290.767 590.492C293.154 593.145 294.199 587.372 294.63 585.271C295.046 583.235 294.958 581.735 296.466 580.065C298.086 578.273 300.392 577.264 302.36 575.941C305.47 573.85 308.928 571.163 312.717 573.827C315.708 575.932 317.021 580.504 319.775 583.055C321.445 584.603 323.328 584.927 324.277 587.167C325.045 588.978 325.156 591.068 325.868 592.92C327.591 597.409 330.188 602.608 333.363 606.232C336.319 609.606 340.476 609.995 344.09 612.26C347.667 614.503 351.376 616.918 355.22 618.665C359.419 620.573 364.035 621.661 368.09 623.873C370.176 625.011 371.989 626.595 374.098 627.695C376.372 628.881 378.798 629.798 381.111 630.907C390.276 635.303 399.165 640.464 408.951 643.359C413.291 644.643 417.169 647.36 421.575 648.282C423.465 648.677 424.998 649.093 426.822 649.757C429.684 650.798 429.026 651.139 429.879 653.707C431.282 657.936 435.841 655.957 439.176 656.384C444.514 657.068 449.866 656.709 455.213 657.188C464.566 658.026 473.663 657.84 482.988 655.627C492.35 653.406 503.373 646.929 496.781 635.855Z" fill="#3C3B3B"/>
<path fill-rule="evenodd" clip-rule="evenodd" d="M417.965 308.041C418.081 308.183 418.374 308.291 417.965 308.041V308.041Z" fill="#3C3B3B"/>
<path fill-rule="evenodd" clip-rule="evenodd" d="M237.458 465.454C239.679 463.578 248.277 464.838 248.588 468.611C248.935 472.822 240.643 478.324 237.657 479.802C233.815 481.705 229.34 481.696 230.506 476.094C231.386 471.862 234.296 468.125 237.458 465.454ZM244.983 461.88C245.141 463.053 243.236 462.474 242.727 462.149C242.522 461.604 244.826 460.703 244.983 461.88ZM229.391 468.022C231.099 468.346 233.33 465.753 234.717 464.93C235.209 465.881 230.968 470.432 230.448 471.514C229.149 474.217 228.244 477.704 229.406 480.64C232.8 489.219 244.487 478.578 247.516 474.758C249.636 472.088 251.247 468.676 248.881 465.626C248.038 464.54 246.521 464.113 245.741 463.082C244.713 461.727 245.76 460.208 243.439 460.256C241.837 460.29 239.803 461.545 238.214 461.917C236.3 462.363 234.571 462.852 232.844 463.858C232.454 464.085 227.281 467.622 229.391 468.022Z" fill="#3C3B3B"/>
<path fill-rule="evenodd" clip-rule="evenodd" d="M350.734 482.394C349.135 487.905 343.084 493.129 337.253 492.787C331.447 492.446 330.136 486.154 331.606 481.383C332.859 477.315 337.084 470.446 342.092 471.736C346.029 472.749 352.105 477.67 350.734 482.394ZM347.914 472.648C344.509 469.431 339.563 467.613 335.102 469.469C333.64 470.078 327.773 472.819 329.262 475.206C331.709 473.645 333.908 471.362 336.929 471.058C336.217 473.327 333.176 475.135 331.964 477.295C330.548 479.818 329.628 482.774 329.553 485.691C329.421 490.882 332.48 495.224 337.852 495.032C342.77 494.856 347.362 491.516 350.068 487.522C353.681 482.189 352.409 476.897 347.914 472.648Z" fill="#3C3B3B"/>
<path fill-rule="evenodd" clip-rule="evenodd" d="M311.847 491.585C308.876 495.23 304.556 498.509 299.84 499.265C293.734 500.243 295.867 495.44 297.976 492.049C299.841 489.051 303.042 483.894 307.155 484.324C308.551 484.469 311.089 485.403 312.244 486.275C314.52 487.995 313.411 489.668 311.847 491.585ZM307.071 482.475C308.105 481.514 312.671 477.406 312.904 480.977C314.224 479.7 313.39 478.453 311.878 478.157C310.053 477.801 307.851 479.671 306.428 480.568C303.499 482.414 301.196 484.372 299.111 487.157C296.813 490.227 291.041 497.109 295.201 500.783C299.697 504.753 307.304 498.969 310.629 495.929C312.754 493.983 315.598 491.099 315.152 487.9C314.605 483.97 310.208 483.135 307.071 482.475Z" fill="#3C3B3B"/>
<path fill-rule="evenodd" clip-rule="evenodd" d="M292.422 417.569C289.441 420.406 283.551 424.389 279.089 423.417C275.019 422.532 277.053 418.034 278.717 415.923C281.216 412.75 284.439 409.857 288.69 410.084C290.526 410.183 292.891 410.451 294.179 411.984C295.937 414.077 293.997 416.071 292.422 417.569ZM292.928 408.93C289.872 407.524 288.67 406.984 285.441 408.433C282.847 409.597 280.479 411.368 278.581 413.456C275.741 416.581 272.49 423.917 278.901 425.498C285.933 427.233 304.243 414.143 292.928 408.93Z" fill="#3C3B3B"/>
<path fill-rule="evenodd" clip-rule="evenodd" d="M300.832 429.22C298.587 431.132 295.868 432.606 292.892 432.909C294.384 430.25 297.703 424.443 301.054 423.916C302.598 423.672 304.27 424.351 303.987 426.07C303.781 427.313 301.718 428.465 300.832 429.22ZM304.148 422.128C302.529 421.104 303.119 420.57 301.081 421.051C299.475 421.429 297.427 422.158 296.033 423.091C295.273 423.601 292.881 425.437 293.055 426.507C293.369 428.45 295.279 425.705 295.762 425.188C296.446 425.868 292.16 430.957 291.852 431.834C290.705 435.097 293.277 435.705 295.931 434.858C299.509 433.719 310.493 426.136 304.148 422.128Z" fill="#3C3B3B"/>
<path fill-rule="evenodd" clip-rule="evenodd" d="M346.15 517.089C346.608 514.895 347.185 512.584 349.32 511.535C351.243 510.589 353.114 510.935 353.171 513.265C353.225 515.428 350.797 519.025 349.007 520.028C346.516 521.425 346.251 519.355 346.15 517.089ZM348.694 522.431C353.763 520.063 357.99 507.352 348.792 510.134C343.565 511.715 344.257 524.503 348.694 522.431Z" fill="#3C3B3B"/>
<path fill-rule="evenodd" clip-rule="evenodd" d="M312.732 464.513C313.634 463.022 314.548 462.587 316.148 462.052C315.034 462.927 313.905 463.725 312.732 464.513ZM314.196 460.765C313.007 461.759 310.358 463.194 310.534 465.118C310.694 466.874 312.011 466.902 313.246 466.48C315.836 465.595 317.674 460.798 320.317 460.589C317.602 458.466 316.921 458.486 314.196 460.765Z" fill="#3C3B3B"/>
<path fill-rule="evenodd" clip-rule="evenodd" d="M323.706 362.6C323.36 367.878 322.997 373.153 322.627 378.428C322.497 380.282 321.814 382.877 322.203 384.703C322.376 385.507 324.273 389.105 325.037 389.399C327.709 390.431 327.366 383.436 327.541 381.739C328.137 376.013 328.582 370.267 329.088 364.532C329.347 361.577 332.463 336.888 328.632 336.64C327.973 336.597 326.09 339.272 325.794 339.816C324.862 341.525 324.901 344.195 324.743 346.098C324.289 351.586 324.067 357.104 323.706 362.6Z" fill="#3C3B3B"/>
<path fill-rule="evenodd" clip-rule="evenodd" d="M345.25 380.131C345.331 381.608 344.994 384.023 346.555 384.936C347.914 385.729 348.53 385.002 349.173 383.834C350.652 381.147 350.607 376.815 350.852 373.912C351.337 368.159 351.22 362.373 351.302 356.603C351.338 354.071 351.977 351.587 351.907 348.927C351.876 347.76 352.167 343.105 350.018 343.115C348.075 343.123 347.8 348.005 347.579 349.248C345.744 359.598 344.672 369.567 345.25 380.131Z" fill="#3C3B3B"/>
<path fill-rule="evenodd" clip-rule="evenodd" d="M424.382 508.627C423.185 512.732 408.597 526.014 406.011 517.539C404.477 512.511 409.251 507.665 412.854 505.192C415.084 503.661 417.826 502.213 420.6 503.013C422.954 503.692 425.142 506.019 424.382 508.627ZM418.232 500.454C417.276 500.586 408.945 505.361 408.88 505.281C408.265 504.528 413.879 497.596 414.447 496.997C419.12 492.063 421.524 496.378 423.753 500.831C423.427 498.269 422.229 494.479 419.766 493.169C416.656 491.516 413.831 494.575 412.057 496.799C409.549 499.943 408.002 503.471 406.431 507.142C405.682 508.893 404.868 510.467 403.732 512C402.61 513.513 400.743 515.12 400.808 517.178C402.264 516.538 403.138 515.091 404.125 513.925C405.062 514.417 404.44 517.511 404.564 518.326C404.877 520.375 406.089 522.072 408.153 522.62C412.003 523.642 416.557 520.408 419.397 518.187C422.391 515.847 425.683 512.56 426.029 508.543C426.389 504.346 422.675 499.84 418.232 500.454Z" fill="#3C3B3B"/>
<path fill-rule="evenodd" clip-rule="evenodd" d="M435.098 434.106C432.567 437.309 428.301 441.029 424.113 441.422C421.039 441.711 419.253 439.261 420.747 436.333C422.009 433.859 425.651 432.573 428.044 431.663C429.943 430.942 438.601 429.674 435.098 434.106ZM433.982 428.356C429.458 427.741 425.491 430.692 421.863 433.003C422.907 430.045 424.94 426.913 427.557 425.176C431.118 422.812 434.106 424.786 437.472 426.469C436.863 423.648 433.09 422.287 430.593 422.434C427.436 422.621 424.951 425.081 423.139 427.518C420.978 430.425 420 434.004 417.524 436.688C416.39 437.916 409.669 442.271 410.901 444.438C413.471 442.162 416.041 439.887 418.612 437.612C418.946 440.629 419.305 444.064 423.079 444.141C426.094 444.202 429.744 441.97 432.113 440.223C435.172 437.966 441.575 429.388 433.982 428.356Z" fill="#3C3B3B"/>
<path fill-rule="evenodd" clip-rule="evenodd" d="M367.743 451.517C365.737 452.221 361.39 453.021 360.561 450.237C359.409 446.369 364.818 440.31 367.335 438.053C368.884 436.665 369.911 435.968 371.784 437.147C373.278 438.088 375.375 440.552 375.818 442.334C376.768 446.157 370.882 450.414 367.743 451.517ZM373.803 434.072C375.337 434.581 375.344 436.606 373.456 435.645C372.041 434.925 371.835 433.42 373.803 434.072ZM375.51 437.089C375.09 435.233 376.54 432.527 373.67 432.117C372.045 431.884 368.9 433.266 367.412 433.808C365.349 434.558 363.357 435.816 362.139 437.742C361.01 439.526 361.647 440.087 363.247 438.671C363.414 438.811 359.11 447.502 358.997 448.404C358.481 452.525 361.133 455.531 365.279 455.195C369.089 454.886 372.751 452.125 375.1 449.208C376.289 447.731 377.312 446.008 377.567 444.082C377.961 441.129 376.109 439.746 375.51 437.089Z" fill="#3C3B3B"/>
<path fill-rule="evenodd" clip-rule="evenodd" d="M399.575 431.039C396.435 429.21 392.297 434.017 393.596 437.239C395.299 441.464 406.114 434.849 399.575 431.039ZM395.133 436.431C394.564 435.142 399.363 433.789 400.098 433.831C399.669 434.47 395.915 438.199 395.133 436.431Z" fill="#3C3B3B"/>
<path fill-rule="evenodd" clip-rule="evenodd" d="M176.948 406.835C176.885 405.511 173.806 407.124 173.746 407.966C174.315 407.045 177.079 409.591 176.948 406.835Z" fill="#3C3B3B"/>
<path fill-rule="evenodd" clip-rule="evenodd" d="M344.915 322.98C348.648 323.066 345.658 303.766 342.803 305.169C339.708 306.69 341.49 322.9 344.915 322.98Z" fill="#3C3B3B"/>
<path fill-rule="evenodd" clip-rule="evenodd" d="M352.625 314.83C356.049 315.669 356.236 307.584 354.502 305.966C351.301 302.977 348.468 313.812 352.625 314.83Z" fill="#3C3B3B"/>
<defs>
<filter id="filter0_d" x="0" y="11.6157" width="715.132" height="654.016" filterUnits="userSpaceOnUse" color-interpolation-filters="sRGB">
<feFlood flood-opacity="0" result="BackgroundImageFix"/>
<feColorMatrix in="SourceAlpha" type="matrix" values="0 0 0 0 0 0 0 0 0 0 0 0 0 0 0 0 0 0 127 0"/>
<feOffset dx="15" dy="15"/>
<feGaussianBlur stdDeviation="2"/>
<feColorMatrix type="matrix" values="0 0 0 0 0.235294 0 0 0 0 0.231373 0 0 0 0 0.231373 0 0 0 0.3 0"/>
<feBlend mode="normal" in2="BackgroundImageFix" result="effect1_dropShadow"/>
<feBlend mode="normal" in="SourceGraphic" in2="effect1_dropShadow" result="shape"/>
</filter>
<filter id="filter1_d" x="13.1871" y="6.10352e-05" width="702.239" height="677.241" filterUnits="userSpaceOnUse" color-interpolation-filters="sRGB">
<feFlood flood-opacity="0" result="BackgroundImageFix"/>
<feColorMatrix in="SourceAlpha" type="matrix" values="0 0 0 0 0 0 0 0 0 0 0 0 0 0 0 0 0 0 127 0"/>
<feOffset dx="15" dy="15"/>
<feGaussianBlur stdDeviation="2"/>
<feColorMatrix type="matrix" values="0 0 0 0 0.235294 0 0 0 0 0.231373 0 0 0 0 0.231373 0 0 0 0.3 0"/>
<feBlend mode="normal" in2="BackgroundImageFix" result="effect1_dropShadow"/>
<feBlend mode="normal" in="SourceGraphic" in2="effect1_dropShadow" result="shape"/>
</filter>
</defs>
</svg>
