<svg width="1440" height="113" viewBox="0 0 1440 113" fill="none" xmlns="http://www.w3.org/2000/svg">
<path fill-rule="evenodd" clip-rule="evenodd" d="M1442 24.4102L1417.78 40.873C1393.57 57.3357 1345.13 89.9773 1296.7 104.169C1248.27 118.645 1199.83 114.388 1151.4 98.2087C1102.97 81.7459 1054.53 53.0781 1006.1 36.8992C957.667 20.4365 909.233 16.4627 860.8 16.4627C812.367 16.4627 763.933 20.4365 715.5 30.6547C667.067 40.873 618.633 57.3357 570.2 59.3226C521.767 61.3095 473.333 49.1043 424.9 36.8992C376.467 24.4102 328.033 12.2051 279.6 10.2182C231.167 8.23136 182.733 16.4627 134.3 34.6285C85.8667 53.0781 37.4335 81.7459 13.2168 95.938L-10.9999 110.414V-7.62939e-06H13.2168C37.4335 -7.62939e-06 85.8667 -7.62939e-06 134.3 -7.62939e-06C182.733 -7.62939e-06 231.167 -7.62939e-06 279.6 -7.62939e-06C328.033 -7.62939e-06 376.467 -7.62939e-06 424.9 -7.62939e-06C473.333 -7.62939e-06 521.767 -7.62939e-06 570.2 -7.62939e-06C618.633 -7.62939e-06 667.067 -7.62939e-06 715.5 -7.62939e-06C763.933 -7.62939e-06 812.367 -7.62939e-06 860.8 -7.62939e-06C909.233 -7.62939e-06 957.667 -7.62939e-06 1006.1 -7.62939e-06C1054.53 -7.62939e-06 1102.97 -7.62939e-06 1151.4 -7.62939e-06C1199.83 -7.62939e-06 1248.27 -7.62939e-06 1296.7 -7.62939e-06C1345.13 -7.62939e-06 1393.57 -7.62939e-06 1417.78 -7.62939e-06H1442V24.4102Z" fill="#F8F8F8"/>
</svg>
