<svg width="1440" height="118" viewBox="0 0 1440 118" fill="none" xmlns="http://www.w3.org/2000/svg">
<path fill-rule="evenodd" clip-rule="evenodd" d="M0 92.5097L24 75.3185C48 58.1273 96 24.0414 144 9.22142C192 -5.89494 240 -1.44895 288 15.4458C336 32.637 384 62.5733 432 79.4681C480 96.6592 528 100.809 576 100.809C624 100.809 672 96.6592 720 85.9889C768 75.3185 816 58.1273 864 56.0525C912 53.9777 960 66.7229 1008 79.4681C1056 92.5097 1104 105.255 1152 107.33C1200 109.404 1248 100.809 1296 81.8393C1344 62.5733 1392 32.637 1416 17.817L1440 2.70064V118H1416C1392 118 1344 118 1296 118C1248 118 1200 118 1152 118C1104 118 1056 118 1008 118C960 118 912 118 864 118C816 118 768 118 720 118C672 118 624 118 576 118C528 118 480 118 432 118C384 118 336 118 288 118C240 118 192 118 144 118C96 118 48 118 24 118H0V92.5097Z" fill="#F8F8F8"/>
</svg>
